<?xml version="1.0" encoding="utf-8"?>
<!-- Generator: Adobe Illustrator 23.0.5, SVG Export Plug-In . SVG Version: 6.00 Build 0)  -->
<svg version="1.1" id="Layer_1" xmlns="http://www.w3.org/2000/svg" xmlns:xlink="http://www.w3.org/1999/xlink" x="0px" y="0px"
	 viewBox="0 0 515 515" style="enable-background:new 0 0 515 515;" xml:space="preserve">
<style type="text/css">
	.st0{fill:#1565C0;}
	.st1{fill:#83D7F2;}
	.st2{fill:#FFFFFF;}
	.st3{opacity:0;}
	.st4{display:none;fill:#FFFFFF;}
	.st5{display:none;fill:#2A4788;}
	.st6{font-family:'DIN-Regular';}
	.st7{font-size:15px;}
</style>

<path class="st0" d="M257.5,515C399.7,515,515,399.7,515,257.5S399.7,0,257.5,0S0,115.3,0,257.5S115.3,515,257.5,515z"/>
<path class="st1" d="M274.7,36.8l-6.7-7c-0.2-0.2-0.4-0.3-0.7-0.3h-9.4c-0.5,0-0.9,0.4-0.9,0.9v14.9c0.1,0,0.2,0,0.4,0
	c0.3,0,0.5,0.1,0.7,0.2v-15h9v6.6c0,0.3,0.2,0.5,0.5,0.5h6.3V51H262c0,0.1,0,0.2,0,0.3c0,0.3,0,0.5-0.2,0.7H274c0.5,0,0.9-0.4,0.9-1
	V37.4C274.9,37.2,274.8,36.9,274.7,36.8L274.7,36.8z M268.1,36.5v-5.1l4.8,5.1H268.1z"/>
<path class="st1" d="M260.8,40.5c0,0.3,0.2,0.5,0.5,0.5h9.6c0.3,0,0.5-0.2,0.5-0.5s-0.2-0.5-0.5-0.5h-9.6
	C261,40,260.8,40.2,260.8,40.5z"/>
<path class="st1" d="M270.9,42.5h-9.6c-0.3,0-0.5,0.2-0.5,0.5s0.2,0.5,0.5,0.5h9.6c0.3,0,0.5-0.2,0.5-0.5S271.1,42.5,270.9,42.5z"/>
<path class="st1" d="M270.9,47.4h-4.8c-0.3,0-0.5,0.2-0.5,0.5s0.2,0.5,0.5,0.5h4.8c0.3,0,0.5-0.2,0.5-0.5S271.1,47.4,270.9,47.4z"/>
<path class="st1" d="M270.9,44.9h-4.8c-0.3,0-0.5,0.2-0.5,0.5s0.2,0.5,0.5,0.5h4.8c0.3,0,0.5-0.2,0.5-0.5S271.1,44.9,270.9,44.9z"/>
<path class="st2" d="M263.1,44.8h-19c-0.1-0.9-0.4-1.5-0.9-2c-0.9-0.8-2.2-0.7-2.2-0.7h-1.2c-0.3,0-0.5,0.2-0.5,0.5s0.2,0.5,0.5,0.5
	h1.3c0,0,0.9-0.1,1.4,0.4c0.4,0.3,0.6,0.9,0.6,1.6v13.5v0.6c0,0.1,0,1,0.6,1.7c0.3,0.3,0.6,0.4,0.9,0.5c0.2,1.2,1.2,2.1,2.4,2.1
	s2.2-0.8,2.4-2h5.8c0.2,1.1,1.2,2,2.4,2c1.4,0,2.5-1.1,2.5-2.5s-1.1-2.5-2.5-2.5c-1.2,0-2.2,0.8-2.4,2h-5.8c-0.2-1.1-1.2-2-2.4-2
	s-2.1,0.8-2.4,1.8c-0.1,0-0.2-0.1-0.3-0.1c-0.3-0.3-0.3-0.7-0.3-0.9v-2.1h15.5c0.6,0,1.2-0.4,1.4-1l2.9-7.9c0.3-0.7,0.4-1.2,0.5-1.5
	l0,0c0.1-0.2,0.1-0.3,0.1-0.5C264.5,45.5,263.9,44.8,263.1,44.8L263.1,44.8z M257.7,59.5c0.8,0,1.4,0.6,1.4,1.4s-0.6,1.4-1.4,1.4
	s-1.4-0.7-1.4-1.4S256.9,59.5,257.7,59.5z M247.1,59.5c0.8,0,1.4,0.6,1.4,1.4s-0.6,1.4-1.4,1.4c-0.8,0-1.4-0.7-1.4-1.4
	S246.3,59.5,247.1,59.5L247.1,59.5z M263.5,46.4L263.5,46.4c-0.1,0.2-2.3,6.2-3.4,9.4c-0.1,0.2-0.2,0.3-0.4,0.3h-15.5V45.8h18.9
	c0.2,0,0.4,0.2,0.4,0.4C263.5,46.3,263.5,46.3,263.5,46.4L263.5,46.4z"/>
<path class="st1" d="M396,76.4h-17.1c-2.1,0-3.9,1.7-3.9,3.9v11.1c0.2,0,0.4,0,0.7,0c0.1,0,0.2,0.1,0.3,0.1V80.3
	c0-1.6,1.3-2.9,2.9-2.9H396c1.6,0,2.9,1.3,2.9,2.9v17.1c0,1.6-1.3,2.9-2.9,2.9h-14c0.2,0.7,0.4,1.3,0.2,1.9l1.1-0.9h8.2l2.3,1.9
	c0.1,0.1,0.2,0.1,0.3,0.1h3c0.1,0,0.3-0.1,0.4-0.2s0.1-0.2,0.1-0.4v-1.9c1.3-0.6,2.2-2,2.2-3.5v-17C399.9,78.2,398.1,76.4,396,76.4
	L396,76.4z M394.3,102.3l-1.2-1h2.9c0.2,0,0.4,0,0.7-0.1v1.1H394.3L394.3,102.3z"/>
<path class="st1" d="M395.6,79.1h-16.3c-0.9,0-1.7,0.8-1.7,1.7V82h-0.4c-0.3,0-0.5,0.2-0.5,0.5V86c0,0.3,0.2,0.5,0.5,0.5h0.4v4.8
	h-0.4c-0.3,0-0.5,0.2-0.5,0.5v0.1c0.4,0.2,0.7,0.5,1,0.8v-0.5h0.7V94c0.1,0.2,0.1,0.4,0.2,0.7c0.1-0.1,0.2-0.1,0.4-0.2
	c0.1-0.1,0.3-0.1,0.4-0.1v-2.7c0-0.3-0.2-0.5-0.5-0.5h-0.4v-4.8h0.4c0.3,0,0.5-0.2,0.5-0.5v-3.5c0-0.3-0.2-0.5-0.5-0.5h-0.4v-1.3
	c0-0.4,0.3-0.7,0.7-0.7h16.3c0.4,0,0.7,0.3,0.7,0.7V97c0,0.4-0.3,0.7-0.7,0.7h-14.2c0.1,0.3,0.2,0.7,0.3,1h13.9
	c0.9,0,1.7-0.8,1.7-1.7V80.8C397.2,79.8,396.5,79.1,395.6,79.1L395.6,79.1z M378.5,85.5h-0.7V83h0.7V85.5z"/>
<path class="st1" d="M390.6,85.2c-2,0-3.7,1.7-3.7,3.7s1.7,3.7,3.7,3.7s3.7-1.7,3.7-3.7S392.7,85.2,390.6,85.2z M390.6,91.6
	c-1.5,0-2.7-1.2-2.7-2.7s1.2-2.7,2.7-2.7s2.7,1.2,2.7,2.7S392.1,91.6,390.6,91.6z"/>
<path class="st1" d="M390.6,87.3c-0.9,0-1.6,0.7-1.6,1.6s0.7,1.6,1.6,1.6s1.6-0.7,1.6-1.6S391.5,87.3,390.6,87.3z M390.6,89.4
	c-0.3,0-0.6-0.3-0.6-0.6s0.3-0.6,0.6-0.6c0.3,0,0.6,0.3,0.6,0.6S391,89.4,390.6,89.4z"/>
<path class="st2" d="M382.1,100.1v-4.3c0-1-0.8-1.8-1.8-1.8H379l-1.1-3.2c-0.1-0.3-0.4-0.5-0.7-0.4l-2.1,0.5l-2.1-2.7
	c-0.2-0.2-0.5-0.3-0.8-0.1L362.1,94h-1c-1,0-1.8,0.8-1.8,1.8v14.5c0,1,0.8,1.8,1.8,1.8h19.3c1,0,1.8-0.8,1.8-1.8V106
	c0.7-0.3,1.2-0.9,1.2-1.7v-2.4C383.4,101.1,382.8,100.4,382.1,100.1L382.1,100.1z M372.4,89.4l1.5,1.8l-7.8,1.9L372.4,89.4
	L372.4,89.4z M376.9,91.7l0.8,2.3h-10.3L376.9,91.7z M380.3,110.9H361c-0.3,0-0.6-0.3-0.6-0.6V95.8c0-0.3,0.3-0.6,0.6-0.6h19.3
	c0.3,0,0.6,0.3,0.6,0.6v4.2h-4.8c-1,0-1.8,0.8-1.8,1.8v2.4c0,1,0.8,1.8,1.8,1.8h4.8v4.2C380.9,110.6,380.7,110.9,380.3,110.9
	L380.3,110.9z M382.1,104.2c0,0.3-0.3,0.6-0.6,0.6h-5.4c-0.3,0-0.6-0.3-0.6-0.6v-2.4c0-0.3,0.3-0.6,0.6-0.6h5.4
	c0.3,0,0.6,0.3,0.6,0.6V104.2z"/>
<path class="st1" d="M451.7,198.8l0.2,0.2c0.8,0.5,1.4,1.2,1.8,2l0.1,0.3c0,0,0,0.1,0.1,0.1h0.1l7-1.6c0,0,0.1,0,0.1-0.1v-0.1
	l-0.1-0.4c-1-2.7-2.8-5-5.2-6.6c-0.4-0.3-0.8-0.5-1.4-0.8l-0.4-0.2h-0.1l-0.1,0.1l-2.3,6.8C451.6,198.6,451.6,198.7,451.7,198.8
	L451.7,198.8z M455.3,193.4c2.1,1.3,3.6,3.2,4.5,5.4l-5.4,1.2c-0.4-0.7-1-1.3-1.6-1.8l1.8-5.2C454.8,193.2,455.1,193.3,455.3,193.4
	L455.3,193.4z"/>
<path class="st1" d="M461.7,202.1v-0.4c0,0,0-0.1-0.1-0.1h-0.1l-7,1.6c-0.1,0-0.1,0.1-0.1,0.2v0.3c0,0.9-0.3,1.9-0.8,2.7
	s-1.2,1.4-2.1,1.9l-0.3,0.1c-0.1,0-0.1,0.1-0.1,0.2l1.6,7c0,0,0,0.1,0.1,0.1h0.1l0.4-0.1c2.7-1,5-2.8,6.5-5.2
	C461.4,207.8,462,205,461.7,202.1L461.7,202.1z M452.3,208.8c0.9-0.5,1.6-1.2,2.1-2.1s0.9-1.8,1-2.8l5.4-1.2
	c0.1,2.4-0.5,4.8-1.8,6.8c-1.3,2.1-3.2,3.6-5.4,4.5L452.3,208.8L452.3,208.8z"/>
<path class="st1" d="M439.5,195.1l5.8,4.3l0,0c0.1,0,0.1,0,0.2,0l0.2-0.2c1-0.8,2.4-1.3,3.7-1.2h0.3c0.1,0,0.1,0,0.2-0.1l2.3-6.8
	V191l-0.1-0.1l-0.4-0.1c-4.3-0.9-8.9,0.5-11.9,3.7l-0.3,0.3l-0.1,0.1C439.4,195,439.4,195.1,439.5,195.1L439.5,195.1z M440.9,194.9
	c2.6-2.5,6.3-3.6,9.9-3.1L449,197c-1.3,0-2.6,0.4-3.7,1.2L440.9,194.9z"/>
<path class="st1" d="M450.8,215.8l-1.6-7c0-0.1-0.1-0.1-0.2-0.1h-0.3c-1,0-1.9-0.3-2.7-0.8c-2.2-1.4-3-4.1-2.1-6.5l0.1-0.3
	c0-0.1,0-0.2-0.1-0.2l-5.8-4.3H438c-0.1,0-0.1,0-0.1,0.1l-0.2,0.4c-0.9,1.6-1.4,3.3-1.6,4.9c0.4,0,0.7,0,1,0.2
	c0.1-1.4,0.6-2.8,1.2-4.1l4.4,3.3c-0.9,2.8,0.1,5.8,2.6,7.4c0.8,0.5,1.8,0.9,2.8,1l1.2,5.4c-2.2,0.1-4.3-0.4-6.2-1.4
	c-0.1,0.3-0.3,0.7-0.6,0.9c2.3,1.3,4.9,1.9,7.6,1.6h0.4c0,0,0.1,0,0.1-0.1C450.9,215.9,450.9,215.9,450.8,215.8L450.8,215.8z"/>
<path class="st2" d="M438.3,207.1c0-1.6-1.3-2.8-2.9-2.8s-2.9,1.3-2.9,2.8c0,1.6,1.3,2.9,2.9,2.9S438.3,208.7,438.3,207.1z
	 M433.6,207.1c0-1,0.9-1.9,1.9-1.9s1.9,0.9,1.9,1.9s-0.9,1.9-1.9,1.9C434.4,209,433.6,208.2,433.6,207.1z"/>
<path class="st2" d="M443,212L443,212l-2.8-1c0.2-0.4,0.4-0.9,0.6-1.3c0.4-0.8,0.6-1.7,0.6-2.5c0-3.2-2.6-5.9-5.9-5.9
	s-5.9,2.6-5.9,5.9c0,0.9,0.2,1.7,0.6,2.5c0.2,0.4,0.4,0.9,0.6,1.3l-2.8,0.9l-2.7,10.1l5.1-2.4l5.1,2.4l5.1-2.4l5.1,2.4L443,212
	L443,212z M431,209.3c-0.3-0.7-0.5-1.4-0.5-2.1c0-2.7,2.2-4.9,4.9-4.9c2.7,0,5,2.2,5,4.9c0,0.7-0.2,1.4-0.5,2.1
	c-1.3,3.1-3.6,6.1-4.5,7.1C434.6,215.4,432.3,212.4,431,209.3L431,209.3z M431.2,211.9c1.7,3.1,3.9,5.6,3.9,5.6l0.4,0.4l0.4-0.4
	c0,0,2.2-2.6,3.9-5.7l2.5,0.8l2,7.6l-3.7-1.7l-5.1,2.4l-5.1-2.4l-3.7,1.7l2-7.6L431.2,211.9L431.2,211.9z"/>
<path class="st2" d="M180.6,392.4c-0.2-0.1-0.4-0.1-0.6,0l-3.5,1.6c-0.2,0.1-0.3,0.2-0.4,0.4c-0.1,0.3,0.1,0.7,0.4,0.9
	c0.2,0.1,0.3,0.1,0.5,0l1.5-0.7c-3.2,5.6-2.9,12.5,0.9,17.8c0.1,0.2,0.3,0.3,0.6,0.3c0.4,0,0.7-0.3,0.7-0.7c0-0.1-0.1-0.3-0.1-0.4
	c-3.5-4.8-3.8-11.2-0.8-16.3v1.5c0,0.4,0.4,0.7,0.7,0.6c0.4,0,0.6-0.3,0.6-0.7l-0.1-3.8C180.9,392.7,180.8,392.5,180.6,392.4"/>
<path class="st2" d="M201.5,386.4c-0.2-0.3-0.6-0.5-0.9-0.3c-0.3,0.2-0.5,0.6-0.3,0.9l0.7,1.5c-5.6-3.2-12.5-2.9-17.8,0.9
	c-0.3,0.2-0.4,0.6-0.2,1c0.2,0.3,0.6,0.4,0.9,0.2c4.8-3.4,11.2-3.8,16.3-0.8h-1.5c-0.4,0-0.7,0.4-0.6,0.7c0,0.4,0.3,0.6,0.7,0.6
	l3.7-0.1c0.4,0,0.7-0.3,0.7-0.7c0-0.1,0-0.2-0.1-0.3L201.5,386.4L201.5,386.4z"/>
<path class="st2" d="M209.4,410.5c-0.1-0.3-0.5-0.5-0.9-0.3l-1.5,0.7c3.2-5.6,2.8-12.5-0.9-17.8c-0.2-0.3-0.7-0.3-1-0.1
	c-0.3,0.2-0.3,0.6-0.2,0.9c3.5,4.8,3.8,11.2,0.9,16.3v-1.5c0-0.4-0.3-0.7-0.7-0.6c-0.4,0-0.6,0.3-0.6,0.7l0.1,3.7
	c0,0.4,0.3,0.7,0.7,0.7c0.1,0,0.2,0,0.3-0.1l3.5-1.6C209.4,411.3,209.6,410.9,209.4,410.5"/>
<path class="st2" d="M201.8,415c-0.2,0-0.4,0-0.5,0.1c-4.9,3.4-11.3,3.6-16.3,0.5h1.5c0.4,0,0.7-0.3,0.7-0.7c0-0.4-0.3-0.7-0.7-0.7
	h-3.7c-0.4,0-0.7,0.3-0.7,0.7c0,0.1,0,0.2,0.1,0.3l1.5,3.6c0.1,0.3,0.4,0.4,0.6,0.4c0.1,0,0.2,0,0.3,0c0.3-0.1,0.5-0.6,0.4-0.9
	l-0.6-1.5c2.5,1.5,5.3,2.3,8.1,2.3h0.3c3.3,0,6.6-1,9.3-2.9c0.3-0.2,0.4-0.6,0.2-0.9C202.2,415.2,202,415.1,201.8,415"/>
<path class="st1" d="M192.8,413.2l-9.3-5.4v-10.7l9.3-5.4l9.3,5.4v10.7L192.8,413.2z M184.4,407.3l8.3,4.8l8.4-4.8v-9.6l-8.4-4.8
	l-8.3,4.8V407.3L184.4,407.3z"/>
<path class="st1" d="M201.3,397l-4.8,2.8l0.5,0.8l4.8-2.8L201.3,397z"/>
<path class="st1" d="M193.2,405.9h-0.9v6.7h0.9V405.9z"/>
<path class="st1" d="M192.8,406.4c-1.3,0-2.5-0.5-3.3-1.4c-1.9-1.9-1.9-4.9,0-6.7c1.8-1.8,4.9-1.8,6.7,0c1.9,1.9,1.9,4.9,0,6.7
	C195.2,405.9,194,406.4,192.8,406.4z M192.8,397.8c-2.1,0-3.8,1.7-3.8,3.8c0,1,0.4,2,1.1,2.7c1.5,1.5,3.9,1.5,5.4,0s1.5-3.9,0-5.4
	C194.8,398.2,193.8,397.8,192.8,397.8L192.8,397.8z"/>
<path class="st1" d="M192.2,403.6l-1.8-1.8l0.7-0.7l1.1,1.1l2.3-2.3l0.7,0.7L192.2,403.6z"/>
<path class="st1" d="M184.2,396.9l-0.5,0.8l4.8,2.8l0.5-0.8L184.2,396.9z"/>
<path class="st1" d="M152.3,82.1c0-0.1-0.1-0.2-0.1-0.3l-0.9-0.9c-0.2-0.2-0.4-0.2-0.6,0l-0.8,0.8c-0.6-0.3-1.4-0.2-1.9,0.3
	l-0.2,0.2l-0.9-0.9c-0.2-0.2-0.4-0.2-0.6,0l-3.1,3.1c-0.2,0.2-0.2,0.4,0,0.6s0.4,0.2,0.6,0l2.8-2.8l0.6,0.6l-7.7,7.7
	c0,0,0,0-0.1,0.1c0,0,0,0,0,0.1l-0.7,3.1l-0.5,0.5c-0.2,0.2-0.2,0.5,0,0.6c0.1,0.1,0.2,0.1,0.3,0.1s0.2,0,0.3-0.1l0.5-0.5l3.2-0.7
	h0.1c0,0,0.1,0,0.1-0.1l8.4-8.4c0.5-0.5,0.6-1.3,0.3-1.9l0.8-0.8C152.3,82.4,152.3,82.3,152.3,82.1L152.3,82.1z M149.7,85.3
	l-7.4,7.4l-1.9-1.9l7.4-7.4L149.7,85.3z M150.4,84.7l-1.9-1.9l0.1-0.2c0.3-0.3,0.7-0.3,1,0l0.9,0.9c0.3,0.3,0.3,0.7,0,1L150.4,84.7z
	 M150.6,82.2l0.3-0.3l0.3,0.3l-0.4,0.3L150.6,82.2z M139.7,93.4l0.4-1.8l1.4,1.4L139.7,93.4L139.7,93.4z"/>
<path class="st1" d="M144.8,91v8.2h-11.3c0,0.4-0.1,0.8-0.4,1.1H145c0.5,0,0.9-0.4,0.9-0.9V90c-0.2,0.2-0.4,0.5-0.6,0.7
	C145.1,90.9,145,91,144.8,91L144.8,91z"/>
<path class="st1" d="M145,77.9h-9.3c-0.3,0-0.5,0.1-0.7,0.3l-6.6,7c-0.2,0.2-0.3,0.4-0.3,0.6v4.4c0.4,0,0.8,0.2,1.1,0.5V86h6.2
	c0.3,0,0.5-0.2,0.5-0.5V79h8.9v6.5c0.3-0.3,0.6-0.4,1-0.4c0,0,0,0,0.1,0v-6.2C145.9,78.3,145.5,77.9,145,77.9L145,77.9z M134.9,85
	h-4.8l4.8-5.1V85z"/>
<path class="st1" d="M141.9,95.8h-4.7c-0.3,0-0.5,0.2-0.5,0.5s0.2,0.5,0.5,0.5h4.7c0.3,0,0.5-0.2,0.5-0.5S142.2,95.8,141.9,95.8z"/>
<path class="st2" d="M139.3,108.8l-1.2-1.2l-4.8-4.8l-0.4-0.4c0.3-0.4,0.6-0.8,0.8-1.2c0.3-0.5,0.5-1.1,0.7-1.7s0.3-1.2,0.3-1.8
	c0-0.6,0-1.3-0.1-1.9s-0.3-1.3-0.6-1.8c-0.3-0.6-0.6-1.1-0.9-1.6c-0.4-0.5-0.8-0.9-1.2-1.3s-0.9-0.7-1.5-1s-1.1-0.5-1.7-0.7
	c-0.6-0.2-1.2-0.3-1.8-0.3c-0.6,0-1.2,0-1.9,0.1c-0.6,0.1-1.3,0.3-1.8,0.5s-1,0.5-1.5,0.8s-0.9,0.7-1.3,1c-0.4,0.4-0.7,0.8-1,1.3
	c-0.3,0.4-0.6,0.9-0.8,1.4c-0.2,0.5-0.4,1-0.5,1.5s-0.2,1.1-0.2,1.6c0,0.6,0,1.1,0.1,1.6c0.1,0.6,0.3,1.1,0.5,1.6
	c0.3,0.8,0.7,1.5,1.3,2.1c0.5,0.6,1.1,1.2,1.8,1.7s1.4,0.8,2.2,1.1c0.8,0.3,1.6,0.4,2.5,0.4c0.6,0,1.3-0.1,1.9-0.2
	c0.6-0.1,1.2-0.3,1.7-0.6c0.5-0.2,1-0.5,1.4-0.9l0.4,0.4l4.8,4.8l1.2,1.2c0.4,0.4,1.2,0.4,1.6,0C139.7,110,139.7,109.2,139.3,108.8
	L139.3,108.8z M128.8,91.1c0.8,0.3,1.6,0.8,2.2,1.5s1.1,1.4,1.5,2.2c0.2,0.4,0.3,0.8,0.4,1.3c0.1,0.4,0.1,0.8,0.1,1.3s0,0.9-0.1,1.3
	s-0.2,0.8-0.4,1.3c-0.3,0.8-0.8,1.6-1.5,2.2c-2.6,2.6-6.9,2.6-9.5,0c-0.6-0.6-1.1-1.4-1.5-2.2c-0.2-0.4-0.3-0.8-0.4-1.3
	c-0.1-0.4-0.1-0.8-0.1-1.3s0-0.9,0.1-1.3s0.2-0.8,0.4-1.3c0.3-0.8,0.8-1.6,1.5-2.2s1.4-1.1,2.2-1.5c0.4-0.2,0.8-0.3,1.3-0.4
	c0.4-0.1,0.8-0.1,1.3-0.1s0.9,0,1.3,0.1C127.9,90.8,128.4,91,128.8,91.1z"/>
<path class="st1" d="M319.2,407.8h-5.7c-0.4,0-0.6,0.3-0.6,0.6v3.3c0.5-0.1,1,0.1,1.3,0.4v-3h4.4v6.7h-1.7c0.2,0.2,0.3,0.5,0.3,0.8
	c0,0.1,0,0.3-0.1,0.4h2.1c0.4,0,0.6-0.3,0.6-0.6v-8C319.8,408.1,319.6,407.8,319.2,407.8L319.2,407.8z"/>
<path class="st1" d="M328.5,417h-5.7c-0.4,0-0.6-0.3-0.6-0.6V405c0-0.3,0.3-0.6,0.6-0.6h5.7c0.3,0,0.6,0.3,0.6,0.6v11.4
	C329.2,416.8,328.9,417,328.5,417z M323.5,415.8h4.4v-10.1h-4.4V415.8z"/>
<path class="st1" d="M337.8,417h-5.7c-0.4,0-0.6-0.3-0.6-0.6v-16.2c0-0.4,0.3-0.6,0.6-0.6h5.7c0.4,0,0.6,0.3,0.6,0.6v16.2
	C338.5,416.8,338.2,417,337.8,417z M332.8,415.8h4.4v-15h-4.4V415.8z"/>
<path class="st2" d="M321.6,426.3l-1-1l-4-4l-0.3-0.3c0.2-0.3,0.5-0.7,0.6-1c0.2-0.4,0.4-0.9,0.5-1.4s0.2-1,0.2-1.5s0-1.1-0.1-1.6
	s-0.3-1-0.5-1.5s-0.5-0.9-0.8-1.3s-0.6-0.8-1-1.1c-0.4-0.3-0.8-0.6-1.2-0.8c-0.4-0.2-0.9-0.4-1.4-0.6c-0.5-0.1-1-0.2-1.5-0.3
	c-0.5,0-1,0-1.5,0.1s-1,0.2-1.5,0.4c-0.4,0.2-0.9,0.4-1.2,0.7c-0.4,0.3-0.7,0.5-1,0.9c-0.3,0.3-0.6,0.7-0.9,1s-0.5,0.8-0.6,1.2
	c-0.2,0.4-0.3,0.8-0.4,1.3s-0.1,0.9-0.2,1.3c0,0.5,0,0.9,0.1,1.4s0.2,0.9,0.4,1.4c0.3,0.6,0.6,1.2,1.1,1.8c0.4,0.5,0.9,1,1.5,1.4
	s1.2,0.7,1.8,0.9c0.7,0.2,1.4,0.3,2,0.3c0.5,0,1.1-0.1,1.6-0.2s1-0.3,1.4-0.5s0.8-0.4,1.2-0.7l0.3,0.3l4,4l1,1c0.4,0.4,1,0.4,1.3,0
	S321.9,426.7,321.6,426.3L321.6,426.3z M312.9,411.7c0.7,0.3,1.3,0.7,1.8,1.2s0.9,1.1,1.2,1.8c0.1,0.3,0.2,0.7,0.3,1
	c0.1,0.4,0.1,0.7,0.1,1.1s0,0.7-0.1,1.1s-0.2,0.7-0.3,1c-0.3,0.7-0.7,1.3-1.2,1.8c-2.2,2.2-5.7,2.2-7.9,0c-0.5-0.5-0.9-1.1-1.2-1.8
	c-0.1-0.3-0.2-0.7-0.3-1c-0.1-0.4-0.1-0.7-0.1-1.1s0-0.7,0.1-1.1s0.2-0.7,0.3-1c0.3-0.7,0.7-1.3,1.2-1.8s1.1-0.9,1.8-1.2
	c0.3-0.1,0.7-0.2,1-0.3c0.4-0.1,0.7-0.1,1.1-0.1s0.7,0,1.1,0.1C312.2,411.5,312.6,411.6,312.9,411.7z"/>
<path class="st1" d="M435.5,337c-0.5-0.4-1.6-0.9-3.4-1.7c-0.9-0.4-2-0.9-2.2-1c-0.1-0.1,0-1.1,1-2.6c1.2-1.2,0.9-2.3,0.6-2.8
	c0-0.1,0-0.2,0-0.3c0.1-0.7,0.2-1.7,0-2.4c-0.5-1.8-2.5-2.7-4.2-2.7s-3.7,0.8-4.2,2.7c-0.2,0.8-0.1,1.8-0.1,2.4c0,0.1,0,0.3,0,0.3
	c-0.4,0.5-0.6,1.6,0.6,2.8c1,1.5,1.1,2.5,1,2.6c-0.2,0.2-1.3,0.7-2.2,1.1c-1.7,0.8-2.9,1.3-3.4,1.7c-0.4,0.3-0.6,0.7-0.7,1.3
	c0.4,0,0.7,0.1,0.9,0.3c0-0.4,0.1-0.7,0.2-0.8c0,0,0.1,0,0.1-0.1c0.3-0.3,1.9-1,3.1-1.6c1.6-0.7,2.2-1,2.5-1.3
	c0.8-0.8,0-2.5-0.9-3.9c0,0,0,0,0-0.1c-1-1-0.5-1.6-0.5-1.7c0.1-0.1,0.1-0.2,0.1-0.3c0-0.1,0-0.3,0-0.6c-0.1-0.6-0.1-1.5,0-2.1
	c0.4-1.5,2.2-2,3.3-2c1.1,0,2.9,0.5,3.3,2c0.2,0.6,0.1,1.5,0,2.1c0,0.3,0,0.5,0,0.6s0,0.3,0.1,0.3c0,0,0.6,0.6-0.5,1.7
	c0,0,0,0-0.1,0.1c-0.9,1.4-1.7,3.1-0.9,3.9c0.3,0.3,0.9,0.6,2.5,1.3c1.2,0.5,2.8,1.2,3.1,1.6l0.1,0.1c0.2,0.1,0.3,0.7,0.2,1.4
	c-0.1,0.5-0.4,1.1-0.9,1.1h-12c0.6,0.1,1,0.5,1.3,0.9H434c0.8,0,1.5-0.7,1.8-1.8C436.3,338.5,436.3,337.5,435.5,337L435.5,337z"/>
<path class="st2" d="M423.1,346.9h-20.4c-1.2,0-2.2-1-2.6-2.6c-0.3-1.3-0.2-2.8,0.8-3.5c0.7-0.6,2.4-1.4,4.9-2.5
	c1.2-0.5,2.9-1.3,3.2-1.5c0.2-0.2,0.1-1.6-1.4-3.8c-1.7-1.8-1.4-3.3-0.8-4.1c0-0.1,0-0.3,0-0.5c-0.1-1-0.2-2.5,0.1-3.5
	c0.8-2.7,3.7-3.9,6.1-3.9s5.4,1.2,6.1,3.9c0.3,1.1,0.2,2.6,0.1,3.5c0,0.2,0,0.4,0,0.5c0.5,0.8,0.9,2.3-0.8,4.1
	c-1.5,2.2-1.6,3.6-1.4,3.9c0.3,0.2,2,1,3.2,1.5c2.5,1.1,4.2,1.9,4.9,2.5c1,0.6,1.1,2.2,0.8,3.4C425.3,345.9,424.4,346.9,423.1,346.9
	L423.1,346.9z M412.9,322.4c-1.6,0-4.2,0.8-4.8,2.9c-0.2,0.8-0.1,2.2,0,3c0,0.4,0.1,0.7,0.1,0.9c0,0.2-0.1,0.4-0.2,0.5
	s-0.8,0.9,0.7,2.4c0,0,0,0.1,0.1,0.1c1.4,2,2.4,4.5,1.3,5.6c-0.4,0.4-1.3,0.8-3.6,1.8c-1.7,0.8-4.1,1.8-4.5,2.3
	c-0.1,0-0.1,0.1-0.2,0.1c-0.3,0.1-0.5,0.9-0.2,2c0.2,0.7,0.6,1.5,1.3,1.5h20.4c0.7,0,1.1-0.8,1.3-1.5c0.3-1,0-1.8-0.2-2
	c-0.1,0-0.1-0.1-0.2-0.1c-0.5-0.5-2.8-1.5-4.5-2.3c-2.3-1-3.3-1.4-3.6-1.8c-1.1-1.1-0.1-3.6,1.3-5.6l0.1-0.1
	c1.5-1.6,0.7-2.4,0.7-2.4c-0.1-0.1-0.2-0.3-0.2-0.5s0-0.5,0.1-0.9c0.1-0.9,0.2-2.2,0-3C417.1,323.1,414.5,322.4,412.9,322.4
	L412.9,322.4z"/>
<path class="st1" d="M92.7,210.5l-12.3-21.1c-0.3-0.4-1-0.4-1.3,0L71.2,203c0.3,0.3,0.5,0.8,0.3,1.3c-0.2,0.7-0.4,1.4-0.6,2.1
	l8.8-15.1l11,19h-21c0.1,0.6-0.1,1.2-0.7,1.4h22.9c0.3,0,0.5-0.1,0.6-0.4C92.8,211,92.8,210.7,92.7,210.5L92.7,210.5z"/>
<path class="st1" d="M81.1,197.6l-0.7,6.9c0,0.3-0.3,0.5-0.5,0.5c-0.3,0-0.5-0.2-0.5-0.5l-0.7-6.9c-0.1-0.7,0.5-1.4,1.2-1.4
	S81.1,196.9,81.1,197.6L81.1,197.6z"/>
<path class="st1" d="M81,207.7c0-0.7-0.5-1.2-1.2-1.2s-1.2,0.5-1.2,1.2s0.5,1.2,1.2,1.2S81,208.4,81,207.7z"/>
<path class="st2" d="M75.9,223H56.1c-1.2,0-2.1-1-2.5-2.5c-0.3-1.2-0.2-2.8,0.8-3.4c0.6-0.6,2.3-1.3,4.7-2.4
	c1.2-0.5,2.8-1.3,3.1-1.5c0.2-0.2,0.1-1.6-1.4-3.7c-1.6-1.7-1.3-3.2-0.8-3.9c0-0.1,0-0.3,0-0.5c-0.1-1-0.2-2.4,0.1-3.4
	c0.7-2.6,3.6-3.8,5.9-3.8c2.3,0,5.2,1.2,5.9,3.8c0.3,1.1,0.2,2.5,0.1,3.4c0,0.2,0,0.3,0,0.5c0.5,0.7,0.8,2.2-0.8,3.9
	c-1.5,2.1-1.6,3.5-1.4,3.7c0.3,0.2,1.9,1,3.1,1.5c2.4,1.1,4.1,1.8,4.7,2.4c1,0.6,1.1,2.1,0.8,3.4C78,222.1,77.1,223,75.9,223
	L75.9,223z M66,199.2c-1.5,0-4.1,0.8-4.7,2.8c-0.2,0.8-0.1,2.1,0,2.9c0,0.3,0.1,0.6,0.1,0.8s-0.1,0.3-0.2,0.5
	c-0.1,0.1-0.8,0.9,0.7,2.4c0,0,0,0.1,0.1,0.1c1.3,1.9,2.3,4.4,1.3,5.5c-0.3,0.3-1.3,0.8-3.5,1.8c-1.7,0.7-4,1.7-4.4,2.2
	c0,0.1-0.1,0.1-0.2,0.1c-0.3,0.1-0.5,0.9-0.2,1.9c0.2,0.7,0.6,1.5,1.2,1.5H76c0.6,0,1.1-0.8,1.2-1.5c0.2-1,0-1.8-0.2-1.9
	c-0.1,0-0.1-0.1-0.2-0.1c-0.4-0.5-2.7-1.5-4.4-2.2c-2.2-1-3.2-1.4-3.5-1.8c-1.1-1.1-0.1-3.5,1.3-5.5c0,0,0-0.1,0.1-0.1
	c1.5-1.5,0.7-2.4,0.7-2.4c-0.1-0.1-0.2-0.3-0.2-0.5s0-0.5,0.1-0.8c0.1-0.9,0.2-2.1,0-2.9C70.1,200,67.5,199.2,66,199.2L66,199.2z"/>
<path class="st2" d="M92.8,329.4c-1.6,0-2.9,1.3-2.9,2.9s1.3,2.9,2.9,2.9s2.9-1.3,2.9-2.9S94.4,329.4,92.8,329.4z M92.8,334.1
	c-0.9,0-1.7-0.8-1.7-1.7s0.8-1.7,1.7-1.7c1,0,1.7,0.8,1.7,1.7S93.7,334.1,92.8,334.1z"/>
<path class="st1" d="M100.1,329.4c-1.6,0-2.9,1.3-2.9,2.9s1.3,2.9,2.9,2.9s2.9-1.3,2.9-2.9S101.7,329.4,100.1,329.4z M101.8,332.3
	c0,1-0.8,1.7-1.7,1.7c-1,0-1.7-0.8-1.7-1.7c0-0.9,0.8-1.7,1.7-1.7C101.1,330.6,101.8,331.4,101.8,332.3z"/>
<path class="st2" d="M85.5,336.4c-1.6,0-2.9,1.3-2.9,2.9s1.3,2.9,2.9,2.9s2.9-1.3,2.9-2.9S87.1,336.4,85.5,336.4z M87.2,339.3
	c0,1-0.8,1.7-1.7,1.7c-0.9,0-1.7-0.8-1.7-1.7c0-0.9,0.8-1.7,1.7-1.7C86.4,337.6,87.2,338.3,87.2,339.3z"/>
<path class="st2" d="M92.8,336.4c-1.6,0-2.9,1.3-2.9,2.9s1.3,2.9,2.9,2.9s2.9-1.3,2.9-2.9S94.4,336.4,92.8,336.4z M92.8,341
	c-0.9,0-1.7-0.8-1.7-1.7c0-1,0.8-1.7,1.7-1.7c1,0,1.7,0.8,1.7,1.7S93.7,341,92.8,341z"/>
<path class="st1" d="M100.1,336.4c-1.6,0-2.9,1.3-2.9,2.9s1.3,2.9,2.9,2.9s2.9-1.3,2.9-2.9S101.7,336.4,100.1,336.4z M101.8,339.3
	c0,1-0.8,1.7-1.7,1.7c-1,0-1.7-0.8-1.7-1.7c0-0.9,0.8-1.7,1.7-1.7C101.1,337.6,101.8,338.3,101.8,339.3z"/>
<path class="st2" d="M85.5,343.3c-1.6,0-2.9,1.3-2.9,2.9s1.3,2.9,2.9,2.9s2.9-1.3,2.9-2.9S87.1,343.3,85.5,343.3z M87.2,346.2
	c0,1-0.8,1.7-1.7,1.7c-0.9,0-1.7-0.8-1.7-1.7s0.8-1.7,1.7-1.7C86.4,344.5,87.2,345.3,87.2,346.2z"/>
<path class="st2" d="M92.8,343.3c-1.6,0-2.9,1.3-2.9,2.9s1.3,2.9,2.9,2.9s2.9-1.3,2.9-2.9S94.4,343.3,92.8,343.3z M92.8,347.9
	c-0.9,0-1.7-0.8-1.7-1.7s0.8-1.7,1.7-1.7c1,0,1.7,0.8,1.7,1.7C94.5,347.2,93.7,347.9,92.8,347.9z"/>
<path class="st1" d="M100.1,343.3c-1.6,0-2.9,1.3-2.9,2.9s1.3,2.9,2.9,2.9s2.9-1.3,2.9-2.9S101.7,343.3,100.1,343.3z M101.8,346.2
	c0,1-0.8,1.7-1.7,1.7c-1,0-1.7-0.8-1.7-1.7s0.8-1.7,1.7-1.7C101.1,344.5,101.8,345.3,101.8,346.2z"/>
<path class="st1" d="M100.1,317.7c-1.6,0-2.9,1.3-2.9,2.9s1.3,2.9,2.9,2.9s2.9-1.3,2.9-2.9S101.7,317.7,100.1,317.7z M101.8,320.6
	c0,1-0.8,1.7-1.7,1.7c-1,0-1.7-0.8-1.7-1.7c0-1,0.8-1.7,1.7-1.7C101.1,318.9,101.8,319.7,101.8,320.6z"/>
<path class="st2" d="M107.7,335.2c1.6,0,2.9-1.3,2.9-2.9s-1.3-2.9-2.9-2.9s-2.9,1.3-2.9,2.9S106.1,335.2,107.7,335.2z M105.9,332.3
	c0-1,0.8-1.7,1.7-1.7s1.7,0.8,1.7,1.7s-0.8,1.7-1.7,1.7S105.9,333.3,105.9,332.3z"/>
<path class="st2" d="M107.7,336.4c-1.6,0-2.9,1.3-2.9,2.9s1.3,2.9,2.9,2.9s2.9-1.3,2.9-2.9S109.3,336.4,107.7,336.4z M109.4,339.3
	c0,1-0.8,1.7-1.7,1.7s-1.7-0.8-1.7-1.7c0-0.9,0.8-1.7,1.7-1.7S109.4,338.3,109.4,339.3z"/>
<path class="st2" d="M107.7,343.3c-1.6,0-2.9,1.3-2.9,2.9s1.3,2.9,2.9,2.9s2.9-1.3,2.9-2.9S109.3,343.3,107.7,343.3z M109.4,346.2
	c0,1-0.8,1.7-1.7,1.7s-1.7-0.8-1.7-1.7s0.8-1.7,1.7-1.7S109.4,345.3,109.4,346.2z"/>
<g class="st3">
	<path class="st4" d="M257.1,8L257.1,8c33.1,0,60,26.9,60,60l0,0c0,33.1-26.9,60-60,60l0,0c-33.1,0-60-26.9-60-60l0,0
		C197.1,34.9,224,8,257.1,8z"/>
	<path class="st5" d="M209.8,64h1.6v-4.2h2.5c2.1,0,3.6-1.4,3.6-3.6c0-2.1-1.5-3.5-3.6-3.5h-4.1V64z M211.4,58.4V54h2.3
		c1.3,0,2.2,0.8,2.2,2.2s-0.8,2.2-2.2,2.2H211.4z M219.2,64h1.6v-3.3c0-0.5,0-1,0.2-1.5c0.4-1.2,1.3-1.9,2.3-1.9c0.2,0,0.4,0,0.4,0
		v-1.5c0,0-0.2,0-0.4,0c-1.2,0-2.2,0.9-2.6,2.1l0,0c0,0,0-0.3,0-0.6v-1.4h-1.5V64z M224.6,59.9c0,2.5,2,4.3,4.4,4.3s4.4-1.8,4.4-4.3
		c0-2.4-2-4.2-4.4-4.2S224.6,57.5,224.6,59.9z M226.2,59.9c0-1.7,1.3-2.9,2.8-2.9s2.8,1.2,2.8,2.9s-1.2,2.9-2.8,2.9
		C227.4,62.8,226.2,61.6,226.2,59.9z M234.6,60c0,2.4,1.8,4.2,4.3,4.2c2.1,0,3.2-1.3,3.2-1.3l-0.6-1.1c0,0-1,1.1-2.5,1.1
		c-1.7,0-2.9-1.3-2.9-2.9c0-1.7,1.2-2.9,2.8-2.9c1.4,0,2.2,0.9,2.2,0.9l0.7-1.1c0,0-1-1.2-3-1.2C236.4,55.7,234.6,57.6,234.6,60z
		 M243.8,61.1c0,2.1,0.9,3.1,2.8,3.1c1.6,0,2.6-1.1,3-1.9l0,0c0,0,0,0.3,0,0.6V64h1.5v-8.1h-1.6v3.8c0,1.6-1,3.1-2.6,3.1
		c-1.3,0-1.5-0.9-1.5-2V56h-1.6L243.8,61.1L243.8,61.1z M253.5,64h1.6v-3.3c0-0.5,0-1,0.2-1.5c0.4-1.2,1.3-1.9,2.3-1.9
		c0.2,0,0.4,0,0.4,0v-1.5c0,0-0.2,0-0.4,0c-1.2,0-2.2,0.9-2.6,2.1l0,0c0,0,0-0.3,0-0.6v-1.4h-1.5V64z M258.9,60
		c0,2.4,1.7,4.2,4.3,4.2c1.9,0,3.1-1.2,3.1-1.2l-0.6-1.1c0,0-1,0.9-2.4,0.9s-2.7-0.9-2.8-2.7h5.9c0,0,0-0.5,0-0.7
		c0-2.1-1.2-3.8-3.5-3.8C260.6,55.7,258.9,57.4,258.9,60z M260.5,59c0.2-1.3,1.2-2.1,2.4-2.1c1,0,1.9,0.7,2,2.1H260.5z M268.3,64
		h1.6v-3.7c0-0.4,0-0.7,0.1-1.1c0.3-1.2,1.1-2.1,2.3-2.1c1.2,0,1.4,1,1.4,2V64h1.6v-3.7c0-0.4,0-0.8,0.1-1.1
		c0.3-1.1,1.1-2.1,2.3-2.1c1.2,0,1.4,0.9,1.4,2V64h1.6v-5.2c0-2.1-0.8-3.1-2.7-3.1c-1.3,0-2.4,0.9-2.9,1.8l0,0
		c-0.3-1.2-1.1-1.8-2.4-1.8s-2.4,0.9-2.8,1.9l0,0c0,0,0-0.3,0-0.6v-1.1h-1.5V64H268.3z M282.4,60c0,2.4,1.7,4.2,4.3,4.2
		c1.9,0,3.1-1.2,3.1-1.2l-0.6-1.1c0,0-1,0.9-2.4,0.9s-2.7-0.9-2.8-2.7h5.9c0,0,0-0.5,0-0.7c0-2.1-1.2-3.8-3.5-3.8
		C284.1,55.7,282.4,57.4,282.4,60z M284,59c0.2-1.3,1.2-2.1,2.4-2.1c1,0,1.9,0.7,2,2.1H284z M291.8,64h1.6v-3.8c0-0.4,0-0.8,0.1-1.1
		c0.3-1.2,1.3-2,2.6-2c1.3,0,1.5,0.9,1.5,2V64h1.6v-5.2c0-2.1-0.9-3.1-2.8-3.1c-1.8,0-2.7,1.2-3,1.9l0,0c0,0,0-0.3,0-0.6v-1.1h-1.5
		V64H291.8z M301.8,61c0,2.7,2.1,3,3.1,3c0.3,0,0.5,0,0.5,0v-1.4c0,0-0.1,0-0.4,0c-0.6,0-1.7-0.2-1.7-1.8v-3.6h2V56h-2v-2.3h-1.5V56
		h-1.1v1.2h1.1V61z M216.4,79.8c0,1.9,1.6,3.4,3.9,3.4c2.4,0,3.9-1.4,3.9-4v-1.5h1.5v-1.4h-1.5v-1.5h-1.6v1.5h-2.1
		c-1.7,0-2.1-1.1-2.1-1.8c0-1.1,0.9-1.7,2-1.7c0.4,0,0.8,0.1,0.8,0.1l0.4-1.3c0,0-0.8-0.2-1.4-0.2c-2,0-3.5,1-3.5,2.9
		c0,2,1.5,2.5,1.5,2.5l0,0C217.1,77.4,216.4,78.6,216.4,79.8z M218,79.8c0-1.3,0.9-2,2.5-2h2.2v1.4c0,1.8-0.9,2.6-2.4,2.6
		C218.9,81.7,218,80.8,218,79.8z M232.1,83h1.6V71.7h-1.6V83z M236.4,83h1.6v-3.8c0-0.4,0-0.8,0.1-1.1c0.3-1.2,1.3-2,2.6-2
		s1.5,0.9,1.5,2V83h1.6v-5.2c0-2.1-0.9-3.1-2.8-3.1c-1.8,0-2.7,1.2-3,1.9l0,0c0,0,0-0.3,0-0.6v-1.1h-1.5V83H236.4z M248,83h1.8
		l3-8.1h-1.6l-2,5.5c-0.2,0.4-0.3,1.1-0.3,1.1l0,0c0,0-0.1-0.7-0.3-1.1l-2-5.5H245L248,83z M253.5,78.9c0,2.5,2,4.3,4.4,4.3
		s4.4-1.8,4.4-4.3c0-2.4-2-4.2-4.4-4.2C255.5,74.7,253.5,76.5,253.5,78.9z M255.1,78.9c0-1.7,1.3-2.9,2.8-2.9s2.8,1.2,2.8,2.9
		c0,1.7-1.2,2.9-2.8,2.9C256.4,81.8,255.1,80.6,255.1,78.9z M264.1,73.3h1.6v-1.6h-1.6V73.3z M264.1,83h1.6v-8.1h-1.6V83z M267.5,79
		c0,2.4,1.8,4.2,4.3,4.2c2.1,0,3.2-1.3,3.2-1.3l-0.6-1.1c0,0-1,1.1-2.5,1.1c-1.7,0-2.9-1.3-2.9-2.9c0-1.7,1.2-2.9,2.8-2.9
		c1.4,0,2.2,0.9,2.2,0.9l0.7-1.1c0,0-1-1.2-3-1.2C269.3,74.7,267.5,76.6,267.5,79z M276.8,73.3h1.6v-1.6h-1.6V73.3z M276.8,83h1.6
		v-8.1h-1.6V83z M280.8,83h1.6v-3.8c0-0.4,0-0.8,0.1-1.1c0.3-1.2,1.3-2,2.6-2c1.3,0,1.5,0.9,1.5,2V83h1.6v-5.2
		c0-2.1-0.9-3.1-2.8-3.1c-1.8,0-2.7,1.2-3,1.9l0,0c0,0,0-0.3,0-0.6v-1.1h-1.5V83H280.8z M291.2,84.5l-0.5,1.2
		c0.8,0.4,1.8,0.7,2.8,0.7c2,0,4.1-1,4.1-3.7v-7.8H296v0.8c0,0.1,0,0.3,0,0.3l0,0c0,0-0.6-1.2-2.5-1.2c-2.2,0-3.5,1.7-3.5,4
		s1.4,4.1,3.6,4.1c1.2,0,1.9-0.5,2.4-1.3l0,0c0,0,0,0.3,0,0.5v0.6c0,1.6-1.2,2.3-2.6,2.3C292.2,85,291.2,84.5,291.2,84.5z
		 M293.8,81.6c-1.5,0-2.4-1.2-2.4-2.8c0-1.6,0.8-2.7,2.2-2.7c1.3,0,2.3,0.6,2.3,2.7S295,81.6,293.8,81.6z"/>
</g>
<g class="st3">
	<path class="st4" d="M379.2,55.5L379.2,55.5c33.1,0,60,26.9,60,60l0,0c0,33.1-26.9,60-60,60l0,0c-33.1,0-60-26.9-60-60l0,0
		C319.2,82.3,346.1,55.5,379.2,55.5z"/>
	<path class="st5" d="M337.1,111.4h1.6v-4.2h2.5c2.1,0,3.6-1.4,3.6-3.6c0-2.1-1.5-3.5-3.6-3.5h-4.1V111.4z M338.6,105.9v-4.4h2.3
		c1.3,0,2.2,0.8,2.2,2.2s-0.8,2.2-2.2,2.2C340.9,105.9,338.6,105.9,338.6,105.9z M345.8,109.2c0,1.6,1.4,2.5,2.8,2.5
		c1.9,0,2.6-1.6,2.6-1.6l0,0c0,0,0,0.3,0,0.6v0.8h1.4v-5.1c0-2-1.2-3.2-3.2-3.2c-1.9,0-3,1-3,1l0.6,1.1c0,0,1-0.8,2.3-0.8
		c1,0,1.8,0.4,1.8,1.8v0.1h-0.4C349.3,106.4,345.8,106.5,345.8,109.2z M347.4,109.1c0-1.5,2.1-1.5,3.3-1.5h0.4v0.3
		c0,1.2-0.8,2.6-2.2,2.6C347.9,110.4,347.4,109.8,347.4,109.1z M353.8,114.3c0,0,0.7,0.5,1.6,0.5c1.1,0,2.1-0.7,2.6-1.9l3.8-9.6
		h-1.7l-2,5.3c-0.1,0.4-0.3,1-0.3,1l0,0c0,0-0.1-0.6-0.3-1l-2-5.3h-1.7l3.4,8l-0.4,0.9c-0.3,0.7-0.8,1.2-1.5,1.2
		c-0.5,0-0.9-0.3-0.9-0.3L353.8,114.3z M363.1,111.4h1.6v-3.7c0-0.4,0-0.7,0.1-1.1c0.3-1.2,1.1-2.1,2.3-2.1c1.2,0,1.4,1,1.4,2v4.8
		h1.6v-3.7c0-0.4,0-0.8,0.1-1.1c0.3-1.1,1.1-2.1,2.3-2.1c1.2,0,1.4,0.9,1.4,2v4.8h1.6V106c0-2.1-0.8-3.1-2.7-3.1
		c-1.3,0-2.4,0.9-2.9,1.8l0,0c-0.3-1.2-1.1-1.8-2.4-1.8s-2.4,0.9-2.8,1.9l0,0c0,0,0-0.3,0-0.6v-1.1h-1.5v8.3H363.1z M377.1,107.4
		c0,2.4,1.7,4.2,4.3,4.2c1.9,0,3.1-1.2,3.1-1.2l-0.6-1.1c0,0-1,0.9-2.4,0.9s-2.7-0.9-2.8-2.7h5.9c0,0,0-0.5,0-0.7
		c0-2.1-1.2-3.8-3.5-3.8C378.9,103.2,377.1,104.8,377.1,107.4z M378.8,106.5c0.2-1.3,1.2-2.1,2.4-2.1c1,0,1.9,0.7,2,2.1H378.8z
		 M386.6,111.4h1.6v-3.8c0-0.4,0-0.8,0.1-1.1c0.3-1.2,1.3-2,2.6-2c1.3,0,1.5,0.9,1.5,2v4.8h1.6v-5.2c0-2.1-0.9-3.1-2.8-3.1
		c-1.8,0-2.7,1.2-3,1.9l0,0c0,0,0-0.3,0-0.6v-1.1h-1.5v8.2H386.6z M396.5,108.5c0,2.7,2.1,3,3.1,3c0.3,0,0.5,0,0.5,0v-1.4
		c0,0-0.1,0-0.4,0c-0.6,0-1.7-0.2-1.7-1.8v-3.6h2v-1.2h-2v-2.3h-1.5v2.3h-1.1v1.2h1.1V108.5z M401.3,110.5c0,0,1.1,1.2,3.1,1.2
		c1.8,0,2.9-1,2.9-2.4c0-2.7-4.2-2.3-4.2-3.8c0-0.7,0.7-1,1.3-1c1.3,0,2,0.7,2,0.7l0.6-1.2c0,0-0.8-0.9-2.6-0.9
		c-1.6,0-2.9,0.8-2.9,2.3c0,2.6,4.2,2.3,4.2,3.8c0,0.7-0.7,1-1.3,1c-1.4,0-2.3-0.9-2.3-0.9L401.3,110.5z M412.9,108.3
		c0,1.9,1.6,3.4,3.9,3.4c2.4,0,3.9-1.4,3.9-4v-1.5h1.5v-1.4h-1.5v-1.5h-1.6v1.5H417c-1.7,0-2.1-1.1-2.1-1.8c0-1.1,0.9-1.7,2-1.7
		c0.4,0,0.8,0.1,0.8,0.1l0.4-1.3c0,0-0.8-0.2-1.4-0.2c-2,0-3.5,1-3.5,2.9c0,2,1.5,2.5,1.5,2.5l0,0
		C413.6,105.8,412.9,107,412.9,108.3z M414.5,108.2c0-1.3,0.9-2,2.5-2h2.2v1.4c0,1.8-0.9,2.6-2.4,2.6
		C415.4,110.2,414.5,109.3,414.5,108.2z M352.1,130.4h1.6v-9.9h3.9v-1.4h-9.3v1.4h3.9v9.9H352.1z M357.3,130.4h1.6v-3.3
		c0-0.5,0-1,0.2-1.5c0.4-1.2,1.3-1.9,2.3-1.9c0.2,0,0.4,0,0.4,0v-1.5c0,0-0.2,0-0.4,0c-1.2,0-2.2,0.9-2.6,2.1l0,0c0,0,0-0.3,0-0.6
		v-1.4h-1.5V130.4z M362.7,126.4c0,2.4,1.7,4.2,4.3,4.2c1.9,0,3.1-1.2,3.1-1.2l-0.6-1.1c0,0-1,0.9-2.4,0.9s-2.7-0.9-2.8-2.7h5.9
		c0,0,0-0.5,0-0.7c0-2.1-1.2-3.8-3.5-3.8C364.4,122.2,362.7,123.8,362.7,126.4z M364.3,125.5c0.2-1.3,1.2-2.1,2.4-2.1
		c1,0,1.9,0.7,2,2.1H364.3z M371.5,128.2c0,1.6,1.4,2.5,2.8,2.5c1.9,0,2.6-1.6,2.6-1.6l0,0c0,0,0,0.3,0,0.6v0.8h1.4v-5.1
		c0-2-1.2-3.2-3.2-3.2c-1.9,0-3,1-3,1l0.6,1.1c0,0,1-0.8,2.3-0.8c1,0,1.8,0.4,1.8,1.8v0.1h-0.4C375,125.4,371.5,125.5,371.5,128.2z
		 M373,128.1c0-1.5,2.1-1.5,3.3-1.5h0.4v0.3c0,1.2-0.8,2.6-2.2,2.6C373.6,129.4,373,128.8,373,128.1z M379.9,129.5
		c0,0,1.1,1.2,3.1,1.2c1.8,0,2.9-1,2.9-2.4c0-2.7-4.2-2.3-4.2-3.8c0-0.7,0.7-1,1.3-1c1.3,0,2,0.7,2,0.7l0.6-1.2c0,0-0.8-0.9-2.6-0.9
		c-1.6,0-2.9,0.8-2.9,2.3c0,2.6,4.2,2.3,4.2,3.8c0,0.7-0.7,1-1.3,1c-1.4,0-2.3-0.9-2.3-0.9L379.9,129.5z M387.6,127.5
		c0,2.1,0.9,3.1,2.8,3.1c1.6,0,2.6-1.1,3-1.9l0,0c0,0,0,0.3,0,0.6v1.1h1.5v-8.1h-1.6v3.8c0,1.6-1,3.1-2.6,3.1c-1.3,0-1.5-0.9-1.5-2
		v-4.8h-1.6L387.6,127.5L387.6,127.5z M397.3,130.4h1.6v-3.3c0-0.5,0-1,0.2-1.5c0.4-1.2,1.3-1.9,2.3-1.9c0.2,0,0.4,0,0.4,0v-1.5
		c0,0-0.2,0-0.4,0c-1.2,0-2.2,0.9-2.6,2.1l0,0c0,0,0-0.3,0-0.6v-1.4h-1.5V130.4z M402.3,133.3c0,0,0.7,0.5,1.6,0.5
		c1.1,0,2.1-0.7,2.6-1.9l3.8-9.6h-1.7l-2,5.3c-0.1,0.4-0.3,1-0.3,1l0,0c0,0-0.1-0.6-0.3-1l-2-5.3h-1.7l3.4,8l-0.4,0.9
		c-0.3,0.7-0.8,1.2-1.5,1.2c-0.5,0-0.9-0.3-0.9-0.3L402.3,133.3z"/>
</g>
<g class="st3">
	<path class="st4" d="M443.2,168L443.2,168c33.1,0,60,26.9,60,60l0,0c0,33.1-26.9,60-60,60l0,0c-33.1,0-60-26.9-60-60l0,0
		C383.2,194.9,410.1,168,443.2,168z"/>
	<path class="st5" d="M417.9,224h1.6v-9.9h3.9v-1.4H414v1.4h3.9V224z M423.1,224h1.6v-3.3c0-0.5,0-1,0.2-1.5
		c0.4-1.2,1.3-1.9,2.3-1.9c0.2,0,0.4,0,0.4,0v-1.5c0,0-0.2,0-0.4,0c-1.2,0-2.2,0.9-2.6,2.1l0,0c0,0,0-0.3,0-0.6v-1.4h-1.5V224z
		 M428.5,221.7c0,1.6,1.4,2.5,2.8,2.5c1.9,0,2.6-1.6,2.6-1.6l0,0c0,0,0,0.3,0,0.6v0.8h1.4v-5.1c0-2-1.2-3.2-3.2-3.2c-1.9,0-3,1-3,1
		l0.6,1.1c0,0,1-0.8,2.3-0.8c1,0,1.8,0.4,1.8,1.8v0.1h-0.4C432,219,428.5,219.1,428.5,221.7z M430,221.7c0-1.5,2.1-1.5,3.3-1.5h0.4
		v0.3c0,1.2-0.8,2.6-2.2,2.6C430.5,223,430,222.3,430,221.7z M439.5,224h1.8l3-8.1h-1.6l-2,5.5c-0.2,0.4-0.3,1.1-0.3,1.1l0,0
		c0,0-0.1-0.7-0.3-1.1l-2-5.5h-1.6L439.5,224z M445,220c0,2.4,1.7,4.2,4.3,4.2c1.9,0,3.1-1.2,3.1-1.2l-0.6-1.1c0,0-1,0.9-2.4,0.9
		s-2.7-0.9-2.8-2.7h5.9c0,0,0-0.5,0-0.7c0-2.1-1.2-3.8-3.5-3.8C446.8,215.7,445,217.4,445,220z M446.7,219c0.2-1.3,1.2-2.1,2.4-2.1
		c1,0,1.9,0.7,2,2.1H446.7z M454.4,221.8c0,2,1.3,2.3,2.2,2.3c0.3,0,0.5,0,0.5,0v-1.4c0,0-0.1,0-0.3,0c-0.5,0-0.9-0.2-0.9-1.2v-8.8
		h-1.6L454.4,221.8L454.4,221.8z M462.5,220.8c0,1.9,1.6,3.4,3.9,3.4c2.4,0,3.9-1.4,3.9-4v-1.5h1.5v-1.4h-1.5v-1.5h-1.6v1.5h-2.1
		c-1.7,0-2.1-1.1-2.1-1.8c0-1.1,0.9-1.7,2-1.7c0.4,0,0.8,0.1,0.8,0.1l0.4-1.3c0,0-0.8-0.2-1.4-0.2c-2,0-3.5,1-3.5,2.9
		c0,2,1.5,2.5,1.5,2.5l0,0C463.2,218.4,462.5,219.6,462.5,220.8z M464.1,220.8c0-1.3,0.9-2,2.5-2h2.2v1.4c0,1.8-0.9,2.6-2.4,2.6
		C465,222.7,464.1,221.9,464.1,220.8z M414,243h6.8v-1.4h-5.2V238h4v-1.4h-4v-3.5h5v-1.4H414V243z M425.8,239.9c0,0,0.1,0.3,0.2,0.4
		l1.7,2.7h1.8l-2.8-4.2l2.6-3.9h-1.8l-1.5,2.5c-0.1,0.2-0.3,0.5-0.3,0.5l0,0c0,0-0.1-0.3-0.3-0.5l-1.5-2.5h-1.8l2.6,3.9L422,243h1.8
		l1.7-2.7C425.6,240.1,425.7,239.9,425.8,239.9L425.8,239.9z M431,246.2h1.6v-3.6c0-0.4,0-0.7,0-0.7l0,0c0,0,0.7,1.3,2.5,1.3
		c2.1,0,3.7-1.7,3.7-4.2s-1.4-4.2-3.6-4.2c-2,0-2.7,1.5-2.7,1.5l0,0c0,0,0-0.3,0-0.6V235H431V246.2z M432.5,239
		c0-2.1,1.1-2.9,2.3-2.9c1.3,0,2.3,1.1,2.3,2.9c0,1.8-1.1,2.9-2.3,2.9C433.3,241.9,432.5,240.4,432.5,239z M440.1,239
		c0,2.4,1.7,4.2,4.3,4.2c1.9,0,3.1-1.2,3.1-1.2l-0.6-1.1c0,0-1,0.9-2.4,0.9s-2.7-0.9-2.8-2.7h5.9c0,0,0-0.5,0-0.7
		c0-2.1-1.2-3.8-3.5-3.8C441.8,234.7,440.1,236.4,440.1,239z M441.7,238c0.2-1.3,1.2-2.1,2.4-2.1c1,0,1.9,0.7,2,2.1H441.7z
		 M449.5,243h1.6v-3.8c0-0.4,0-0.8,0.1-1.1c0.3-1.2,1.3-2,2.6-2c1.3,0,1.5,0.9,1.5,2v4.8h1.6v-5.2c0-2.1-0.9-3.1-2.8-3.1
		c-1.8,0-2.7,1.2-3,1.9l0,0c0,0,0-0.3,0-0.6v-1.1h-1.5v8.2H449.5z M458.5,242c0,0,1.1,1.2,3.1,1.2c1.8,0,2.9-1,2.9-2.4
		c0-2.7-4.2-2.3-4.2-3.8c0-0.7,0.7-1,1.3-1c1.3,0,2,0.7,2,0.7l0.6-1.2c0,0-0.8-0.9-2.6-0.9c-1.6,0-2.9,0.8-2.9,2.3
		c0,2.6,4.2,2.3,4.2,3.8c0,0.7-0.7,1-1.3,1c-1.4,0-2.3-0.9-2.3-0.9L458.5,242z M465.7,239c0,2.4,1.7,4.2,4.3,4.2
		c1.9,0,3.1-1.2,3.1-1.2l-0.6-1.1c0,0-1,0.9-2.4,0.9s-2.7-0.9-2.8-2.7h5.9c0,0,0-0.5,0-0.7c0-2.1-1.2-3.8-3.5-3.8
		C467.5,234.7,465.7,236.4,465.7,239z M467.4,238c0.2-1.3,1.2-2.1,2.4-2.1c1,0,1.9,0.7,2,2.1H467.4z"/>
</g>
<g class="st3">
	<path class="st4" d="M417.7,295L417.7,295c33.1,0,60,26.9,60,60l0,0c0,33.1-26.9,60-60,60l0,0c-33.1,0-60-26.9-60-60l0,0
		C357.7,321.9,384.5,295,417.7,295z"/>
	<path class="st5" d="M376.3,345.3c0,3.3,2.4,5.9,5.8,5.9c2.8,0,4.4-1.8,4.4-1.8l-0.8-1.1c0,0-1.4,1.5-3.5,1.5c-2.5,0-4.2-2-4.2-4.5
		c0-2.4,1.6-4.3,4.2-4.3c2,0,3.3,1.2,3.3,1.2l0.8-1.2c0,0-1.4-1.5-4.1-1.5C378.8,339.5,376.3,342,376.3,345.3z M387.7,346.9
		c0,2.5,2,4.3,4.4,4.3s4.4-1.8,4.4-4.3c0-2.4-2-4.2-4.4-4.2C389.6,342.7,387.7,344.5,387.7,346.9z M389.3,346.9
		c0-1.7,1.3-2.9,2.8-2.9s2.8,1.2,2.8,2.9c0,1.7-1.2,2.9-2.8,2.9S389.3,348.6,389.3,346.9z M398.3,351h1.6v-3.8c0-0.4,0-0.8,0.1-1.1
		c0.3-1.2,1.3-2,2.6-2c1.3,0,1.5,0.9,1.5,2v4.8h1.6v-5.2c0-2.1-0.9-3.1-2.8-3.1c-1.8,0-2.7,1.2-3,1.9l0,0c0,0,0-0.3,0-0.6v-1.1h-1.5
		v8.2H398.3z M408.3,348c0,2.7,2.1,3,3.1,3c0.3,0,0.5,0,0.5,0v-1.4c0,0-0.1,0-0.4,0c-0.6,0-1.7-0.2-1.7-1.8v-3.6h2V343h-2v-2.3h-1.5
		v2.3h-1.1v1.2h1.1V348z M413.6,341.3h1.6v-1.6h-1.6V341.3z M413.6,351h1.6v-8.1h-1.6V351z M417.6,351h1.6v-3.8c0-0.4,0-0.8,0.1-1.1
		c0.3-1.2,1.3-2,2.6-2c1.3,0,1.5,0.9,1.5,2v4.8h1.6v-5.2c0-2.1-0.9-3.1-2.8-3.1c-1.8,0-2.7,1.2-3,1.9l0,0c0,0,0-0.3,0-0.6v-1.1h-1.5
		v8.2H417.6z M428,352.5l-0.5,1.2c0.8,0.4,1.8,0.7,2.8,0.7c2,0,4.1-1,4.1-3.7v-7.8h-1.5v0.8c0,0.1,0,0.3,0,0.3l0,0
		c0,0-0.6-1.2-2.5-1.2c-2.2,0-3.5,1.7-3.5,4s1.4,4.1,3.6,4.1c1.2,0,1.9-0.5,2.4-1.3l0,0c0,0,0,0.3,0,0.5v0.6c0,1.6-1.2,2.3-2.6,2.3
		C429,353,428,352.5,428,352.5z M430.7,349.6c-1.5,0-2.4-1.2-2.4-2.8c0-1.6,0.8-2.7,2.2-2.7c1.3,0,2.3,0.6,2.3,2.7
		S431.8,349.6,430.7,349.6z M436.2,347c0,2.4,1.7,4.2,4.3,4.2c1.9,0,3.1-1.2,3.1-1.2l-0.6-1.1c0,0-1,0.9-2.4,0.9s-2.7-0.9-2.8-2.7
		h5.9c0,0,0-0.5,0-0.7c0-2.1-1.2-3.8-3.5-3.8C437.9,342.7,436.2,344.4,436.2,347z M437.8,346c0.2-1.3,1.2-2.1,2.4-2.1
		c1,0,1.9,0.7,2,2.1H437.8z M445.6,351h1.6v-3.8c0-0.4,0-0.8,0.1-1.1c0.3-1.2,1.3-2,2.6-2c1.3,0,1.5,0.9,1.5,2v4.8h1.6v-5.2
		c0-2.1-0.9-3.1-2.8-3.1c-1.8,0-2.7,1.2-3,1.9l0,0c0,0,0-0.3,0-0.6v-1.1h-1.5v8.2H445.6z M455.6,348c0,2.7,2.1,3,3.1,3
		c0.3,0,0.5,0,0.5,0v-1.4c0,0-0.1,0-0.4,0c-0.6,0-1.7-0.2-1.7-1.8v-3.6h2V343h-2v-2.3h-1.5v2.3h-1.1v1.2h1.1V348z M385.4,358.7
		l-2.2,8.3c-0.2,0.6-0.2,1.2-0.2,1.2l0,0c0,0-0.1-0.6-0.2-1.2l-2-8.3h-1.6L382,370h1.8l2-7.3c0.2-0.7,0.3-1.6,0.3-1.6l0,0
		c0,0,0.1,0.9,0.3,1.6l2,7.3h1.8l3-11.3h-1.6l-2.1,8.3c-0.2,0.6-0.2,1.2-0.2,1.2l0,0c0,0-0.1-0.6-0.2-1.2l-2.2-8.3H385.4z
		 M394,365.9c0,2.5,2,4.3,4.4,4.3s4.4-1.8,4.4-4.3c0-2.4-2-4.2-4.4-4.2C396,361.7,394,363.5,394,365.9z M395.6,365.9
		c0-1.7,1.3-2.9,2.8-2.9s2.8,1.2,2.8,2.9c0,1.7-1.2,2.9-2.8,2.9C396.9,368.8,395.6,367.6,395.6,365.9z M404.6,370h1.6v-3.3
		c0-0.5,0-1,0.2-1.5c0.4-1.2,1.3-1.9,2.3-1.9c0.2,0,0.4,0,0.4,0v-1.5c0,0-0.2,0-0.4,0c-1.2,0-2.2,0.9-2.6,2.1l0,0c0,0,0-0.3,0-0.6
		v-1.4h-1.5V370z M410.6,370h1.6v-3.8h1.2l2.4,3.8h1.8l-3-4.5l0,0l2.7-3.6h-1.8l-2.2,3h-1.1v-6.2h-1.6V370z M419.5,370h1.5v-6.7h1.9
		V362H421v-0.4c0-1.5,1.1-1.7,1.7-1.7c0.2,0,0.4,0,0.4,0v-1.3c0,0-0.2,0-0.6,0c-1,0-3,0.3-3,3v0.4h-1v1.2h1V370z M423.8,365.9
		c0,2.5,2,4.3,4.4,4.3s4.4-1.8,4.4-4.3c0-2.4-2-4.2-4.4-4.2C425.8,361.7,423.8,363.5,423.8,365.9z M425.4,365.9
		c0-1.7,1.3-2.9,2.8-2.9s2.8,1.2,2.8,2.9c0,1.7-1.2,2.9-2.8,2.9C426.7,368.8,425.4,367.6,425.4,365.9z M434.4,370h1.6v-3.3
		c0-0.5,0-1,0.2-1.5c0.4-1.2,1.3-1.9,2.3-1.9c0.2,0,0.4,0,0.4,0v-1.5c0,0-0.2,0-0.4,0c-1.2,0-2.2,0.9-2.6,2.1l0,0c0,0,0-0.3,0-0.6
		v-1.4h-1.5V370z M439.8,366c0,2.4,1.8,4.2,4.3,4.2c2.1,0,3.2-1.3,3.2-1.3l-0.6-1.1c0,0-1,1.1-2.5,1.1c-1.7,0-2.9-1.3-2.9-2.9
		c0-1.7,1.2-2.9,2.8-2.9c1.4,0,2.2,0.9,2.2,0.9l0.7-1.1c0,0-1-1.2-3-1.2C441.6,361.7,439.8,363.6,439.8,366z M448.6,366
		c0,2.4,1.7,4.2,4.3,4.2c1.9,0,3.1-1.2,3.1-1.2l-0.6-1.1c0,0-1,0.9-2.4,0.9s-2.7-0.9-2.8-2.7h5.9c0,0,0-0.5,0-0.7
		c0-2.1-1.2-3.8-3.5-3.8C450.3,361.7,448.6,363.4,448.6,366z M450.2,365c0.2-1.3,1.2-2.1,2.4-2.1c1,0,1.9,0.7,2,2.1H450.2z"/>
</g>
<g class="st3">
	<path class="st4" d="M321.1,375.5L321.1,375.5c33.1,0,60,26.9,60,60l0,0c0,33.1-26.9,60-60,60l0,0c-33.1,0-60-26.9-60-60l0,0
		C261.1,402.4,288,375.5,321.1,375.5z"/>
	<path class="st5" d="M296.5,430.2c0,0,1.3,1.5,3.7,1.5c2.2,0,3.6-1.4,3.6-3.2c0-3.7-5.5-3-5.5-5.4c0-0.9,0.8-1.6,2-1.6
		c1.4,0,2.5,1,2.5,1l0.7-1.3c0,0-1.1-1.1-3.2-1.1s-3.6,1.4-3.6,3.2c0,3.5,5.5,2.9,5.5,5.4c0,1.1-0.9,1.7-2,1.7
		c-1.7,0-2.9-1.2-2.9-1.2L296.5,430.2z M305.8,434.7h1.6v-3.6c0-0.4,0-0.7,0-0.7l0,0c0,0,0.7,1.3,2.5,1.3c2.1,0,3.7-1.7,3.7-4.2
		s-1.4-4.2-3.6-4.2c-2,0-2.7,1.5-2.7,1.5l0,0c0,0,0-0.3,0-0.6v-0.7h-1.4v11.2H305.8z M307.3,427.5c0-2.1,1.1-2.9,2.3-2.9
		c1.3,0,2.3,1.1,2.3,2.9s-1.1,2.9-2.3,2.9C308.1,430.4,307.3,429,307.3,427.5z M314.8,427.5c0,2.4,1.7,4.2,4.3,4.2
		c1.9,0,3.1-1.2,3.1-1.2l-0.6-1.1c0,0-1,0.9-2.4,0.9s-2.7-0.9-2.8-2.7h5.9c0,0,0-0.5,0-0.7c0-2.1-1.2-3.8-3.5-3.8
		C316.5,423.3,314.8,424.9,314.8,427.5z M316.5,426.5c0.2-1.3,1.2-2.1,2.4-2.1c1,0,1.9,0.7,2,2.1H316.5z M324.2,431.5h1.6v-3.8
		c0-0.4,0-0.8,0.1-1.1c0.3-1.2,1.3-2,2.6-2c1.3,0,1.5,0.9,1.5,2v4.8h1.6v-5.2c0-2.1-0.9-3.1-2.8-3.1c-1.8,0-2.7,1.2-3,1.9l0,0
		c0,0,0-0.3,0-0.6v-1.1h-1.5v8.2H324.2z M333.4,427.5c0,2.5,1.4,4.2,3.6,4.2c2,0,2.7-1.5,2.7-1.5l0,0c0,0,0,0.2,0,0.5v0.8h1.5v-11.3
		h-1.6v3.7c0,0.3,0,0.5,0,0.5l0,0c0,0-0.6-1.3-2.5-1.3C334.9,423.3,333.4,424.9,333.4,427.5z M334.9,427.5c0-1.8,1.1-2.9,2.3-2.9
		c1.5,0,2.3,1.4,2.3,2.9c0,2.1-1.1,2.9-2.3,2.9C335.9,430.4,334.9,429.3,334.9,427.5z M299.9,450.5h1.6l-4.1-11.3h-1.7l-4.1,11.3
		h1.6l1.1-3.2h4.3L299.9,450.5z M296.7,440.8c0,0,0.2,1,0.4,1.6l1.2,3.6H295l1.3-3.6C296.4,441.8,296.7,440.8,296.7,440.8
		L296.7,440.8z M302.9,450.5h1.6v-3.8c0-0.4,0-0.8,0.1-1.1c0.3-1.2,1.3-2,2.6-2c1.3,0,1.5,0.9,1.5,2v4.8h1.6v-5.2
		c0-2.1-0.9-3.1-2.8-3.1c-1.8,0-2.7,1.2-3,1.9l0,0c0,0,0-0.3,0-0.6v-1.1H303v8.2H302.9z M311.9,448.3c0,1.6,1.4,2.5,2.8,2.5
		c1.9,0,2.6-1.6,2.6-1.6l0,0c0,0,0,0.3,0,0.6v0.8h1.4v-5.1c0-2-1.2-3.2-3.2-3.2c-1.9,0-3,1-3,1l0.6,1.1c0,0,1-0.8,2.3-0.8
		c1,0,1.8,0.4,1.8,1.8v0.1h-0.4C315.4,445.5,311.9,445.6,311.9,448.3z M313.5,448.2c0-1.5,2.1-1.5,3.3-1.5h0.4v0.3
		c0,1.2-0.8,2.6-2.2,2.6C314,449.5,313.5,448.8,313.5,448.2z M320.9,448.3c0,2,1.3,2.3,2.2,2.3c0.3,0,0.5,0,0.5,0v-1.4
		c0,0-0.1,0-0.3,0c-0.5,0-0.9-0.2-0.9-1.2v-8.8h-1.6L320.9,448.3L320.9,448.3z M324.1,453.4c0,0,0.7,0.5,1.6,0.5
		c1.1,0,2.1-0.7,2.6-1.9l3.8-9.6h-1.7l-2,5.3c-0.1,0.4-0.3,1-0.3,1l0,0c0,0-0.1-0.6-0.3-1l-2-5.3h-1.7l3.4,8l-0.4,0.9
		c-0.3,0.7-0.8,1.2-1.5,1.2c-0.5,0-0.9-0.3-0.9-0.3L324.1,453.4z M332.8,449.5c0,0,1.1,1.2,3.1,1.2c1.8,0,2.9-1,2.9-2.4
		c0-2.7-4.2-2.3-4.2-3.8c0-0.7,0.7-1,1.3-1c1.3,0,2,0.7,2,0.7l0.6-1.2c0,0-0.8-0.9-2.6-0.9c-1.6,0-2.9,0.8-2.9,2.3
		c0,2.6,4.2,2.3,4.2,3.8c0,0.7-0.7,1-1.3,1c-1.4,0-2.3-0.9-2.3-0.9L332.8,449.5z M340.6,440.8h1.6v-1.6h-1.6V440.8z M340.6,450.5
		h1.6v-8.1h-1.6V450.5z M343.9,449.5c0,0,1.1,1.2,3.1,1.2c1.8,0,2.9-1,2.9-2.4c0-2.7-4.2-2.3-4.2-3.8c0-0.7,0.7-1,1.3-1
		c1.3,0,2,0.7,2,0.7l0.6-1.2c0,0-0.8-0.9-2.6-0.9c-1.6,0-2.9,0.8-2.9,2.3c0,2.6,4.2,2.3,4.2,3.8c0,0.7-0.7,1-1.3,1
		c-1.4,0-2.3-0.9-2.3-0.9L343.9,449.5z"/>
</g>
<g class="st3">
	<path class="st4" d="M193.1,375.5L193.1,375.5c33.1,0,60,26.9,60,60l0,0c0,33.1-26.9,60-60,60l0,0c-33.1,0-60-26.9-60-60l0,0
		C133.1,402.4,160,375.5,193.1,375.5z"/>
	<path class="st5" d="M169.7,421c0.2,0.2,0.5,0.4,0.8,0.6s0.6,0.3,0.9,0.4c0.4,0.1,0.7,0.2,1.2,0.2c0.3,0,0.5,0,0.8-0.1
		c0.2-0.1,0.4-0.2,0.6-0.3c0.2-0.1,0.3-0.3,0.4-0.5c0.1-0.2,0.2-0.4,0.2-0.7c0-0.3-0.1-0.6-0.2-0.8c-0.2-0.2-0.4-0.4-0.6-0.6
		c-0.3-0.2-0.5-0.3-0.9-0.5c-0.3-0.1-0.7-0.3-1-0.4c-0.3-0.2-0.7-0.3-1-0.5s-0.6-0.4-0.9-0.6c-0.3-0.2-0.5-0.5-0.6-0.8
		c-0.2-0.3-0.2-0.7-0.2-1.1s0.1-0.8,0.3-1.2c0.2-0.4,0.4-0.7,0.8-1c0.3-0.3,0.7-0.5,1.2-0.7c0.4-0.2,0.9-0.3,1.5-0.3
		c0.5,0,1,0.1,1.4,0.2s0.7,0.3,1,0.4c0.3,0.2,0.6,0.4,0.8,0.6l-0.7,1.3c-0.2-0.2-0.4-0.3-0.7-0.5c-0.2-0.1-0.5-0.2-0.8-0.3
		c-0.3-0.1-0.6-0.2-1-0.2c-0.3,0-0.6,0-0.8,0.1c-0.3,0.1-0.5,0.2-0.6,0.4c-0.2,0.1-0.3,0.3-0.4,0.5c-0.1,0.2-0.1,0.4-0.1,0.6
		c0,0.3,0.1,0.5,0.2,0.8c0.2,0.2,0.4,0.4,0.6,0.6c0.3,0.2,0.6,0.3,0.9,0.5c0.3,0.1,0.7,0.3,1,0.4s0.7,0.3,1,0.5s0.6,0.4,0.9,0.6
		c0.3,0.2,0.5,0.5,0.6,0.9c0.2,0.3,0.2,0.7,0.2,1.2c0,0.4-0.1,0.8-0.3,1.2c-0.2,0.4-0.4,0.7-0.7,1s-0.7,0.5-1.1,0.7
		c-0.4,0.2-0.9,0.3-1.5,0.3c-0.3,0-0.6,0-0.9-0.1c-0.3,0-0.5-0.1-0.8-0.2c-0.2-0.1-0.4-0.2-0.6-0.2c-0.2-0.1-0.4-0.2-0.5-0.3
		c-0.4-0.2-0.7-0.5-1-0.8L169.7,421z M178,415.4h1.6v4.8c0,0.3,0,0.5,0.1,0.8c0,0.2,0.1,0.5,0.2,0.6c0.1,0.2,0.3,0.3,0.5,0.4
		s0.5,0.2,0.8,0.2c0.4,0,0.8-0.1,1.1-0.3c0.3-0.2,0.6-0.4,0.8-0.7c0.2-0.3,0.4-0.6,0.5-1s0.2-0.8,0.2-1.2v-3.8h1.6v8.1h-1.5v-1.1
		c0-0.1,0-0.2,0-0.2c0-0.1,0-0.1,0-0.2s0-0.1,0-0.2l0,0c-0.1,0.2-0.2,0.4-0.4,0.6s-0.4,0.4-0.6,0.6c-0.3,0.2-0.5,0.3-0.9,0.5
		c-0.3,0.1-0.7,0.2-1.1,0.2c-0.9,0-1.6-0.3-2.1-0.8s-0.7-1.3-0.7-2.4v-4.9H178z M187.7,415.4h1.4v0.7c0,0.1,0,0.2,0,0.2
		c0,0.1,0,0.1,0,0.2s0,0.1,0,0.2l0,0c0.1-0.3,0.3-0.5,0.6-0.7c0.1-0.1,0.2-0.2,0.4-0.3c0.1-0.1,0.3-0.2,0.5-0.2
		c0.2-0.1,0.4-0.1,0.6-0.2c0.2,0,0.4-0.1,0.7-0.1c0.5,0,1,0.1,1.5,0.3c0.4,0.2,0.8,0.5,1.1,0.9s0.5,0.8,0.7,1.3s0.3,1.1,0.3,1.7
		s-0.1,1.2-0.3,1.8c-0.2,0.5-0.4,1-0.8,1.3c-0.3,0.4-0.7,0.7-1.2,0.9c-0.4,0.2-0.9,0.3-1.5,0.3c-0.2,0-0.4,0-0.6-0.1
		c-0.2,0-0.4-0.1-0.5-0.1c-0.2-0.1-0.3-0.1-0.4-0.2c-0.1-0.1-0.2-0.2-0.3-0.3c-0.2-0.2-0.4-0.4-0.6-0.7l0,0c0,0.1,0,0.1,0,0.2
		s0,0.1,0,0.2s0,0.2,0,0.3v3.6h-1.5L187.7,415.4L187.7,415.4z M189.2,419.5c0,0.4,0,0.7,0.1,1.1c0.1,0.3,0.2,0.7,0.4,0.9
		c0.2,0.3,0.4,0.5,0.7,0.6c0.3,0.2,0.6,0.3,1,0.3c0.3,0,0.6-0.1,0.9-0.2c0.3-0.1,0.5-0.3,0.8-0.6c0.2-0.3,0.4-0.6,0.5-0.9
		c0.1-0.4,0.2-0.8,0.2-1.2c0-0.4-0.1-0.8-0.2-1.2c-0.1-0.4-0.3-0.7-0.5-0.9c-0.2-0.3-0.4-0.5-0.7-0.6s-0.6-0.2-0.9-0.2
		c-0.3,0-0.6,0.1-0.9,0.2c-0.3,0.1-0.5,0.3-0.8,0.5c-0.2,0.2-0.4,0.5-0.5,0.9C189.3,418.6,189.2,419,189.2,419.5z M197.3,415.4h1.4
		v0.7c0,0.1,0,0.2,0,0.2c0,0.1,0,0.1,0,0.2s0,0.1,0,0.2l0,0c0.1-0.3,0.3-0.5,0.6-0.7c0.1-0.1,0.2-0.2,0.4-0.3
		c0.1-0.1,0.3-0.2,0.5-0.2c0.2-0.1,0.4-0.1,0.6-0.2c0.2,0,0.4-0.1,0.7-0.1c0.5,0,1,0.1,1.5,0.3c0.4,0.2,0.8,0.5,1.1,0.9
		s0.5,0.8,0.7,1.3s0.3,1.1,0.3,1.7s-0.1,1.2-0.3,1.8c-0.2,0.5-0.4,1-0.8,1.3c-0.3,0.4-0.7,0.7-1.2,0.9c-0.4,0.2-0.9,0.3-1.5,0.3
		c-0.2,0-0.4,0-0.6-0.1c-0.2,0-0.4-0.1-0.5-0.1c-0.2-0.1-0.3-0.1-0.4-0.2c-0.1-0.1-0.2-0.2-0.3-0.3c-0.2-0.2-0.4-0.4-0.6-0.7l0,0
		c0,0.1,0,0.1,0,0.2s0,0.1,0,0.2s0,0.2,0,0.3v3.6h-1.5L197.3,415.4L197.3,415.4z M198.8,419.5c0,0.4,0,0.7,0.1,1.1
		c0.1,0.3,0.2,0.7,0.4,0.9c0.2,0.3,0.4,0.5,0.7,0.6c0.3,0.2,0.6,0.3,1,0.3c0.3,0,0.6-0.1,0.9-0.2c0.3-0.1,0.5-0.3,0.8-0.6
		c0.2-0.3,0.4-0.6,0.5-0.9c0.1-0.4,0.2-0.8,0.2-1.2c0-0.4-0.1-0.8-0.2-1.2c-0.1-0.4-0.3-0.7-0.5-0.9c-0.2-0.3-0.4-0.5-0.7-0.6
		s-0.6-0.2-0.9-0.2c-0.3,0-0.6,0.1-0.9,0.2c-0.3,0.1-0.5,0.3-0.8,0.5c-0.2,0.2-0.4,0.5-0.5,0.9C198.9,418.6,198.8,419,198.8,419.5z
		 M206.8,412.2h1.6v8.8c0,0.2,0,0.4,0.1,0.6c0,0.1,0.1,0.3,0.2,0.3c0.1,0.1,0.2,0.1,0.3,0.2c0.1,0,0.2,0,0.3,0h0.1h0.1h0.1v1.4h-0.1
		c0,0-0.1,0-0.2,0c-0.1,0-0.1,0-0.2,0c-0.1,0-0.3,0-0.5,0s-0.3,0-0.5-0.1s-0.3-0.1-0.5-0.2c-0.1-0.1-0.3-0.2-0.4-0.4
		c-0.1-0.2-0.2-0.4-0.3-0.6s-0.1-0.5-0.1-0.9L206.8,412.2L206.8,412.2z M210.6,425.2c0.1,0.1,0.2,0.1,0.3,0.2c0.1,0,0.2,0.1,0.3,0.1
		s0.2,0.1,0.4,0.1c0.3,0,0.6-0.1,0.8-0.3c0.3-0.2,0.5-0.5,0.6-0.9l0.4-0.9l-3.4-8h1.7l2,5.3c0,0.1,0.1,0.2,0.1,0.3
		c0,0.1,0.1,0.2,0.1,0.3c0,0.1,0.1,0.2,0.1,0.3l0,0c0-0.1,0.1-0.2,0.1-0.3c0-0.1,0.1-0.2,0.1-0.3c0-0.1,0.1-0.2,0.1-0.3l2-5.3h1.7
		l-3.8,9.5c-0.1,0.3-0.3,0.6-0.5,0.8c-0.2,0.2-0.4,0.4-0.6,0.6c-0.2,0.2-0.5,0.3-0.7,0.4c-0.3,0.1-0.5,0.1-0.8,0.1
		c-0.2,0-0.4,0-0.6-0.1c-0.2,0-0.4-0.1-0.5-0.2c-0.2-0.1-0.3-0.2-0.4-0.3L210.6,425.2z M144.7,435.8c0-0.5,0.1-1.1,0.2-1.6
		c0.1-0.5,0.3-1,0.6-1.4c0.2-0.4,0.5-0.8,0.9-1.2c0.3-0.3,0.7-0.6,1.2-0.9c0.4-0.2,0.9-0.4,1.4-0.6c0.5-0.1,1-0.2,1.6-0.2
		c0.3,0,0.7,0,1,0.1c0.3,0,0.6,0.1,0.8,0.2c0.3,0.1,0.5,0.1,0.7,0.2s0.4,0.2,0.6,0.3c0.4,0.2,0.7,0.5,1,0.7l-0.8,1.2
		c-0.3-0.2-0.6-0.4-0.9-0.6c-0.1-0.1-0.3-0.2-0.5-0.2c-0.2-0.1-0.4-0.1-0.6-0.2c-0.2-0.1-0.4-0.1-0.6-0.1c-0.2,0-0.5-0.1-0.7-0.1
		c-0.6,0-1.2,0.1-1.7,0.3c-0.5,0.2-0.9,0.5-1.3,0.9c-0.4,0.4-0.6,0.8-0.8,1.4s-0.3,1.1-0.3,1.7s0.1,1.2,0.3,1.7s0.5,1,0.9,1.4
		s0.8,0.7,1.3,1c0.5,0.2,1.1,0.4,1.7,0.4c0.3,0,0.5,0,0.8-0.1c0.2,0,0.5-0.1,0.7-0.2s0.4-0.2,0.6-0.2c0.2-0.1,0.4-0.2,0.5-0.3
		c0.4-0.2,0.7-0.5,0.9-0.7l0.9,1.1c-0.3,0.3-0.7,0.6-1.1,0.9c-0.2,0.1-0.4,0.2-0.6,0.3c-0.2,0.1-0.5,0.2-0.8,0.3s-0.6,0.2-0.9,0.2
		c-0.3,0.1-0.6,0.1-1,0.1c-0.8,0-1.6-0.2-2.3-0.5s-1.3-0.7-1.8-1.3c-0.5-0.5-0.9-1.2-1.2-1.9C144.8,437.4,144.7,436.7,144.7,435.8z
		 M156.7,430.2h1.5v4.1c0,0.1,0,0.2,0,0.3c0,0.1,0,0.1,0,0.2s0,0.1,0,0.2l0,0c0.1-0.2,0.2-0.4,0.4-0.6s0.4-0.4,0.6-0.6
		s0.5-0.3,0.9-0.4c0.3-0.1,0.7-0.2,1.1-0.2c1,0,1.7,0.3,2.1,0.8c0.5,0.5,0.7,1.3,0.7,2.3v5.2h-1.6v-4.8c0-0.3,0-0.6-0.1-0.8
		c0-0.3-0.1-0.5-0.2-0.6c-0.1-0.2-0.3-0.3-0.5-0.4s-0.5-0.2-0.8-0.2s-0.6,0-0.9,0.1c-0.3,0.1-0.5,0.2-0.7,0.4
		c-0.2,0.2-0.4,0.4-0.6,0.6c-0.2,0.2-0.3,0.5-0.4,0.8c-0.1,0.2-0.1,0.3-0.1,0.5s0,0.4,0,0.6v3.8h-1.5v-11.3H156.7z M165.7,439.3
		c0-0.4,0.1-0.8,0.3-1.1c0.2-0.3,0.4-0.6,0.7-0.8c0.3-0.2,0.6-0.4,1-0.5s0.7-0.2,1.1-0.3c0.4-0.1,0.7-0.1,1-0.1s0.6,0,0.8,0h0.4
		v-0.1c0-0.3,0-0.6-0.1-0.8c-0.1-0.2-0.2-0.4-0.4-0.5s-0.3-0.2-0.6-0.3c-0.2-0.1-0.4-0.1-0.7-0.1s-0.6,0-0.9,0.1
		c-0.3,0.1-0.5,0.2-0.7,0.3c-0.2,0.1-0.5,0.2-0.7,0.4l-0.6-1.1c0.2-0.2,0.5-0.3,0.8-0.5c0.3-0.1,0.6-0.2,0.9-0.3
		c0.4-0.1,0.8-0.2,1.3-0.2c1,0,1.8,0.3,2.4,0.8c0.6,0.5,0.8,1.3,0.8,2.4v5.1H171v-0.8c0-0.1,0-0.2,0-0.3c0-0.1,0-0.2,0-0.2
		c0-0.1,0-0.1,0-0.2l0,0c-0.1,0.3-0.3,0.6-0.6,0.8c-0.1,0.1-0.2,0.2-0.4,0.3c-0.1,0.1-0.3,0.2-0.5,0.3c-0.2,0.1-0.4,0.1-0.6,0.2
		s-0.4,0.1-0.7,0.1s-0.7-0.1-1-0.2s-0.6-0.3-0.9-0.5c-0.3-0.2-0.5-0.5-0.6-0.8C165.8,440,165.7,439.7,165.7,439.3z M167.2,439.2
		c0,0.2,0,0.3,0.1,0.5s0.2,0.3,0.3,0.4s0.3,0.2,0.5,0.3c0.2,0.1,0.4,0.1,0.7,0.1s0.6-0.1,0.9-0.2c0.3-0.2,0.5-0.4,0.7-0.6
		c0.2-0.3,0.3-0.5,0.4-0.8c0.1-0.3,0.2-0.6,0.2-0.9v-0.3h-0.4c-0.2,0-0.4,0-0.6,0c-0.2,0-0.5,0-0.7,0.1c-0.2,0-0.5,0.1-0.7,0.1
		c-0.2,0.1-0.4,0.2-0.6,0.3c-0.2,0.1-0.3,0.3-0.4,0.4C167.3,438.7,167.2,438.9,167.2,439.2z M174.8,430.2h1.6v1.6h-1.6V430.2z
		 M174.8,433.4h1.5v8.1h-1.5V433.4z M178.8,433.4h1.5v1.1c0,0.1,0,0.2,0,0.2c0,0.1,0,0.1,0,0.2s0,0.1,0,0.2l0,0
		c0.1-0.2,0.2-0.4,0.4-0.6s0.4-0.4,0.6-0.6c0.3-0.2,0.5-0.3,0.9-0.5c0.3-0.1,0.7-0.2,1.2-0.2c1,0,1.7,0.3,2.1,0.8
		c0.5,0.5,0.7,1.3,0.7,2.3v5.2h-1.6v-4.8c0-0.3,0-0.6-0.1-0.8c0-0.3-0.1-0.5-0.2-0.6c-0.1-0.2-0.3-0.3-0.5-0.4s-0.5-0.2-0.8-0.2
		s-0.6,0-0.9,0.1c-0.3,0.1-0.5,0.2-0.7,0.4c-0.2,0.2-0.4,0.4-0.6,0.6c-0.2,0.2-0.3,0.5-0.4,0.8c-0.1,0.2-0.1,0.3-0.1,0.5
		s0,0.4,0,0.6v3.8h-1.5L178.8,433.4L178.8,433.4z M192.9,430.2h3.7c0.9,0,1.6,0.1,2.4,0.4c0.7,0.3,1.3,0.6,1.8,1.1s0.9,1.1,1.2,1.8
		c0.3,0.7,0.4,1.5,0.4,2.4s-0.1,1.7-0.4,2.4c-0.3,0.7-0.7,1.3-1.2,1.8s-1.1,0.9-1.8,1.1c-0.7,0.3-1.5,0.4-2.4,0.4h-3.7V430.2z
		 M196.5,440.2c0.6,0,1.2-0.1,1.7-0.3c0.5-0.2,1-0.5,1.3-0.8c0.4-0.4,0.7-0.8,0.9-1.3s0.3-1.1,0.3-1.8c0-0.7-0.1-1.3-0.3-1.8
		s-0.5-1-0.9-1.3c-0.4-0.4-0.8-0.6-1.3-0.8c-0.5-0.2-1.1-0.3-1.7-0.3h-2.1v8.5h2.1V440.2z M203.8,437.5c0-0.6,0.1-1.2,0.3-1.8
		c0.2-0.5,0.5-1,0.9-1.3c0.4-0.4,0.8-0.7,1.3-0.9c0.5-0.2,1-0.3,1.6-0.3s1.1,0.1,1.5,0.3c0.4,0.2,0.8,0.5,1.1,0.8s0.5,0.7,0.7,1.2
		s0.2,1,0.2,1.5c0,0.1,0,0.1,0,0.2s0,0.1,0,0.2s0,0.2,0,0.3h-5.9c0,0.4,0.1,0.8,0.3,1.2c0.2,0.3,0.4,0.6,0.6,0.8
		c0.3,0.2,0.5,0.4,0.9,0.5c0.3,0.1,0.7,0.2,1,0.2s0.7,0,1-0.1s0.5-0.2,0.8-0.3c0.3-0.1,0.5-0.3,0.7-0.5l0.6,1.1
		c-0.2,0.2-0.5,0.4-0.8,0.6c-0.3,0.1-0.6,0.3-1,0.4s-0.8,0.2-1.3,0.2c-0.6,0-1.2-0.1-1.7-0.3c-0.5-0.2-1-0.5-1.4-0.9
		s-0.7-0.8-0.9-1.3C203.9,438.7,203.8,438.1,203.8,437.5z M209.8,436.5c0-0.3-0.1-0.7-0.2-0.9c-0.1-0.3-0.3-0.5-0.4-0.6
		c-0.2-0.2-0.4-0.3-0.6-0.4c-0.2-0.1-0.5-0.1-0.7-0.1c-0.3,0-0.6,0-0.8,0.1c-0.3,0.1-0.5,0.2-0.7,0.4c-0.2,0.2-0.4,0.4-0.5,0.6
		c-0.1,0.3-0.2,0.5-0.3,0.9H209.8z M213.4,439.4c0.2,0.2,0.4,0.3,0.6,0.5c0.2,0.1,0.4,0.2,0.7,0.3c0.3,0.1,0.6,0.1,1,0.1
		c0.2,0,0.3,0,0.5-0.1c0.2,0,0.3-0.1,0.4-0.2c0.1-0.1,0.2-0.2,0.3-0.3c0.1-0.1,0.1-0.3,0.1-0.4c0-0.2-0.1-0.3-0.2-0.5
		c-0.1-0.1-0.3-0.3-0.5-0.4s-0.4-0.2-0.7-0.3s-0.5-0.2-0.8-0.3c-0.3-0.1-0.5-0.2-0.8-0.4c-0.3-0.1-0.5-0.3-0.7-0.5s-0.3-0.4-0.5-0.6
		s-0.2-0.5-0.2-0.9s0.1-0.7,0.2-1c0.2-0.3,0.4-0.5,0.6-0.7c0.3-0.2,0.6-0.3,0.9-0.4c0.4-0.1,0.7-0.2,1.1-0.2c0.4,0,0.8,0,1.2,0.1
		c0.3,0.1,0.6,0.2,0.8,0.3c0.3,0.1,0.5,0.3,0.6,0.4l-0.6,1.2c-0.2-0.1-0.3-0.3-0.5-0.4s-0.4-0.2-0.6-0.2c-0.2-0.1-0.5-0.1-0.9-0.1
		c-0.2,0-0.3,0-0.5,0.1c-0.2,0-0.3,0.1-0.4,0.2c-0.1,0.1-0.2,0.2-0.3,0.3c-0.1,0.1-0.1,0.3-0.1,0.5s0.1,0.3,0.2,0.5
		c0.1,0.1,0.3,0.3,0.5,0.4s0.4,0.2,0.7,0.3c0.3,0.1,0.5,0.2,0.8,0.3c0.3,0.1,0.5,0.2,0.8,0.4c0.3,0.1,0.5,0.3,0.7,0.5
		s0.4,0.4,0.5,0.6s0.2,0.5,0.2,0.9c0,0.3-0.1,0.7-0.2,0.9c-0.1,0.3-0.3,0.5-0.6,0.7s-0.6,0.4-0.9,0.5c-0.4,0.1-0.8,0.2-1.2,0.2
		c-0.5,0-0.9-0.1-1.3-0.2c-0.4-0.1-0.7-0.3-1-0.4c-0.3-0.2-0.6-0.4-0.8-0.6L213.4,439.4z M220.4,430.2h1.6v1.6h-1.6V430.2z
		 M220.4,433.4h1.5v8.1h-1.5V433.4z M225.2,443c0.2,0.1,0.4,0.2,0.7,0.3c0.2,0.1,0.4,0.1,0.7,0.2s0.6,0.1,0.9,0.1c0.4,0,0.7,0,1-0.1
		s0.6-0.2,0.8-0.4c0.2-0.2,0.4-0.4,0.6-0.7c0.1-0.3,0.2-0.6,0.2-1v-0.6c0-0.1,0-0.1,0-0.2s0-0.1,0-0.2s0-0.1,0-0.2l0,0
		c-0.2,0.4-0.6,0.7-0.9,0.9c-0.4,0.2-0.9,0.3-1.5,0.3s-1.1-0.1-1.5-0.3s-0.8-0.5-1.1-0.9s-0.6-0.8-0.7-1.3c-0.2-0.5-0.2-1-0.2-1.6
		s0.1-1.1,0.2-1.6c0.2-0.5,0.4-0.9,0.7-1.3s0.7-0.6,1.1-0.9c0.4-0.2,0.9-0.3,1.5-0.3c0.2,0,0.5,0,0.7,0.1c0.2,0,0.4,0.1,0.5,0.1
		c0.2,0.1,0.3,0.1,0.4,0.2c0.1,0.1,0.2,0.1,0.3,0.2c0.2,0.2,0.4,0.4,0.5,0.6l0,0v-0.1v-0.1v-0.1v-0.8h1.5v7.8c0,0.7-0.1,1.2-0.4,1.7
		c-0.2,0.5-0.5,0.8-0.9,1.1c-0.4,0.3-0.8,0.5-1.3,0.6s-1,0.2-1.5,0.2s-1-0.1-1.5-0.2s-0.9-0.3-1.3-0.5L225.2,443z M227.8,440.1
		c0.3,0,0.6,0,0.8-0.1c0.3-0.1,0.5-0.2,0.7-0.5c0.2-0.2,0.4-0.5,0.5-0.9s0.2-0.8,0.2-1.3s-0.1-1-0.2-1.3c-0.1-0.3-0.3-0.6-0.5-0.8
		c-0.2-0.2-0.5-0.4-0.7-0.4c-0.3-0.1-0.6-0.1-0.9-0.1c-0.4,0-0.7,0.1-0.9,0.2c-0.3,0.1-0.5,0.3-0.7,0.5s-0.3,0.5-0.4,0.8
		c-0.1,0.3-0.1,0.7-0.1,1.1s0.1,0.8,0.2,1.2c0.1,0.3,0.3,0.6,0.5,0.9s0.4,0.4,0.7,0.6C227.1,440,227.5,440.1,227.8,440.1z
		 M233.9,433.4h1.5v1.1c0,0.1,0,0.2,0,0.2c0,0.1,0,0.1,0,0.2s0,0.1,0,0.2l0,0c0.1-0.2,0.2-0.4,0.4-0.6s0.4-0.4,0.6-0.6
		c0.3-0.2,0.5-0.3,0.9-0.5c0.3-0.1,0.7-0.2,1.2-0.2c1,0,1.7,0.3,2.1,0.8c0.5,0.5,0.7,1.3,0.7,2.3v5.2h-1.6v-4.8c0-0.3,0-0.6-0.1-0.8
		c0-0.3-0.1-0.5-0.2-0.6c-0.1-0.2-0.3-0.3-0.5-0.4s-0.5-0.2-0.8-0.2s-0.6,0-0.9,0.1c-0.3,0.1-0.5,0.2-0.7,0.4
		c-0.2,0.2-0.4,0.4-0.6,0.6c-0.2,0.2-0.3,0.5-0.4,0.8c-0.1,0.2-0.1,0.3-0.1,0.5s0,0.4,0,0.6v3.8h-1.5L233.9,433.4L233.9,433.4z
		 M154,456.4c0-0.3,0-0.6,0.1-0.9s0.2-0.6,0.4-0.8c0.2-0.3,0.4-0.5,0.6-0.7c0.2-0.2,0.5-0.3,0.8-0.5l0,0c-0.3-0.1-0.5-0.3-0.8-0.5
		c-0.1-0.1-0.2-0.2-0.3-0.3c-0.1-0.1-0.2-0.3-0.2-0.4c-0.1-0.2-0.1-0.4-0.2-0.6c0-0.2-0.1-0.4-0.1-0.7c0-0.5,0.1-0.9,0.3-1.2
		c0.2-0.4,0.4-0.7,0.7-0.9c0.3-0.3,0.7-0.4,1.1-0.6c0.4-0.1,0.9-0.2,1.4-0.2c0.2,0,0.3,0,0.5,0s0.3,0,0.4,0.1c0.2,0,0.3,0.1,0.5,0.1
		l-0.4,1.3c-0.1,0-0.2,0-0.3,0s-0.2,0-0.3,0s-0.2,0-0.3,0c-0.3,0-0.5,0-0.8,0.1c-0.2,0.1-0.5,0.2-0.6,0.3c-0.2,0.1-0.3,0.3-0.4,0.5
		c-0.1,0.2-0.2,0.5-0.2,0.7s0,0.4,0.1,0.6s0.2,0.4,0.3,0.6c0.2,0.2,0.4,0.3,0.6,0.4c0.3,0.1,0.6,0.2,1.1,0.2h2.1v-1.5h1.6v1.5h1.5
		v1.4h-1.5v1.5c0,0.6-0.1,1.2-0.3,1.7s-0.4,0.9-0.8,1.2c-0.3,0.3-0.7,0.6-1.2,0.8c-0.5,0.2-1,0.3-1.6,0.3s-1.1-0.1-1.6-0.3
		c-0.5-0.2-0.9-0.4-1.2-0.7c-0.3-0.3-0.6-0.7-0.8-1.1C154.1,457.3,154,456.8,154,456.4z M155.6,456.3c0,0.3,0.1,0.5,0.2,0.8
		c0.1,0.2,0.3,0.5,0.5,0.6c0.2,0.2,0.4,0.3,0.7,0.4s0.6,0.2,1,0.2s0.7,0,1-0.1s0.5-0.3,0.7-0.5s0.4-0.5,0.5-0.8s0.2-0.7,0.2-1.1
		v-1.4h-2.2c-0.8,0-1.4,0.2-1.9,0.5C155.9,455.2,155.6,455.7,155.6,456.3z M169.8,448.2h4.1c0.5,0,1,0.1,1.4,0.3
		c0.4,0.2,0.8,0.4,1.1,0.7c0.3,0.3,0.6,0.7,0.7,1.1c0.2,0.4,0.3,0.9,0.3,1.5c0,0.5-0.1,1-0.3,1.5c-0.2,0.4-0.4,0.8-0.7,1.1
		c-0.3,0.3-0.7,0.6-1.1,0.7c-0.4,0.2-0.9,0.3-1.4,0.3h-2.5v4.2h-1.6V448.2z M173.6,454c0.3,0,0.6,0,0.9-0.1c0.3-0.1,0.5-0.3,0.7-0.4
		c0.2-0.2,0.3-0.4,0.4-0.7c0.1-0.3,0.2-0.6,0.2-0.9s-0.1-0.6-0.2-0.9c-0.1-0.3-0.2-0.5-0.4-0.7s-0.4-0.3-0.7-0.4s-0.6-0.1-0.9-0.1
		h-2.3v4.4h2.3V454z M179.1,448.2h1.6v8.8c0,0.2,0,0.4,0.1,0.6c0,0.1,0.1,0.3,0.2,0.3c0.1,0.1,0.2,0.1,0.3,0.2c0.1,0,0.2,0,0.3,0
		h0.1h0.1h0.1v1.4h-0.1c0,0-0.1,0-0.2,0c-0.1,0-0.1,0-0.2,0c-0.1,0-0.3,0-0.5,0s-0.3,0-0.5-0.1s-0.3-0.1-0.5-0.2
		c-0.1-0.1-0.3-0.2-0.4-0.4c-0.1-0.2-0.2-0.4-0.3-0.6s-0.1-0.5-0.1-0.9L179.1,448.2L179.1,448.2z M182.8,457.3
		c0-0.4,0.1-0.8,0.3-1.1c0.2-0.3,0.4-0.6,0.7-0.8c0.3-0.2,0.6-0.4,1-0.5s0.7-0.2,1.1-0.3c0.4-0.1,0.7-0.1,1-0.1s0.6,0,0.8,0h0.4
		v-0.1c0-0.3,0-0.6-0.1-0.8c-0.1-0.2-0.2-0.4-0.4-0.5s-0.3-0.2-0.6-0.3c-0.2-0.1-0.4-0.1-0.7-0.1s-0.6,0-0.9,0.1
		c-0.3,0.1-0.5,0.2-0.7,0.3c-0.2,0.1-0.5,0.2-0.7,0.4l-0.6-1.1c0.2-0.2,0.5-0.3,0.8-0.5c0.3-0.1,0.6-0.2,0.9-0.3
		c0.4-0.1,0.8-0.2,1.3-0.2c1,0,1.8,0.3,2.4,0.8c0.6,0.5,0.8,1.3,0.8,2.4v5.1h-1.4v-0.8c0-0.1,0-0.2,0-0.3c0-0.1,0-0.2,0-0.2
		c0-0.1,0-0.1,0-0.2l0,0c-0.1,0.3-0.3,0.6-0.6,0.8c-0.1,0.1-0.2,0.2-0.4,0.3c-0.1,0.1-0.3,0.2-0.5,0.3c-0.2,0.1-0.4,0.1-0.6,0.2
		s-0.4,0.1-0.7,0.1s-0.7-0.1-1-0.2s-0.6-0.3-0.9-0.5c-0.3-0.2-0.5-0.5-0.6-0.8C182.8,458,182.8,457.7,182.8,457.3z M184.3,457.2
		c0,0.2,0,0.3,0.1,0.5s0.2,0.3,0.3,0.4s0.3,0.2,0.5,0.3c0.2,0.1,0.4,0.1,0.7,0.1s0.6-0.1,0.9-0.2c0.3-0.2,0.5-0.4,0.7-0.6
		c0.2-0.3,0.3-0.5,0.4-0.8c0.1-0.3,0.2-0.6,0.2-0.9v-0.3h-0.4c-0.2,0-0.4,0-0.6,0c-0.2,0-0.5,0-0.7,0.1c-0.2,0-0.5,0.1-0.7,0.1
		c-0.2,0.1-0.4,0.2-0.6,0.3c-0.2,0.1-0.3,0.3-0.4,0.4C184.4,456.7,184.3,456.9,184.3,457.2z M191.9,451.4h1.5v1.1c0,0.1,0,0.2,0,0.2
		c0,0.1,0,0.1,0,0.2s0,0.1,0,0.2l0,0c0.1-0.2,0.2-0.4,0.4-0.6s0.4-0.4,0.6-0.6c0.3-0.2,0.5-0.3,0.9-0.5c0.3-0.1,0.7-0.2,1.2-0.2
		c1,0,1.7,0.3,2.1,0.8c0.5,0.5,0.7,1.3,0.7,2.3v5.2h-1.6v-4.8c0-0.3,0-0.6-0.1-0.8c0-0.3-0.1-0.5-0.2-0.6c-0.1-0.2-0.3-0.3-0.5-0.4
		s-0.5-0.2-0.8-0.2s-0.6,0-0.9,0.1c-0.3,0.1-0.5,0.2-0.7,0.4c-0.2,0.2-0.4,0.4-0.6,0.6c-0.2,0.2-0.3,0.5-0.4,0.8
		c-0.1,0.2-0.1,0.3-0.1,0.5s0,0.4,0,0.6v3.8h-1.5L191.9,451.4L191.9,451.4z M201.5,451.4h1.5v1.1c0,0.1,0,0.2,0,0.2
		c0,0.1,0,0.1,0,0.2s0,0.1,0,0.2l0,0c0.1-0.2,0.2-0.4,0.4-0.6s0.4-0.4,0.6-0.6c0.3-0.2,0.5-0.3,0.9-0.5c0.3-0.1,0.7-0.2,1.2-0.2
		c1,0,1.7,0.3,2.1,0.8c0.5,0.5,0.7,1.3,0.7,2.3v5.2h-1.6v-4.8c0-0.3,0-0.6-0.1-0.8c0-0.3-0.1-0.5-0.2-0.6c-0.1-0.2-0.3-0.3-0.5-0.4
		s-0.5-0.2-0.8-0.2s-0.6,0-0.9,0.1c-0.3,0.1-0.5,0.2-0.7,0.4c-0.2,0.2-0.4,0.4-0.6,0.6c-0.2,0.2-0.3,0.5-0.4,0.8
		c-0.1,0.2-0.1,0.3-0.1,0.5s0,0.4,0,0.6v3.8h-1.5L201.5,451.4L201.5,451.4z M211.2,448.2h1.6v1.6h-1.6V448.2z M211.2,451.4h1.5v8.1
		h-1.5V451.4z M215.2,451.4h1.5v1.1c0,0.1,0,0.2,0,0.2c0,0.1,0,0.1,0,0.2s0,0.1,0,0.2l0,0c0.1-0.2,0.2-0.4,0.4-0.6s0.4-0.4,0.6-0.6
		c0.3-0.2,0.5-0.3,0.9-0.5c0.3-0.1,0.7-0.2,1.2-0.2c1,0,1.7,0.3,2.1,0.8c0.5,0.5,0.7,1.3,0.7,2.3v5.2H221v-4.8c0-0.3,0-0.6-0.1-0.8
		c0-0.3-0.1-0.5-0.2-0.6c-0.1-0.2-0.3-0.3-0.5-0.4s-0.5-0.2-0.8-0.2s-0.6,0-0.9,0.1c-0.3,0.1-0.5,0.2-0.7,0.4
		c-0.2,0.2-0.4,0.4-0.6,0.6c-0.2,0.2-0.3,0.5-0.4,0.8c-0.1,0.2-0.1,0.3-0.1,0.5s0,0.4,0,0.6v3.8h-1.5L215.2,451.4L215.2,451.4z
		 M225.5,461c0.2,0.1,0.4,0.2,0.7,0.3c0.2,0.1,0.4,0.1,0.7,0.2s0.6,0.1,0.9,0.1c0.4,0,0.7,0,1-0.1s0.6-0.2,0.8-0.4
		c0.2-0.2,0.4-0.4,0.6-0.7c0.1-0.3,0.2-0.6,0.2-1v-0.6c0-0.1,0-0.1,0-0.2s0-0.1,0-0.2s0-0.1,0-0.2l0,0c-0.2,0.4-0.6,0.7-0.9,0.9
		c-0.4,0.2-0.9,0.3-1.5,0.3s-1.1-0.1-1.5-0.3s-0.8-0.5-1.1-0.9s-0.6-0.8-0.7-1.3c-0.2-0.5-0.2-1-0.2-1.6s0.1-1.1,0.2-1.6
		c0.2-0.5,0.4-0.9,0.7-1.3s0.7-0.6,1.1-0.9c0.4-0.2,0.9-0.3,1.5-0.3c0.2,0,0.5,0,0.7,0.1c0.2,0,0.4,0.1,0.5,0.1
		c0.2,0.1,0.3,0.1,0.4,0.2c0.1,0.1,0.2,0.1,0.3,0.2c0.2,0.2,0.4,0.4,0.5,0.6l0,0v-0.1v-0.1v-0.1v-0.8h1.5v7.8c0,0.7-0.1,1.2-0.4,1.7
		c-0.2,0.5-0.5,0.8-0.9,1.1c-0.4,0.3-0.8,0.5-1.3,0.6s-1,0.2-1.5,0.2s-1-0.1-1.5-0.2s-0.9-0.3-1.3-0.5L225.5,461z M228.2,458.1
		c0.3,0,0.5,0,0.8-0.1s0.5-0.2,0.7-0.5c0.2-0.2,0.4-0.5,0.5-0.9s0.2-0.8,0.2-1.3s-0.1-1-0.2-1.3s-0.3-0.6-0.5-0.8
		c-0.2-0.2-0.5-0.4-0.7-0.4c-0.3-0.1-0.6-0.1-0.9-0.1c-0.4,0-0.7,0.1-0.9,0.2c-0.3,0.1-0.5,0.3-0.7,0.5s-0.3,0.5-0.4,0.8
		c-0.1,0.3-0.1,0.7-0.1,1.1s0.1,0.8,0.2,1.2c0.1,0.3,0.3,0.6,0.5,0.9s0.5,0.4,0.7,0.6C227.5,458,227.9,458.1,228.2,458.1z"/>
</g>
<g class="st3">
	<path class="st4" d="M96.6,295L96.6,295c33.1,0,60,26.9,60,60l0,0c0,33.1-26.9,60-60,60l0,0c-33.1,0-60-26.9-60-60l0,0
		C36.6,321.9,63.4,295,96.6,295z"/>
	<path class="st5" d="M62.7,351h1.6v-11.3h-1.6C62.7,339.7,62.7,351,62.7,351z M67,351h1.6v-3.8c0-0.4,0-0.8,0.1-1.1
		c0.3-1.2,1.3-2,2.6-2c1.3,0,1.5,0.9,1.5,2v4.8h1.6v-5.2c0-2.1-0.9-3.1-2.8-3.1c-1.8,0-2.7,1.2-3,1.9l0,0c0,0,0-0.3,0-0.6v-1.1H67
		V351z M78.6,351h1.8l3-8.1h-1.6l-2,5.5c-0.2,0.4-0.3,1.1-0.3,1.1l0,0c0,0-0.1-0.7-0.3-1.1l-2-5.5h-1.6L78.6,351z M84.1,347
		c0,2.4,1.7,4.2,4.3,4.2c1.9,0,3.1-1.2,3.1-1.2l-0.6-1.1c0,0-1,0.9-2.4,0.9s-2.7-0.9-2.8-2.7h5.9c0,0,0-0.5,0-0.7
		c0-2.1-1.2-3.8-3.5-3.8C85.9,342.7,84.1,344.4,84.1,347z M85.8,346c0.2-1.3,1.2-2.1,2.4-2.1c1,0,1.9,0.7,2,2.1H85.8z M93.6,351h1.6
		v-3.8c0-0.4,0-0.8,0.1-1.1c0.3-1.2,1.3-2,2.6-2c1.3,0,1.5,0.9,1.5,2v4.8h1.6v-5.2c0-2.1-0.9-3.1-2.8-3.1c-1.8,0-2.7,1.2-3,1.9l0,0
		c0,0,0-0.3,0-0.6v-1.1h-1.5L93.6,351L93.6,351z M103.6,348c0,2.7,2.1,3,3.1,3c0.3,0,0.5,0,0.5,0v-1.4c0,0-0.1,0-0.4,0
		c-0.6,0-1.7-0.2-1.7-1.8v-3.6h2V343h-2v-2.3h-1.5v2.3h-1.1v1.2h1.1V348z M108.4,346.9c0,2.5,2,4.3,4.4,4.3s4.4-1.8,4.4-4.3
		c0-2.4-2-4.2-4.4-4.2S108.4,344.5,108.4,346.9z M109.9,346.9c0-1.7,1.3-2.9,2.8-2.9s2.8,1.2,2.8,2.9c0,1.7-1.2,2.9-2.8,2.9
		C111.2,349.8,109.9,348.6,109.9,346.9z M118.9,351h1.6v-3.3c0-0.5,0-1,0.2-1.5c0.4-1.2,1.3-1.9,2.3-1.9c0.2,0,0.4,0,0.4,0v-1.5
		c0,0-0.2,0-0.4,0c-1.2,0-2.2,0.9-2.6,2.1l0,0c0,0,0-0.3,0-0.6v-1.4h-1.5V351z M123.9,353.9c0,0,0.7,0.5,1.6,0.5
		c1.1,0,2.1-0.7,2.6-1.9l3.8-9.6h-1.7l-2,5.3c-0.1,0.4-0.3,1-0.3,1l0,0c0,0-0.1-0.6-0.3-1l-2-5.3h-1.7l3.4,8l-0.4,0.9
		c-0.3,0.7-0.8,1.2-1.5,1.2c-0.5,0-0.9-0.3-0.9-0.3L123.9,353.9z M48.9,370h1.6l0.5-7.1c0-0.7,0-1.7,0-1.7l0,0c0,0,0.4,1.1,0.6,1.7
		L54,368h1.4l2.3-5.1c0.3-0.6,0.6-1.7,0.6-1.7l0,0c0,0,0,1,0,1.7l0.6,7.1h1.6l-0.9-11.3h-1.7l-2.6,6.1c-0.3,0.6-0.6,1.5-0.6,1.5l0,0
		c0,0-0.3-0.9-0.6-1.5l-2.6-6.1h-1.7L48.9,370z M62.2,367.7c0,1.6,1.4,2.5,2.8,2.5c1.9,0,2.6-1.6,2.6-1.6l0,0c0,0,0,0.3,0,0.6v0.8
		H69v-5.1c0-2-1.2-3.2-3.2-3.2c-1.9,0-3,1-3,1l0.6,1.1c0,0,1-0.8,2.3-0.8c1,0,1.8,0.4,1.8,1.8v0.1H67
		C65.7,364.9,62.2,365.1,62.2,367.7z M63.7,367.6c0-1.5,2.1-1.5,3.3-1.5h0.4v0.3c0,1.2-0.8,2.6-2.2,2.6
		C64.2,368.9,63.7,368.3,63.7,367.6z M71.3,370h1.6v-3.8c0-0.4,0-0.8,0.1-1.1c0.3-1.2,1.3-2,2.6-2c1.3,0,1.5,0.9,1.5,2v4.8h1.6v-5.2
		c0-2.1-0.9-3.1-2.8-3.1c-1.8,0-2.7,1.2-3,1.9l0,0c0,0,0-0.3,0-0.6v-1.1h-1.5L71.3,370L71.3,370z M80.3,367.7c0,1.6,1.4,2.5,2.8,2.5
		c1.9,0,2.6-1.6,2.6-1.6l0,0c0,0,0,0.3,0,0.6v0.8H87v-5.1c0-2-1.2-3.2-3.2-3.2c-1.9,0-3,1-3,1l0.6,1.1c0,0,1-0.8,2.3-0.8
		c1,0,1.8,0.4,1.8,1.8v0.1h-0.4C83.8,364.9,80.3,365.1,80.3,367.7z M81.8,367.6c0-1.5,2.1-1.5,3.3-1.5h0.4v0.3
		c0,1.2-0.8,2.6-2.2,2.6C82.3,368.9,81.8,368.3,81.8,367.6z M90.1,371.5l-0.5,1.2c0.8,0.4,1.8,0.7,2.8,0.7c2,0,4.1-1,4.1-3.7v-7.8
		H95v0.8c0,0.1,0,0.3,0,0.3l0,0c0,0-0.6-1.2-2.5-1.2c-2.2,0-3.5,1.7-3.5,4s1.4,4.1,3.6,4.1c1.2,0,1.9-0.5,2.4-1.3l0,0
		c0,0,0,0.3,0,0.5v0.6c0,1.6-1.2,2.3-2.6,2.3C91.1,372,90.1,371.5,90.1,371.5z M92.8,368.6c-1.5,0-2.4-1.2-2.4-2.8
		c0-1.6,0.8-2.7,2.2-2.7c1.3,0,2.3,0.6,2.3,2.7S93.9,368.6,92.8,368.6z M98.3,366c0,2.4,1.7,4.2,4.3,4.2c1.9,0,3.1-1.2,3.1-1.2
		l-0.6-1.1c0,0-1,0.9-2.4,0.9s-2.7-0.9-2.8-2.7h5.9c0,0,0-0.5,0-0.7c0-2.1-1.2-3.8-3.5-3.8C100,361.7,98.3,363.4,98.3,366z
		 M99.9,365c0.2-1.3,1.2-2.1,2.4-2.1c1,0,1.9,0.7,2,2.1H99.9z M107.7,370h1.6v-3.7c0-0.4,0-0.7,0.1-1.1c0.3-1.2,1.1-2.1,2.3-2.1
		c1.2,0,1.4,1,1.4,2v4.8h1.6v-3.7c0-0.4,0-0.8,0.1-1.1c0.3-1.1,1.1-2.1,2.3-2.1c1.2,0,1.4,0.9,1.4,2v4.8h1.6v-5.2
		c0-2.1-0.8-3.1-2.7-3.1c-1.3,0-2.4,0.9-2.9,1.8l0,0c-0.3-1.2-1.1-1.8-2.4-1.8s-2.4,0.9-2.8,1.9l0,0c0,0,0-0.3,0-0.6v-1.1h-1.5
		L107.7,370L107.7,370z M121.8,366c0,2.4,1.7,4.2,4.3,4.2c1.9,0,3.1-1.2,3.1-1.2l-0.6-1.1c0,0-1,0.9-2.4,0.9s-2.7-0.9-2.8-2.7h5.9
		c0,0,0-0.5,0-0.7c0-2.1-1.2-3.8-3.5-3.8C123.5,361.7,121.8,363.4,121.8,366z M123.4,365c0.2-1.3,1.2-2.1,2.4-2.1c1,0,1.9,0.7,2,2.1
		H123.4z M131.2,370h1.6v-3.8c0-0.4,0-0.8,0.1-1.1c0.3-1.2,1.3-2,2.6-2s1.5,0.9,1.5,2v4.8h1.6v-5.2c0-2.1-0.9-3.1-2.8-3.1
		c-1.8,0-2.7,1.2-3,1.9l0,0c0,0,0-0.3,0-0.6v-1.1h-1.5v8.2H131.2z M141.2,367c0,2.7,2.1,3,3.1,3c0.3,0,0.5,0,0.5,0v-1.4
		c0,0-0.1,0-0.4,0c-0.6,0-1.7-0.2-1.7-1.8v-3.6h2V362h-2v-2.3h-1.5v2.3h-1.1v1.2h1.1L141.2,367L141.2,367z"/>
</g>
<g class="st3">
	<path class="st4" d="M73,168L73,168c33.1,0,60,26.9,60,60l0,0c0,33.1-26.9,60-60,60l0,0c-33.1,0-60-26.9-60-60l0,0
		C13,194.9,39.9,168,73,168z"/>
	<path class="st5" d="M32.3,222.7c0,0,1.3,1.5,3.7,1.5c2.2,0,3.6-1.4,3.6-3.2c0-3.7-5.5-3-5.5-5.4c0-0.9,0.8-1.6,2-1.6
		c1.4,0,2.5,1,2.5,1l0.7-1.3c0,0-1.1-1.1-3.2-1.1c-2.1,0-3.6,1.4-3.6,3.2c0,3.5,5.5,2.9,5.5,5.4c0,1.1-0.9,1.7-2,1.7
		c-1.7,0-2.9-1.2-2.9-1.2L32.3,222.7z M41.4,221.1c0,2.1,0.9,3.1,2.8,3.1c1.6,0,2.6-1.1,3-1.9l0,0c0,0,0,0.3,0,0.6v1.1h1.5v-8.1
		h-1.6v3.8c0,1.6-1,3.1-2.6,3.1c-1.3,0-1.5-0.9-1.5-2V216h-1.6C41.4,216,41.4,221.1,41.4,221.1z M51.1,227.2h1.6v-3.6
		c0-0.4,0-0.7,0-0.7l0,0c0,0,0.7,1.3,2.5,1.3c2.1,0,3.7-1.7,3.7-4.2s-1.4-4.2-3.6-4.2c-2,0-2.7,1.5-2.7,1.5l0,0c0,0,0-0.3,0-0.6V216
		h-1.4L51.1,227.2L51.1,227.2z M52.6,220c0-2.1,1.1-2.9,2.3-2.9c1.3,0,2.3,1.1,2.3,2.9c0,1.8-1.1,2.9-2.3,2.9
		C53.4,222.9,52.6,221.4,52.6,220z M60.7,227.2h1.6v-3.6c0-0.4,0-0.7,0-0.7l0,0c0,0,0.7,1.3,2.5,1.3c2.1,0,3.7-1.7,3.7-4.2
		s-1.4-4.2-3.6-4.2c-2,0-2.7,1.5-2.7,1.5l0,0c0,0,0-0.3,0-0.6V216h-1.4L60.7,227.2L60.7,227.2z M62.2,220c0-2.1,1.1-2.9,2.3-2.9
		c1.3,0,2.3,1.1,2.3,2.9c0,1.8-1.1,2.9-2.3,2.9C63,222.9,62.2,221.4,62.2,220z M70.2,221.8c0,2,1.3,2.3,2.2,2.3c0.3,0,0.5,0,0.5,0
		v-1.4c0,0-0.1,0-0.3,0c-0.5,0-0.9-0.2-0.9-1.2v-8.8h-1.6v9.1H70.2z M74.5,214.3h1.6v-1.6h-1.6V214.3z M74.5,224h1.6v-8.1h-1.6V224z
		 M78,220c0,2.4,1.7,4.2,4.3,4.2c1.9,0,3.1-1.2,3.1-1.2l-0.6-1.1c0,0-1,0.9-2.4,0.9s-2.7-0.9-2.8-2.7h5.9c0,0,0-0.5,0-0.7
		c0-2.1-1.2-3.8-3.5-3.8C79.7,215.7,78,217.4,78,220z M79.6,219c0.2-1.3,1.2-2.1,2.4-2.1c1,0,1.9,0.7,2,2.1H79.6z M87.4,224H89v-3.3
		c0-0.5,0-1,0.2-1.5c0.4-1.2,1.3-1.9,2.3-1.9c0.2,0,0.4,0,0.4,0v-1.5c0,0-0.2,0-0.4,0c-1.2,0-2.2,0.9-2.6,2.1l0,0c0,0,0-0.3,0-0.6
		v-1.4h-1.5V224z M92.7,223c0,0,1.1,1.2,3.1,1.2c1.8,0,2.9-1,2.9-2.4c0-2.7-4.2-2.3-4.2-3.8c0-0.7,0.7-1,1.3-1c1.3,0,2,0.7,2,0.7
		l0.6-1.2c0,0-0.8-0.9-2.6-0.9c-1.6,0-2.9,0.8-2.9,2.3c0,2.6,4.2,2.3,4.2,3.8c0,0.7-0.7,1-1.3,1c-1.4,0-2.3-0.9-2.3-0.9L92.7,223z
		 M104.3,220.8c0,1.9,1.6,3.4,3.9,3.4c2.4,0,3.9-1.4,3.9-4v-1.5h1.5v-1.4h-1.5v-1.5h-1.6v1.5h-2.1c-1.7,0-2.1-1.1-2.1-1.8
		c0-1.1,0.9-1.7,2-1.7c0.4,0,0.8,0.1,0.8,0.1l0.4-1.3c0,0-0.8-0.2-1.4-0.2c-2,0-3.5,1-3.5,2.9c0,2,1.5,2.5,1.5,2.5l0,0
		C105.1,218.4,104.3,219.6,104.3,220.8z M105.9,220.8c0-1.3,0.9-2,2.5-2h2.2v1.4c0,1.8-0.9,2.6-2.4,2.6
		C106.8,222.7,105.9,221.9,105.9,220.8z M59.6,243h1.6v-4.5h2.4L66,243h1.8l-2.4-4.4c-0.2-0.4-0.3-0.5-0.3-0.5l0,0
		c1.2-0.4,2-1.6,2-3.1s-0.8-2.6-1.9-3.1c-0.4-0.2-0.9-0.3-2.1-0.3h-3.5V243z M61.2,237.1v-4H63c0.9,0,1.2,0.1,1.6,0.3
		c0.6,0.3,0.9,0.9,0.9,1.7c0,1.3-0.8,2-2,2H61.2z M69.5,233.3h1.6v-1.6h-1.6V233.3z M69.6,243h1.6v-8.1h-1.6V243z M72.9,242
		c0,0,1.1,1.2,3.1,1.2c1.8,0,2.9-1,2.9-2.4c0-2.7-4.2-2.3-4.2-3.8c0-0.7,0.7-1,1.3-1c1.3,0,2,0.7,2,0.7l0.6-1.2c0,0-0.8-0.9-2.6-0.9
		c-1.6,0-2.9,0.8-2.9,2.3c0,2.6,4.2,2.3,4.2,3.8c0,0.7-0.7,1-1.3,1c-1.4,0-2.3-0.9-2.3-0.9L72.9,242z M80.7,243h1.6v-3.8h1.2
		l2.4,3.8h1.8l-3-4.5l0,0l2.7-3.6h-1.8l-2.2,3h-1.1v-6.2h-1.6V243z"/>
</g>
<g class="st3">
	<path class="st4" d="M135,55.5L135,55.5c33.1,0,60,26.9,60,60l0,0c0,33.1-26.9,60-60,60l0,0c-33.1,0-60-26.9-60-60l0,0
		C75,82.3,101.8,55.5,135,55.5z"/>
	<path class="st5" d="M95.1,110.2c0,0,1.3,1.5,3.7,1.5c2.2,0,3.6-1.4,3.6-3.2c0-3.7-5.5-3-5.5-5.4c0-0.9,0.8-1.6,2-1.6
		c1.4,0,2.5,1,2.5,1l0.7-1.3c0,0-1.1-1.1-3.2-1.1s-3.6,1.4-3.6,3.2c0,3.5,5.5,2.9,5.5,5.4c0,1.1-0.9,1.7-2,1.7
		c-1.7,0-2.9-1.2-2.9-1.2L95.1,110.2z M103.8,107.4c0,2.5,2,4.3,4.4,4.3s4.4-1.8,4.4-4.3c0-2.4-2-4.2-4.4-4.2
		S103.8,104.9,103.8,107.4z M105.4,107.4c0-1.7,1.3-2.9,2.8-2.9s2.8,1.2,2.8,2.9c0,1.7-1.2,2.9-2.8,2.9S105.4,109.1,105.4,107.4z
		 M114.2,108.5c0,2.1,0.9,3.1,2.8,3.1c1.6,0,2.6-1.1,3-1.9l0,0c0,0,0,0.3,0,0.6v1.1h1.5v-8.1h-1.6v3.8c0,1.6-1,3.1-2.6,3.1
		c-1.3,0-1.5-0.9-1.5-2v-4.8h-1.6C114.2,103.4,114.2,108.5,114.2,108.5z M123.9,111.4h1.6v-3.3c0-0.5,0-1,0.2-1.5
		c0.4-1.2,1.3-1.9,2.3-1.9c0.2,0,0.4,0,0.4,0v-1.5c0,0-0.2,0-0.4,0c-1.2,0-2.2,0.9-2.6,2.1l0,0c0,0,0-0.3,0-0.6v-1.4h-1.5
		C123.9,103.3,123.9,111.4,123.9,111.4z M129.3,107.4c0,2.4,1.8,4.2,4.3,4.2c2.1,0,3.2-1.3,3.2-1.3l-0.6-1.1c0,0-1,1.1-2.5,1.1
		c-1.7,0-2.9-1.3-2.9-2.9c0-1.7,1.2-2.9,2.8-2.9c1.4,0,2.2,0.9,2.2,0.9l0.7-1.1c0,0-1-1.2-3-1.2C131.1,103.2,129.3,105,129.3,107.4z
		 M138.6,101.7h1.6v-1.6h-1.6V101.7z M138.6,111.4h1.6v-8.1h-1.6V111.4z M142.6,111.4h1.6v-3.8c0-0.4,0-0.8,0.1-1.1
		c0.3-1.2,1.3-2,2.6-2s1.5,0.9,1.5,2v4.8h1.6v-5.2c0-2.1-0.9-3.1-2.8-3.1c-1.8,0-2.7,1.2-3,1.9l0,0c0,0,0-0.3,0-0.6v-1.1h-1.5v8.2
		H142.6z M153,112.9l-0.5,1.2c0.8,0.4,1.8,0.7,2.8,0.7c2,0,4.1-1,4.1-3.7v-7.8h-1.5v0.8c0,0.1,0,0.3,0,0.3l0,0c0,0-0.6-1.2-2.5-1.2
		c-2.2,0-3.5,1.7-3.5,4s1.4,4.1,3.6,4.1c1.2,0,1.9-0.5,2.4-1.3l0,0c0,0,0,0.3,0,0.5v0.6c0,1.6-1.2,2.3-2.6,2.3
		C154,113.5,153,112.9,153,112.9z M155.6,110c-1.5,0-2.4-1.2-2.4-2.8c0-1.6,0.8-2.7,2.2-2.7c1.3,0,2.3,0.6,2.3,2.7
		S156.7,110,155.6,110z M165.5,108.3c0,1.9,1.6,3.4,3.9,3.4c2.4,0,3.9-1.4,3.9-4v-1.5h1.5v-1.4h-1.5v-1.5h-1.6v1.5h-2.1
		c-1.7,0-2.1-1.1-2.1-1.8c0-1.1,0.9-1.7,2-1.7c0.4,0,0.8,0.1,0.8,0.1l0.4-1.3c0,0-0.8-0.2-1.4-0.2c-2,0-3.5,1-3.5,2.9
		c0,2,1.5,2.5,1.5,2.5l0,0C166.2,105.8,165.5,107,165.5,108.3z M167.1,108.2c0-1.3,0.9-2,2.5-2h2.2v1.4c0,1.8-0.9,2.6-2.4,2.6
		C168,110.2,167.1,109.3,167.1,108.2z M99.2,124.7c0,3.3,2.4,5.9,5.8,5.9c2.8,0,4.4-1.8,4.4-1.8l-0.8-1.1c0,0-1.4,1.5-3.5,1.5
		c-2.5,0-4.2-2-4.2-4.5c0-2.4,1.6-4.3,4.2-4.3c2,0,3.3,1.2,3.3,1.2l0.8-1.2c0,0-1.4-1.5-4.1-1.5C101.7,119,99.2,121.5,99.2,124.7z
		 M110.6,126.4c0,2.5,2,4.3,4.4,4.3s4.4-1.8,4.4-4.3c0-2.4-2-4.2-4.4-4.2S110.6,123.9,110.6,126.4z M112.2,126.4
		c0-1.7,1.3-2.9,2.8-2.9s2.8,1.2,2.8,2.9s-1.2,2.9-2.8,2.9C113.5,129.3,112.2,128.1,112.2,126.4z M121.2,130.4h1.6v-3.8
		c0-0.4,0-0.8,0.1-1.1c0.3-1.2,1.3-2,2.6-2c1.3,0,1.5,0.9,1.5,2v4.8h1.6v-5.2c0-2.1-0.9-3.1-2.8-3.1c-1.8,0-2.7,1.2-3,1.9l0,0
		c0,0,0-0.3,0-0.6v-1.1h-1.5L121.2,130.4L121.2,130.4z M131.2,127.5c0,2.7,2.1,3,3.1,3c0.3,0,0.5,0,0.5,0v-1.4c0,0-0.1,0-0.4,0
		c-0.6,0-1.7-0.2-1.7-1.8v-3.6h2v-1.2h-2v-2.3h-1.5v2.3h-1.1v1.2h1.1L131.2,127.5L131.2,127.5z M136.6,130.4h1.6v-3.3
		c0-0.5,0-1,0.2-1.5c0.4-1.2,1.3-1.9,2.3-1.9c0.2,0,0.4,0,0.4,0v-1.5c0,0-0.2,0-0.4,0c-1.2,0-2.2,0.9-2.6,2.1l0,0c0,0,0-0.3,0-0.6
		v-1.4h-1.5V130.4z M141.9,128.2c0,1.6,1.4,2.5,2.8,2.5c1.9,0,2.6-1.6,2.6-1.6l0,0c0,0,0,0.3,0,0.6v0.8h1.4v-5.1
		c0-2-1.2-3.2-3.2-3.2c-1.9,0-3,1-3,1l0.6,1.1c0,0,1-0.8,2.3-0.8c1,0,1.8,0.4,1.8,1.8v0.1h-0.4C145.5,125.4,141.9,125.5,141.9,128.2
		z M143.5,128.1c0-1.5,2.1-1.5,3.3-1.5h0.4v0.3c0,1.2-0.8,2.6-2.2,2.6C144,129.4,143.5,128.8,143.5,128.1z M150.5,126.4
		c0,2.4,1.8,4.2,4.3,4.2c2.1,0,3.2-1.3,3.2-1.3l-0.6-1.1c0,0-1,1.1-2.5,1.1c-1.7,0-2.9-1.3-2.9-2.9c0-1.7,1.2-2.9,2.8-2.9
		c1.4,0,2.2,0.9,2.2,0.9l0.7-1.1c0,0-1-1.2-3-1.2C152.3,122.2,150.5,124,150.5,126.4z M160.1,127.5c0,2.7,2.1,3,3.1,3
		c0.3,0,0.5,0,0.5,0v-1.4c0,0-0.1,0-0.4,0c-0.6,0-1.7-0.2-1.7-1.8v-3.6h2v-1.2h-2v-2.3h-1.5v2.3H159v1.2h1.1L160.1,127.5
		L160.1,127.5z M164.9,129.5c0,0,1.1,1.2,3.1,1.2c1.8,0,2.9-1,2.9-2.4c0-2.7-4.2-2.3-4.2-3.8c0-0.7,0.7-1,1.3-1c1.3,0,2,0.7,2,0.7
		l0.6-1.2c0,0-0.8-0.9-2.6-0.9c-1.6,0-2.9,0.8-2.9,2.3c0,2.6,4.2,2.3,4.2,3.8c0,0.7-0.7,1-1.3,1c-1.4,0-2.3-0.9-2.3-0.9L164.9,129.5
		z"/>
</g>
<circle class="st2" cx="257.5" cy="257.5" r="119.1"/>
<text class="activation active" transform="matrix(1 0 0 1 225.8974 87.4131)"><tspan x="0" y="0" class="st2 st6 st7">Factory</tspan><tspan x="-13.6" y="18" class="st2 st6 st7">Onboarding</tspan></text>
<text transform="matrix(1 0 0 1 343.6409 139.6728)"><tspan x="0" y="0" class="st2 st6 st7">Open Supply Hub</tspan><tspan x="16.3" y="18" class="st2 st6 st7">Integratioan</tspan></text>
<text transform="matrix(1 0 0 1 430.1943 245.6351)"><tspan x="0" y="0" class="st2 st6 st7">Risk </tspan><tspan x="-24.3" y="18" class="st2 st6 st7">Assessment</tspan></text>
<text transform="matrix(1 0 0 1 370.9216 377.3521)"><tspan x="0" y="0" class="st2 st6 st7">Third-Party</tspan><tspan x="24.8" y="18" class="st2 st6 st7">KYC</tspan></text>
<text transform="matrix(1 0 0 1 262.5587 449.3521)"><tspan x="0" y="0" class="st2 st6 st7">Verified Eco System</tspan><tspan x="7.6" y="18" class="st2 st6 st7">360-Degree View </tspan><tspan x="35.3" y="36" class="st2 st6 st7">of Supply</tspan></text>
<text transform="matrix(1 0 0 1 142.0942 449.3521)" class="st2 st6 st7">Post Enquiries</text>
<text transform="matrix(1 0 0 1 68.4471 371.9181)"><tspan x="0" y="0" class="st2 st6 st7">Electronic</tspan><tspan x="-8.7" y="18" class="st2 st6 st7">Submissions</tspan></text>
<text transform="matrix(1 0 0 1 5.8975 248.9747)"><tspan x="0" y="0" class="st2 st6 st7">Electronic RFX and</tspan><tspan x="7.2" y="18" class="st2 st6 st7">bid Comparisons</tspan></text>
<text transform="matrix(1 0 0 1 78.6996 134.8615)"><tspan x="0" y="0" class="st2 st6 st7">Integration to </tspan><tspan x="15.5" y="18" class="st2 st6 st7">PLM,ERP</tspan></text>
</svg>
