<?xml version="1.0" encoding="UTF-8"?><svg id="Layer_1" xmlns="http://www.w3.org/2000/svg" xmlns:xlink="http://www.w3.org/1999/xlink" viewBox="0 0 248 95"><defs><style>.cls-1{fill:none;}.cls-2{fill:url(#linear-gradient);opacity:.8;}.cls-3{clip-path:url(#clippath);}.cls-4{fill:#ff6714;}</style><clipPath id="clippath"><rect class="cls-1" x="-8.46" y="-14.06" width="256.46" height="109.06"/></clipPath><linearGradient id="linear-gradient" x1="-9652.18" y1="17644.56" x2="-9277.13" y2="17644.56" gradientTransform="translate(5509.97 -19152.98) rotate(-12.79)" gradientUnits="userSpaceOnUse"><stop offset=".03" stop-color="#ffd0bb"/><stop offset=".04" stop-color="#fed0bb"/><stop offset=".44" stop-color="#f0e3dd"/><stop offset=".78" stop-color="#e8eff2"/><stop offset="1" stop-color="#e5f4fa"/></linearGradient></defs><g class="cls-3"><path class="cls-2" d="M352.7,62.97C330.19,23.02,286.64-.71,240.87,2.16c-38.1,2.39-69.47,20.49-89.98,46.55-12.29,15.62-33.49,21.31-51.71,13.37-16.14-7.03-34.76-8.59-52.94-3.11C5.5,71.26-17.84,115.66-4.87,156.19c5.61,17.55,16.97,31.73,31.36,41.08,13.12,8.52,20.8,23.26,20.91,38.91,.05,6.31,1.03,12.73,3.06,19.07,10.21,31.98,43.87,50.8,76.45,42.69,18.56-4.62,33.05-16.76,41.23-32.24,9.57-18.1,30.07-27.31,49.97-22.47,20.44,4.97,42.43,4.72,64.03-1.79,73.46-22.14,110.71-107.2,70.56-178.45Z"/><g><path class="cls-4" d="M186.99,43.26c-.28-.18-.63-.2-.93-.06l-5.14,2.34c-.24,.11-.43,.31-.52,.56-.19,.51,.07,1.08,.58,1.27,.24,.09,.51,.08,.75-.02l2.13-.96c-4.66,8.13-4.14,18.23,1.32,25.85,.19,.26,.5,.41,.82,.4,.55,0,.99-.44,.99-.98,0-.21-.07-.41-.19-.57-5.01-6.98-5.49-16.24-1.22-23.69l.04,2.19c.03,.55,.5,.96,1.05,.93,.52-.03,.93-.46,.93-.98l-.15-5.44c-.01-.33-.18-.63-.46-.81"/><path class="cls-4" d="M217.4,34.56h0c-.23-.49-.82-.7-1.32-.47-.48,.23-.7,.8-.48,1.29l.96,2.13c-8.12-4.68-18.23-4.18-25.85,1.27-.44,.32-.54,.94-.23,1.39,.31,.44,.92,.55,1.36,.24h.01c6.99-5,16.25-5.46,23.7-1.17l-2.2,.06c-.54,.03-.96,.5-.93,1.05,.03,.52,.46,.92,.98,.93l5.44-.14c.54-.02,.97-.47,.96-1.02,0-.13-.03-.26-.09-.38l-2.32-5.17Z"/><path class="cls-4" d="M228.85,69.64h0c-.22-.49-.8-.72-1.29-.5h-.01l-2.13,.96c4.66-8.13,4.13-18.24-1.34-25.85-.34-.43-.96-.49-1.39-.15-.39,.31-.48,.87-.22,1.3h0c5.03,6.98,5.51,16.26,1.24,23.73l-.06-2.2c-.03-.55-.5-.96-1.05-.93-.52,.03-.93,.46-.93,.98h0l.15,5.44c.02,.53,.45,.96,.99,.96,.14,0,.28-.03,.41-.09l5.14-2.34c.49-.23,.71-.8,.49-1.3"/><path class="cls-4" d="M217.82,76.18c-.25-.05-.52,.01-.73,.16-7.07,4.88-16.34,5.18-23.72,.76l2.2-.02c.54,0,.98-.45,.98-.99h0c0-.54-.45-.98-.99-.98l-5.44,.04c-.54,0-.98,.45-.98,.99h0c0,.13,.03,.26,.08,.38l2.24,5.2c.16,.36,.51,.59,.91,.59,.13,0,.26-.03,.38-.08,.5-.21,.73-.79,.52-1.29h0l-.93-2.15c3.58,2.14,7.65,3.31,11.82,3.39h.46c4.85,0,9.59-1.47,13.57-4.23,.45-.31,.56-.93,.25-1.38-.15-.22-.38-.36-.64-.41"/><path class="cls-4" d="M204.63,73.48l-13.5-7.79v-15.58l13.5-7.79,13.5,7.79v15.58l-13.5,7.79Zm-12.13-8.58l12.13,7.01,12.14-7.01v-14l-12.14-7-12.13,7v14Z"/><rect class="cls-4" x="209.91" y="51.84" width="8.07" height="1.36" transform="translate(2.43 114.09) rotate(-30.02)"/><rect class="cls-4" x="203.95" y="62.93" width="1.36" height="9.76"/><path class="cls-4" d="M204.63,63.62c-1.83,0-3.58-.72-4.87-2.02h0c-2.69-2.69-2.69-7.06,0-9.75s7.06-2.69,9.75,0,2.69,7.06,0,9.75c-1.29,1.29-3.05,2.02-4.88,2.02h0Zm0-12.43c-3.06,0-5.53,2.47-5.53,5.53,0,1.47,.58,2.87,1.62,3.91h0c2.15,2.18,5.66,2.19,7.84,.04,2.18-2.15,2.19-5.66,.04-7.84-1.05-1.06-2.48-1.65-3.96-1.64h0Z"/><polygon class="cls-4" points="203.76 59.62 201.14 57 202.11 56.04 203.76 57.69 207.16 54.3 208.12 55.26 203.76 59.62"/><rect class="cls-4" x="194.67" y="48.46" width="1.36" height="8.15" transform="translate(52.18 195.45) rotate(-60)"/></g></g></svg>