<?xml version="1.0" encoding="UTF-8"?><svg id="Layer_1" xmlns="http://www.w3.org/2000/svg" xmlns:xlink="http://www.w3.org/1999/xlink" viewBox="0 0 248 95"><defs><style>.cls-1{fill:none;}.cls-2{fill:url(#linear-gradient);opacity:.8;}.cls-3{clip-path:url(#clippath);}.cls-4{fill:#96b91e;}</style><clipPath id="clippath"><rect class="cls-1" x="-11.46" y="-13.06" width="259.46" height="108.06"/></clipPath><linearGradient id="linear-gradient" x1="-9680.98" y1="17651.6" x2="-9305.93" y2="17651.6" gradientTransform="translate(5067.07 -19288.03) rotate(-14.17)" gradientUnits="userSpaceOnUse"><stop offset=".03" stop-color="#eced99"/><stop offset=".29" stop-color="#e9efbb"/><stop offset=".59" stop-color="#e7f1dd"/><stop offset=".84" stop-color="#e5f3f2"/><stop offset="1" stop-color="#e5f4fa"/></linearGradient></defs><g class="cls-3"><path class="cls-2" d="M348.08,60.48C324.61,21.08,280.5-1.6,234.81,2.38c-38.03,3.31-68.96,22.15-88.83,48.71-11.91,15.91-32.96,22.11-51.37,14.62-16.31-6.64-34.96-7.75-53-1.83C1.17,77.13-21.09,122.07-7.15,162.28c6.04,17.41,17.73,31.31,32.34,40.31,13.32,8.2,21.35,22.76,21.85,38.39,.2,6.31,1.34,12.7,3.52,18.99,10.98,31.72,45.09,49.73,77.46,40.83,18.44-5.07,32.63-17.55,40.45-33.23,9.13-18.33,29.4-28.03,49.41-23.67,20.55,4.47,42.53,3.7,63.97-3.33,72.91-23.9,108.1-109.84,66.24-180.1Z"/><g><path class="cls-4" d="M186.8,76.15h-10.93c-.68,0-1.23-.55-1.23-1.23v-15.3c0-.68,.55-1.23,1.23-1.23h10.93c.68,0,1.23,.55,1.23,1.23v15.3c0,.68-.55,1.23-1.23,1.23Zm-9.7-2.46h8.47v-12.84h-8.47v12.84Z"/><path class="cls-4" d="M204.71,76.15h-10.93c-.68,0-1.23-.55-1.23-1.23v-21.86c0-.68,.55-1.23,1.23-1.23h10.93c.68,0,1.23,.55,1.23,1.23v21.86c0,.68-.55,1.23-1.23,1.23Zm-9.7-2.46h8.47v-19.4h-8.47v19.4Z"/><path class="cls-4" d="M222.62,76.15h-10.93c-.68,0-1.23-.55-1.23-1.23v-31.22c0-.68,.55-1.23,1.23-1.23h10.93c.68,0,1.23,.55,1.23,1.23v31.22c0,.68-.55,1.23-1.23,1.23Zm-9.7-2.46h8.47v-28.76h-8.47v28.76Z"/></g></g></svg>