
<!-- Generator: Adobe Illustrator 27.2.0, SVG Export Plug-In . SVG Version: 6.00 Build 0)  -->
<svg version="1.1" id="Layer_1" xmlns="http://www.w3.org/2000/svg" xmlns:xlink="http://www.w3.org/1999/xlink" x="0px" y="0px"
	 viewBox="0 0 883 321" style="enable-background:new 0 0 883 321;" xml:space="preserve">
<style type="text/css">
	.st0{opacity:0.8;enable-background:new    ;}
	.st1{clip-path:url(#SVGID_00000096740109351149709890000013938905899373415330_);fill:#E1FAF4;}
	.st2{clip-path:url(#SVGID_00000096740109351149709890000013938905899373415330_);fill:#E0FAF5;}
	.st3{clip-path:url(#SVGID_00000096740109351149709890000013938905899373415330_);fill:#DFFAF6;}
	.st4{clip-path:url(#SVGID_00000096740109351149709890000013938905899373415330_);fill:#DEFAF7;}
	.st5{clip-path:url(#SVGID_00000096740109351149709890000013938905899373415330_);fill:#DDFAF8;}
	.st6{clip-path:url(#SVGID_00000096740109351149709890000013938905899373415330_);fill:#DCFAF9;}
	.st7{clip-path:url(#SVGID_00000096740109351149709890000013938905899373415330_);fill:#DCFAFA;}
	.st8{clip-path:url(#SVGID_00000096740109351149709890000013938905899373415330_);fill:#DBF9FB;}
	.st9{clip-path:url(#SVGID_00000096740109351149709890000013938905899373415330_);fill:#DAF9FC;}
	.st10{clip-path:url(#SVGID_00000096740109351149709890000013938905899373415330_);fill:#D9F9FD;}
	.st11{clip-path:url(#SVGID_00000096740109351149709890000013938905899373415330_);fill:#D8F9FE;}
	.st12{clip-path:url(#SVGID_00000096740109351149709890000013938905899373415330_);fill:#D7F9FF;}
	.st13{clip-path:url(#SVGID_00000096740109351149709890000013938905899373415330_);fill:#E5FBF0;}
	.st14{clip-path:url(#SVGID_00000096740109351149709890000013938905899373415330_);fill:#E4FBF1;}
	.st15{clip-path:url(#SVGID_00000096740109351149709890000013938905899373415330_);fill:#E3FAF2;}
	.st16{clip-path:url(#SVGID_00000096740109351149709890000013938905899373415330_);fill:#E2FAF3;}
	.st17{clip-path:url(#SVGID_00000096740109351149709890000013938905899373415330_);fill:#EEFCE5;}
	.st18{clip-path:url(#SVGID_00000096740109351149709890000013938905899373415330_);fill:#EDFCE6;}
	.st19{clip-path:url(#SVGID_00000096740109351149709890000013938905899373415330_);fill:#ECFCE7;}
	.st20{clip-path:url(#SVGID_00000096740109351149709890000013938905899373415330_);fill:#EBFCE9;}
	.st21{clip-path:url(#SVGID_00000096740109351149709890000013938905899373415330_);fill:#EAFBEA;}
	.st22{clip-path:url(#SVGID_00000096740109351149709890000013938905899373415330_);fill:#E9FBEB;}
	.st23{clip-path:url(#SVGID_00000096740109351149709890000013938905899373415330_);fill:#E8FBEC;}
	.st24{clip-path:url(#SVGID_00000096740109351149709890000013938905899373415330_);fill:#E7FBED;}
	.st25{clip-path:url(#SVGID_00000096740109351149709890000013938905899373415330_);fill:#E6FBEE;}
	.st26{clip-path:url(#SVGID_00000096740109351149709890000013938905899373415330_);fill:#E6FBEF;}
	.st27{clip-path:url(#SVGID_00000096740109351149709890000013938905899373415330_);fill:#F1FCE1;}
	.st28{clip-path:url(#SVGID_00000096740109351149709890000013938905899373415330_);fill:#F0FCE2;}
	.st29{clip-path:url(#SVGID_00000096740109351149709890000013938905899373415330_);fill:#F0FCE3;}
	.st30{clip-path:url(#SVGID_00000096740109351149709890000013938905899373415330_);fill:#EFFCE4;}
	.st31{clip-path:url(#SVGID_00000096740109351149709890000013938905899373415330_);fill:#FAFDD7;}
	.st32{clip-path:url(#SVGID_00000096740109351149709890000013938905899373415330_);fill:#FAFDD8;}
	.st33{clip-path:url(#SVGID_00000096740109351149709890000013938905899373415330_);fill:#F9FDD9;}
	.st34{clip-path:url(#SVGID_00000096740109351149709890000013938905899373415330_);fill:#F8FDDA;}
	.st35{clip-path:url(#SVGID_00000096740109351149709890000013938905899373415330_);fill:#F7FDDB;}
	.st36{clip-path:url(#SVGID_00000096740109351149709890000013938905899373415330_);fill:#F6FDDC;}
	.st37{clip-path:url(#SVGID_00000096740109351149709890000013938905899373415330_);fill:#F5FDDD;}
	.st38{clip-path:url(#SVGID_00000096740109351149709890000013938905899373415330_);fill:#F4FDDE;}
	.st39{clip-path:url(#SVGID_00000096740109351149709890000013938905899373415330_);fill:#F3FDDF;}
	.st40{clip-path:url(#SVGID_00000096740109351149709890000013938905899373415330_);fill:#F2FCE0;}
	.st41{clip-path:url(#SVGID_00000096740109351149709890000013938905899373415330_);fill:#FFFED2;}
	.st42{clip-path:url(#SVGID_00000096740109351149709890000013938905899373415330_);fill:#FEFED3;}
	.st43{clip-path:url(#SVGID_00000096740109351149709890000013938905899373415330_);fill:#FDFED4;}
	.st44{clip-path:url(#SVGID_00000096740109351149709890000013938905899373415330_);fill:#FCFED5;}
	.st45{clip-path:url(#SVGID_00000096740109351149709890000013938905899373415330_);fill:#FBFED6;}
</style>
<g class="st0">
	<g>
		<defs>
			<path id="SVGID_1_" d="M190,38.2L190,38.2c12.5,12.5,12.5,24.5,0,37l-17,17c12.5-12.5,32.8-12.5,45.3,0l0,0
				c12.5,12.5,12.5,32.8,0,45.3L79.7,276.1c-12.5,12.5-32.8,20.8-45.3,8.3l0,0c-12.5-12.5-12.5-32.8,0-45.3l36.2-36.2
				c-12.5,12.5-32.8,12.5-45.3,0l0,0c-12.5-12.5-12.5-32.8,0-53.6L144.7,29.9C157.2,25.7,177.5,25.7,190,38.2z M135,266.2L135,266.2
				c12.5,12.5,32.8,12.5,45.3,0l30.9-30.9c-12.5,12.5-12.5,32.8,0,45.3l0,0c12.5,12.5,32.8,12.5,45.3,0l147.7-147.7
				c12.5-12.5,12.5-32.8,0-45.3l0,0c-12.5-12.5-32.8-12.5-45.3,0l-22.5,22.5c12.5-12.5,12.5-32.8,0-45.3l0,0
				c-12.5-12.5-32.8-12.5-45.3,0L135,220.9C122.5,233.4,122.5,253.7,135,266.2z M366.9,261.1l155.7-155.7
				c12.5-12.5,12.5-32.8,0-45.3l0,0c-12.5-12.5-32.8-12.5-45.3,0L446.4,91L321.6,215.8c-12.5,12.5-12.5,32.8,0,45.3l0,0
				C334.1,273.6,354.3,273.6,366.9,261.1z M585,42.7L396.7,231.1c-12.5,12.5-12.5,32.8,0,45.3l0,0c12.5,12.5,32.8,12.5,45.3,0
				l46.6-46.6c-12.5,12.5-12.5,32.8,0,45.3l0,0c12.5,12.5,32.8,12.5,45.3,0l105.5-105.5c12.5-12.5,12.5-32.8,0-45.3l0,0
				c-12.5-12.5-32.8-12.5-45.3,0L630.3,88c12.5-12.5,12.5-32.8,0-45.3l0,0C617.8,30.2,597.6,30.2,585,42.7z M630.2,269.2
				l135.4-135.4c12.5-12.5,12.5-32.8,0-45.3l0,0C753,76,732.8,76,720.3,88.5l-53.9,53.9l-81.5,81.5c-12.5,12.5-12.5,32.8,0,45.3l0,0
				C597.4,281.7,617.7,281.7,630.2,269.2z M712.4,277.2l147-147c12.5-12.5,12.5-32.8,0-45.3l0,0c-12.5-12.5-32.8-12.5-45.3,0
				l-30.9,30.9L667.1,231.9c-12.5,12.5-12.5,32.8,0,45.3l0,0C679.7,289.7,699.9,289.7,712.4,277.2z"/>
		</defs>
		<clipPath id="SVGID_00000133508363947547607330000016475361289455904922_">
			<use xlink:href="#SVGID_1_"  style="overflow:visible;"/>
		</clipPath>
		
			<rect x="654.6" y="72.4" style="clip-path:url(#SVGID_00000133508363947547607330000016475361289455904922_);fill:#E1FAF4;" width="5.7" height="217.3"/>
		
			<rect x="660.3" y="72.4" style="clip-path:url(#SVGID_00000133508363947547607330000016475361289455904922_);fill:#E0FAF5;" width="19" height="217.3"/>
		
			<rect x="679.3" y="72.4" style="clip-path:url(#SVGID_00000133508363947547607330000016475361289455904922_);fill:#DFFAF6;" width="19" height="217.3"/>
		
			<rect x="698.2" y="72.4" style="clip-path:url(#SVGID_00000133508363947547607330000016475361289455904922_);fill:#DEFAF7;" width="19" height="217.3"/>
		
			<rect x="717.2" y="72.4" style="clip-path:url(#SVGID_00000133508363947547607330000016475361289455904922_);fill:#DDFAF8;" width="19" height="217.3"/>
		
			<rect x="736.1" y="72.4" style="clip-path:url(#SVGID_00000133508363947547607330000016475361289455904922_);fill:#DCFAF9;" width="19" height="217.3"/>
		
			<rect x="755.1" y="72.4" style="clip-path:url(#SVGID_00000133508363947547607330000016475361289455904922_);fill:#DCFAFA;" width="19" height="217.3"/>
		
			<rect x="774" y="72.4" style="clip-path:url(#SVGID_00000133508363947547607330000016475361289455904922_);fill:#DBF9FB;" width="19" height="217.3"/>
		
			<rect x="793" y="72.4" style="clip-path:url(#SVGID_00000133508363947547607330000016475361289455904922_);fill:#DAF9FC;" width="19" height="217.3"/>
		
			<rect x="811.9" y="72.4" style="clip-path:url(#SVGID_00000133508363947547607330000016475361289455904922_);fill:#D9F9FD;" width="19" height="217.3"/>
		
			<rect x="830.9" y="72.4" style="clip-path:url(#SVGID_00000133508363947547607330000016475361289455904922_);fill:#D8F9FE;" width="19" height="217.3"/>
		
			<rect x="849.8" y="72.4" style="clip-path:url(#SVGID_00000133508363947547607330000016475361289455904922_);fill:#D7F9FF;" width="19" height="217.3"/>
		
			<rect x="868.8" y="72.4" style="clip-path:url(#SVGID_00000133508363947547607330000016475361289455904922_);fill:#D7F9FF;" width="3.1" height="217.3"/>
		
			<rect x="572.4" y="76" style="clip-path:url(#SVGID_00000133508363947547607330000016475361289455904922_);fill:#E5FBF0;" width="12.1" height="205.7"/>
		
			<rect x="584.5" y="76" style="clip-path:url(#SVGID_00000133508363947547607330000016475361289455904922_);fill:#E4FBF1;" width="19" height="205.7"/>
		
			<rect x="603.4" y="76" style="clip-path:url(#SVGID_00000133508363947547607330000016475361289455904922_);fill:#E3FAF2;" width="19" height="205.7"/>
		
			<rect x="622.4" y="76" style="clip-path:url(#SVGID_00000133508363947547607330000016475361289455904922_);fill:#E2FAF3;" width="19" height="205.7"/>
		
			<rect x="641.3" y="76" style="clip-path:url(#SVGID_00000133508363947547607330000016475361289455904922_);fill:#E1FAF4;" width="19" height="205.7"/>
		
			<rect x="660.3" y="76" style="clip-path:url(#SVGID_00000133508363947547607330000016475361289455904922_);fill:#E0FAF5;" width="19" height="205.7"/>
		
			<rect x="679.3" y="76" style="clip-path:url(#SVGID_00000133508363947547607330000016475361289455904922_);fill:#DFFAF6;" width="19" height="205.7"/>
		
			<rect x="698.2" y="76" style="clip-path:url(#SVGID_00000133508363947547607330000016475361289455904922_);fill:#DEFAF7;" width="19" height="205.7"/>
		
			<rect x="717.2" y="76" style="clip-path:url(#SVGID_00000133508363947547607330000016475361289455904922_);fill:#DDFAF8;" width="19" height="205.7"/>
		
			<rect x="736.1" y="76" style="clip-path:url(#SVGID_00000133508363947547607330000016475361289455904922_);fill:#DCFAF9;" width="19" height="205.7"/>
		
			<rect x="755.1" y="76" style="clip-path:url(#SVGID_00000133508363947547607330000016475361289455904922_);fill:#DCFAFA;" width="19" height="205.7"/>
		
			<rect x="774" y="76" style="clip-path:url(#SVGID_00000133508363947547607330000016475361289455904922_);fill:#DBF9FB;" width="4.1" height="205.7"/>
		
			<rect x="384.2" y="30.2" style="clip-path:url(#SVGID_00000133508363947547607330000016475361289455904922_);fill:#EEFCE5;" width="10.8" height="258.7"/>
		
			<rect x="395" y="30.2" style="clip-path:url(#SVGID_00000133508363947547607330000016475361289455904922_);fill:#EDFCE6;" width="19" height="258.7"/>
		
			<rect x="413.9" y="30.2" style="clip-path:url(#SVGID_00000133508363947547607330000016475361289455904922_);fill:#ECFCE7;" width="19" height="258.7"/>
		
			<rect x="432.9" y="30.2" style="clip-path:url(#SVGID_00000133508363947547607330000016475361289455904922_);fill:#EBFCE9;" width="19" height="258.7"/>
		
			<rect x="451.8" y="30.2" style="clip-path:url(#SVGID_00000133508363947547607330000016475361289455904922_);fill:#EAFBEA;" width="19" height="258.7"/>
		
			<rect x="470.8" y="30.2" style="clip-path:url(#SVGID_00000133508363947547607330000016475361289455904922_);fill:#E9FBEB;" width="19" height="258.7"/>
		
			<rect x="489.7" y="30.2" style="clip-path:url(#SVGID_00000133508363947547607330000016475361289455904922_);fill:#E8FBEC;" width="19" height="258.7"/>
		
			<rect x="508.7" y="30.2" style="clip-path:url(#SVGID_00000133508363947547607330000016475361289455904922_);fill:#E7FBED;" width="19" height="258.7"/>
		
			<rect x="527.6" y="30.2" style="clip-path:url(#SVGID_00000133508363947547607330000016475361289455904922_);fill:#E6FBEE;" width="19" height="258.7"/>
		
			<rect x="546.6" y="30.2" style="clip-path:url(#SVGID_00000133508363947547607330000016475361289455904922_);fill:#E6FBEF;" width="19" height="258.7"/>
		
			<rect x="565.5" y="30.2" style="clip-path:url(#SVGID_00000133508363947547607330000016475361289455904922_);fill:#E5FBF0;" width="19" height="258.7"/>
		
			<rect x="584.5" y="30.2" style="clip-path:url(#SVGID_00000133508363947547607330000016475361289455904922_);fill:#E4FBF1;" width="19" height="258.7"/>
		
			<rect x="603.4" y="30.2" style="clip-path:url(#SVGID_00000133508363947547607330000016475361289455904922_);fill:#E3FAF2;" width="19" height="258.7"/>
		
			<rect x="622.4" y="30.2" style="clip-path:url(#SVGID_00000133508363947547607330000016475361289455904922_);fill:#E2FAF3;" width="19" height="258.7"/>
		
			<rect x="641.3" y="30.2" style="clip-path:url(#SVGID_00000133508363947547607330000016475361289455904922_);fill:#E1FAF4;" width="10.6" height="258.7"/>
		
			<rect x="309.1" y="47.6" style="clip-path:url(#SVGID_00000133508363947547607330000016475361289455904922_);fill:#F1FCE1;" width="10.1" height="226"/>
		
			<rect x="319.2" y="47.6" style="clip-path:url(#SVGID_00000133508363947547607330000016475361289455904922_);fill:#F0FCE2;" width="19" height="226"/>
		
			<rect x="338.1" y="47.6" style="clip-path:url(#SVGID_00000133508363947547607330000016475361289455904922_);fill:#F0FCE3;" width="19" height="226"/>
		
			<rect x="357.1" y="47.6" style="clip-path:url(#SVGID_00000133508363947547607330000016475361289455904922_);fill:#EFFCE4;" width="19" height="226"/>
		
			<rect x="376" y="47.6" style="clip-path:url(#SVGID_00000133508363947547607330000016475361289455904922_);fill:#EEFCE5;" width="19" height="226"/>
		
			<rect x="395" y="47.6" style="clip-path:url(#SVGID_00000133508363947547607330000016475361289455904922_);fill:#EDFCE6;" width="19" height="226"/>
		
			<rect x="413.9" y="47.6" style="clip-path:url(#SVGID_00000133508363947547607330000016475361289455904922_);fill:#ECFCE7;" width="19" height="226"/>
		
			<rect x="432.9" y="47.6" style="clip-path:url(#SVGID_00000133508363947547607330000016475361289455904922_);fill:#EBFCE9;" width="19" height="226"/>
		
			<rect x="451.8" y="47.6" style="clip-path:url(#SVGID_00000133508363947547607330000016475361289455904922_);fill:#EAFBEA;" width="19" height="226"/>
		
			<rect x="470.8" y="47.6" style="clip-path:url(#SVGID_00000133508363947547607330000016475361289455904922_);fill:#E9FBEB;" width="19" height="226"/>
		
			<rect x="489.7" y="47.6" style="clip-path:url(#SVGID_00000133508363947547607330000016475361289455904922_);fill:#E8FBEC;" width="19" height="226"/>
		
			<rect x="508.7" y="47.6" style="clip-path:url(#SVGID_00000133508363947547607330000016475361289455904922_);fill:#E7FBED;" width="19" height="226"/>
		
			<rect x="527.6" y="47.6" style="clip-path:url(#SVGID_00000133508363947547607330000016475361289455904922_);fill:#E6FBEE;" width="7.5" height="226"/>
		
			<rect x="122.5" y="52.3" style="clip-path:url(#SVGID_00000133508363947547607330000016475361289455904922_);fill:#FAFDD7;" width="7.1" height="240.8"/>
		
			<rect x="129.6" y="52.3" style="clip-path:url(#SVGID_00000133508363947547607330000016475361289455904922_);fill:#FAFDD8;" width="19" height="240.8"/>
		
			<rect x="148.6" y="52.3" style="clip-path:url(#SVGID_00000133508363947547607330000016475361289455904922_);fill:#F9FDD9;" width="19" height="240.8"/>
		
			<rect x="167.5" y="52.3" style="clip-path:url(#SVGID_00000133508363947547607330000016475361289455904922_);fill:#F8FDDA;" width="19" height="240.8"/>
		
			<rect x="186.5" y="52.3" style="clip-path:url(#SVGID_00000133508363947547607330000016475361289455904922_);fill:#F7FDDB;" width="19" height="240.8"/>
		
			<rect x="205.4" y="52.3" style="clip-path:url(#SVGID_00000133508363947547607330000016475361289455904922_);fill:#F6FDDC;" width="19" height="240.8"/>
		
			<rect x="224.4" y="52.3" style="clip-path:url(#SVGID_00000133508363947547607330000016475361289455904922_);fill:#F5FDDD;" width="19" height="240.8"/>
		
			<rect x="243.4" y="52.3" style="clip-path:url(#SVGID_00000133508363947547607330000016475361289455904922_);fill:#F4FDDE;" width="19" height="240.8"/>
		
			<rect x="262.3" y="52.3" style="clip-path:url(#SVGID_00000133508363947547607330000016475361289455904922_);fill:#F3FDDF;" width="19" height="240.8"/>
		
			<rect x="281.3" y="52.3" style="clip-path:url(#SVGID_00000133508363947547607330000016475361289455904922_);fill:#F2FCE0;" width="19" height="240.8"/>
		
			<rect x="300.2" y="52.3" style="clip-path:url(#SVGID_00000133508363947547607330000016475361289455904922_);fill:#F1FCE1;" width="19" height="240.8"/>
		
			<rect x="319.2" y="52.3" style="clip-path:url(#SVGID_00000133508363947547607330000016475361289455904922_);fill:#F0FCE2;" width="19" height="240.8"/>
		
			<rect x="338.1" y="52.3" style="clip-path:url(#SVGID_00000133508363947547607330000016475361289455904922_);fill:#F0FCE3;" width="19" height="240.8"/>
		
			<rect x="357.1" y="52.3" style="clip-path:url(#SVGID_00000133508363947547607330000016475361289455904922_);fill:#EFFCE4;" width="19" height="240.8"/>
		
			<rect x="376" y="52.3" style="clip-path:url(#SVGID_00000133508363947547607330000016475361289455904922_);fill:#EEFCE5;" width="19" height="240.8"/>
		
			<rect x="395" y="52.3" style="clip-path:url(#SVGID_00000133508363947547607330000016475361289455904922_);fill:#EDFCE6;" width="19" height="240.8"/>
		
			<rect x="413.9" y="52.3" style="clip-path:url(#SVGID_00000133508363947547607330000016475361289455904922_);fill:#ECFCE7;" width="2.8" height="240.8"/>
		
			<rect x="12.8" y="25.7" style="clip-path:url(#SVGID_00000133508363947547607330000016475361289455904922_);fill:#FFFED2;" width="3.1" height="271.2"/>
		
			<rect x="15.9" y="25.7" style="clip-path:url(#SVGID_00000133508363947547607330000016475361289455904922_);fill:#FFFED2;" width="19" height="271.2"/>
		
			<rect x="34.9" y="25.7" style="clip-path:url(#SVGID_00000133508363947547607330000016475361289455904922_);fill:#FEFED3;" width="19" height="271.2"/>
		
			<rect x="53.8" y="25.7" style="clip-path:url(#SVGID_00000133508363947547607330000016475361289455904922_);fill:#FDFED4;" width="19" height="271.2"/>
		
			<rect x="72.8" y="25.7" style="clip-path:url(#SVGID_00000133508363947547607330000016475361289455904922_);fill:#FCFED5;" width="19" height="271.2"/>
		
			<rect x="91.7" y="25.7" style="clip-path:url(#SVGID_00000133508363947547607330000016475361289455904922_);fill:#FBFED6;" width="19" height="271.2"/>
		
			<rect x="110.7" y="25.7" style="clip-path:url(#SVGID_00000133508363947547607330000016475361289455904922_);fill:#FAFDD7;" width="19" height="271.2"/>
		
			<rect x="129.6" y="25.7" style="clip-path:url(#SVGID_00000133508363947547607330000016475361289455904922_);fill:#FAFDD8;" width="19" height="271.2"/>
		
			<rect x="148.6" y="25.7" style="clip-path:url(#SVGID_00000133508363947547607330000016475361289455904922_);fill:#F9FDD9;" width="19" height="271.2"/>
		
			<rect x="167.5" y="25.7" style="clip-path:url(#SVGID_00000133508363947547607330000016475361289455904922_);fill:#F8FDDA;" width="19" height="271.2"/>
		
			<rect x="186.5" y="25.7" style="clip-path:url(#SVGID_00000133508363947547607330000016475361289455904922_);fill:#F7FDDB;" width="19" height="271.2"/>
		
			<rect x="205.4" y="25.7" style="clip-path:url(#SVGID_00000133508363947547607330000016475361289455904922_);fill:#F6FDDC;" width="19" height="271.2"/>
		
			<rect x="224.4" y="25.7" style="clip-path:url(#SVGID_00000133508363947547607330000016475361289455904922_);fill:#F5FDDD;" width="6.4" height="271.2"/>
	</g>
</g>
</svg>
