<?xml version="1.0" encoding="utf-8"?>
<!-- Generator: Adobe Illustrator 23.0.5, SVG Export Plug-In . SVG Version: 6.00 Build 0)  -->
<svg version="1.1" id="Layer_1" xmlns="http://www.w3.org/2000/svg" xmlns:xlink="http://www.w3.org/1999/xlink" x="0px" y="0px"
	 viewBox="0 0 248 95" style="enable-background:new 0 0 248 95;" xml:space="preserve">
<style type="text/css">
	.st0{clip-path:url(#SVGID_2_);}
	.st1{opacity:0.8;fill:url(#SVGID_3_);enable-background:new    ;}
	.st2{fill:#DA41DE;}
</style>
<g>
	<defs>
		<rect id="SVGID_1_" x="-11.5" y="-13.1" width="259.5" height="108.1"/>
	</defs>
	<clipPath id="SVGID_2_">
		<use xlink:href="#SVGID_1_"  style="overflow:visible;"/>
	</clipPath>
	<g class="st0">
		
			<linearGradient id="SVGID_3_" gradientUnits="userSpaceOnUse" x1="-9771.6777" y1="-17589.0117" x2="-9396.6123" y2="-17589.0117" gradientTransform="matrix(0.9696 -0.2448 -0.2448 -0.9696 5170.2539 -19249.8477)">
			<stop  offset="3.000000e-02" style="stop-color:#F6B6FF"/>
			<stop  offset="0.44" style="stop-color:#ECD7FC"/>
			<stop  offset="0.78" style="stop-color:#E7ECFA"/>
			<stop  offset="1" style="stop-color:#E5F4FA"/>
		</linearGradient>
		<path class="st1" d="M348.1,60.5C324.6,21.1,280.5-1.6,234.8,2.4c-38,3.3-69,22.1-88.8,48.7C134.1,67,113,73.2,94.6,65.7
			c-16.3-6.6-35-7.8-53-1.8C1.2,77.1-21.1,122.1-7.2,162.3c6,17.4,17.7,31.3,32.3,40.3c13.3,8.2,21.4,22.8,21.9,38.4
			c0.2,6.3,1.3,12.7,3.5,19c11,31.7,45.1,49.7,77.5,40.8c18.4-5.1,32.6-17.5,40.4-33.2c9.1-18.3,29.4-28,49.4-23.7
			c20.6,4.5,42.5,3.7,64-3.3C354.8,216.7,390,130.7,348.1,60.5L348.1,60.5z"/>
		<g>
			<g>
				<g>
					<path class="st2" d="M215.6,58.1c0,0.2,0.1,0.2,0.3,0.2c1.3,0,2.5,0,3.8,0c0.4,0,0.9,0,1.3,0c0.4,0,0.7,0.1,1,0.4
						c1.4,1.4,2.7,2.7,4.1,4.1c0.2,0.2,0.3,0.4,0.4,0.6c0,0.2,0,0.4,0,0.6c-0.3,0.6-0.8,0.8-1.4,0.8c-0.8,0-1.7,0-2.5,0
						c-0.3,0-0.4,0.1-0.4,0.4c0,3.8,0,7.6,0,11.4c0,0.3,0,0.5-0.2,0.8c-0.2,0.3-0.5,0.3-0.7,0.5c-8.9,0-17.8,0-26.6,0
						c-0.6-0.3-0.8-0.7-0.8-1.4c0-3.8,0-7.5,0-11.3c0-0.3-0.1-0.4-0.4-0.4c-0.9,0-1.9,0-2.8,0c-0.5,0-0.8-0.2-1-0.6
						c-0.2-0.5-0.1-0.9,0.2-1.2c0.6-0.7,1.3-1.3,1.9-1.9c0.7-0.7,1.5-1.5,2.2-2.2c0.3-0.3,0.6-0.5,1.1-0.5c1.7,0,3.3,0,5,0
						c0.1,0,0.3,0.1,0.3-0.1c0.7,0,1.4,0,2.1,0c0,0.3,0.2,0.1,0.4,0.1c3.4,0,6.7,0,10.1,0c0.1,0,0.1,0,0.2,0c0.2,0,0.2-0.1,0.2-0.2
						C214.2,58.1,214.9,58.1,215.6,58.1z M220,70.2C220,70.2,220,70.2,220,70.2c0-1.7,0-3.4,0-5.1c0-0.3-0.1-0.4-0.4-0.4
						c-2.3,0-4.7,0-7,0c-0.5,0-0.8-0.1-1.1-0.5c-1-1.1-2.1-2.1-3.1-3.1c-0.2-0.2-0.4-0.2-0.6,0c-0.9,1-1.9,1.9-2.8,2.8
						c-0.5,0.5-1.1,0.8-1.8,0.8c-2.2-0.1-4.5,0-6.7,0c-0.3,0-0.4,0.1-0.4,0.4c0,3.4,0,6.8,0,10.2c0,0.3,0.1,0.4,0.4,0.4
						c3.4,0,6.7,0,10.1,0c0.3,0,0.4-0.1,0.4-0.4c0-2.4,0-4.8,0-7.1c0-0.4,0.1-0.7,0.4-0.9c0.3-0.3,0.7-0.4,1.1-0.2
						c0.4,0.2,0.7,0.6,0.7,1.1c0,2.4,0,4.9,0,7.3c0,0.2,0,0.3,0.3,0.3c3.4,0,6.8,0,10.2,0c0.3,0,0.3-0.1,0.3-0.3
						C220,73.6,220,71.9,220,70.2z M205.5,60.5c0,0-0.1-0.1-0.1-0.1c-3.2,0-6.5,0-9.7,0c-0.2,0-0.3,0.1-0.4,0.2
						c-0.6,0.6-1.2,1.2-1.8,1.8c-0.1,0.1-0.2,0.1-0.1,0.2c3.2,0,6.5,0,9.7,0c0.1,0,0.2,0,0.3-0.1C204.1,61.8,204.8,61.2,205.5,60.5z
						 M222.8,62.6c-0.7-0.8-1.5-1.3-2.1-2.1c-0.1-0.1-0.2-0.1-0.3-0.1c-3.1,0-6.3,0-9.4,0c-0.1,0-0.2-0.1-0.2,0.1
						c0.6,0.6,1.2,1.2,1.9,1.8c0.2,0.2,0.3,0.2,0.6,0.2c3.1,0,6.2,0,9.3,0C222.6,62.6,222.7,62.6,222.8,62.6z"/>
					<path class="st2" d="M226.5,53.2c-0.3,0.7-0.9,0.8-1.6,0.8c-0.5,0-0.5,0-0.5,0.5c0,0.2,0,0.4,0,0.6c0,0.6-0.5,1-1.1,1
						c-0.6,0-1-0.5-1.1-1c0-0.3,0-0.6,0-0.9c0-0.2-0.1-0.2-0.2-0.2c-0.3,0-0.6,0-0.9,0c-0.6,0-1.1-0.5-1.1-1.1c0-0.6,0.4-1.1,1-1.1
						c0.3,0,0.6,0,1,0c0.2,0,0.2-0.1,0.2-0.2c0-0.3,0-0.6,0-0.9c0-0.6,0.5-1,1.1-1c0.6,0,1.1,0.5,1.1,1.1c0,0.3,0,0.6,0,0.8
						c0,0.2,0.1,0.3,0.3,0.3c0.1,0,0.3,0,0.4,0c0.7-0.1,1.2,0.2,1.4,0.8C226.5,52.8,226.5,53,226.5,53.2z"/>
					<path class="st2" d="M226.5,42.4c-0.3,0.5-0.7,0.9-1.1,1.3c-0.4,0.4-0.8,0.8-1.3,1.3c-0.5,0.5-1.1,0.5-1.6,0.1
						c-0.5-0.4-0.4-1.1,0-1.6c0.6-0.6,1.2-1.2,1.8-1.9c0.8-0.8,1.5-0.8,2.1,0.2C226.5,42,226.5,42.2,226.5,42.4z"/>
					<path class="st2" d="M202.7,58.1c-0.7,0-1.4,0-2.1,0c0-1.6,0-3.2,0-4.7c0-1.1,0-2.3,0-3.4c0-0.2-0.1-0.3-0.3-0.3
						c-1,0-1.9,0-2.9,0c-0.8,0-1.2-0.4-1.2-1.2c0-0.9-0.1-1.9,0.1-2.8c0.3-2.3,2.2-4.2,4.5-4.5c0.3,0,0.7-0.1,1-0.1
						c1.4,0,2.7,0,4.1,0c0.7,0,1.1,0.5,1.1,1.1c0,0.7,0,1.3,0,2c0,0.7,0.5,1.1,1.1,1.1c0.6,0,1.1-0.5,1.1-1.1c0-0.7,0-1.3,0-2
						c0-0.7,0.4-1.1,1.1-1.1c1.5,0,2.9,0,4.4,0c2.8,0,5.2,2.4,5.2,5.2c0,0.7,0,1.5,0,2.2c0,0.7-0.5,1.1-1.1,1.1c-0.9,0-1.9,0-2.8,0
						c-0.3,0-0.3,0.1-0.3,0.3c0,2.6,0,5.1,0,7.7c0,0.1,0,0.3,0,0.4c-0.7,0-1.4,0-2.1,0c0,0,0,0,0-0.1c0-3.1,0-6.3,0-9.4
						c0-0.6,0.5-1.1,1.1-1.1c0.7,0,1.5,0,2.2,0c0.3,0,0.8,0.2,1-0.1c0.2-0.2,0.1-0.6,0.1-1c0-1.9-1.4-3.3-3.3-3.3
						c-0.9,0-1.8,0-2.7,0c-0.4,0-0.5,0.1-0.5,0.5c0.1,1-0.1,1.9-0.7,2.6c-0.7,0.9-1.7,1.3-2.8,1.2c-1.2-0.1-2-0.7-2.6-1.8
						c-0.4-0.7-0.3-1.5-0.3-2.2c0-0.2,0-0.3-0.2-0.3c-1.1,0-2.1,0-3.2,0c-1.4,0-2.5,0.9-3,2.2c-0.2,0.6-0.1,1.2-0.2,1.8
						c0,0.2,0.1,0.3,0.3,0.3c1,0,1.9,0,2.9,0c0.8,0,1.2,0.4,1.2,1.2c0,1.4,0,2.7,0,4.1C202.7,54.6,202.7,56.3,202.7,58.1z"/>
					<path class="st2" d="M191.8,54.6c0-0.7,0-0.7-0.7-0.7c-0.2,0-0.4,0-0.6,0c-0.5-0.1-0.9-0.6-0.9-1.1c0-0.5,0.5-1,1.1-1
						c0.3,0,0.6,0,0.9,0c0.2,0,0.2-0.1,0.2-0.2c0-0.3,0-0.6,0-0.9c0-0.6,0.5-1.1,1.1-1.1c0.6,0,1.1,0.5,1.1,1.1c0,0.3,0,0.6,0,0.9
						c0,0.2,0.1,0.2,0.2,0.2c0.3,0,0.6,0,0.9,0c0.6,0,1.1,0.5,1.1,1.1c0,0.6-0.5,1.1-1.1,1.1c-0.3,0-0.6,0-0.9,0
						c-0.2,0-0.2,0.1-0.2,0.2c0,0.3,0,0.6,0,0.9c0,0.6-0.5,1.1-1.1,1.1c-0.6,0-1-0.5-1.1-1.1C191.8,54.9,191.8,54.8,191.8,54.6z"/>
					<path class="st2" d="M193.9,44.3c0,0.4-0.2,0.7-0.6,0.9c-0.4,0.2-0.8,0.2-1.1-0.1c-0.8-0.7-1.5-1.5-2.3-2.3
						c-0.4-0.4-0.3-1.1,0.1-1.5c0.4-0.4,1-0.4,1.5,0c0.8,0.7,1.5,1.5,2.2,2.2C193.8,43.7,193.9,44,193.9,44.3z"/>
					<path class="st2" d="M215.6,73.4c-0.4,0-0.7,0-1.1,0c-0.6,0-1.1-0.5-1.1-1.1c0-0.6,0.5-1.1,1.1-1.1c0.7,0,1.4,0,2.2,0
						c0.6,0,1.1,0.5,1.1,1.1c0,0.6-0.5,1.1-1.1,1.1C216.3,73.4,216,73.4,215.6,73.4z"/>
				</g>
			</g>
		</g>
	</g>
</g>
</svg>
