<?xml version="1.0" encoding="utf-8"?>
<!-- Generator: Adobe Illustrator 23.0.5, SVG Export Plug-In . SVG Version: 6.00 Build 0)  -->
<svg version="1.1" id="Layer_1" xmlns="http://www.w3.org/2000/svg" xmlns:xlink="http://www.w3.org/1999/xlink" x="0px" y="0px"
	 viewBox="0 0 248 95" style="enable-background:new 0 0 248 95;" xml:space="preserve">
<style type="text/css">
	.st0{clip-path:url(#SVGID_2_);}
	.st1{opacity:0.8;fill:url(#SVGID_3_);enable-background:new    ;}
	.st2{fill:#DA41DE;}
</style>
<g>
	<g>
		<defs>
			<rect id="SVGID_1_" x="-11.5" y="-13.1" width="259.5" height="109.1"/>
		</defs>
		<clipPath id="SVGID_2_">
			<use xlink:href="#SVGID_1_"  style="overflow:visible;"/>
		</clipPath>
		<g class="st0">
			
				<linearGradient id="SVGID_3_" gradientUnits="userSpaceOnUse" x1="-9868.5029" y1="18461.5039" x2="-9493.377" y2="18461.5039" gradientTransform="matrix(0.9696 -0.2448 0.2448 0.9696 5050.2104 -20119.834)">
				<stop  offset="3.000000e-02" style="stop-color:#F6B6FF"/>
				<stop  offset="0.44" style="stop-color:#ECD7FC"/>
				<stop  offset="0.78" style="stop-color:#E7ECFA"/>
				<stop  offset="1" style="stop-color:#E5F4FA"/>
			</linearGradient>
			<path class="st1" d="M348.1,60.5C324.6,21.1,280.5-1.6,234.8,2.4c-38,3.3-69,22.1-88.8,48.7C134.1,67,113,73.2,94.6,65.7
				c-16.3-6.6-35-7.8-53-1.8C1.2,77.1-21.1,122.1-7.2,162.3c6,17.4,17.7,31.3,32.3,40.3c13.3,8.2,21.4,22.8,21.9,38.4
				c0.2,6.3,1.3,12.7,3.5,19c11,31.7,45.1,49.7,77.5,40.8c18.4-5.1,32.6-17.5,40.4-33.2c9.1-18.3,29.4-28,49.4-23.7
				c20.6,4.5,42.5,3.7,64-3.3C354.8,216.7,390,130.7,348.1,60.5L348.1,60.5z"/>
		</g>
	</g>
</g>
<g>
	<path class="st2" d="M226.5,60.2c0,10.5-8.5,18.8-19,18.7c-10.3-0.1-18.6-8.5-18.5-18.9c0-10.3,8.5-18.6,18.9-18.6
		C218.2,41.4,226.6,49.9,226.5,60.2z M225.2,60.1c0-9.6-7.8-17.4-17.4-17.4c-9.7,0-17.5,7.8-17.5,17.5c0,9.7,7.8,17.5,17.4,17.5
		C217.4,77.6,225.3,69.8,225.2,60.1z"/>
	<path class="st2" d="M207.8,71.1c-3.1,0-6.2,0-9.3,0c-0.8,0-1-0.2-1-1c0-4.5,0-9.1,0-13.6c0-0.9,0.1-1.7,0.3-2.5
		c0.4-1.4,0.7-2.8,1.1-4.2c0.1-0.5,0.3-0.6,0.8-0.6c5.4,0,10.8,0,16.2,0c0.5,0,0.7,0.2,0.8,0.6c0.4,1.7,0.9,3.4,1.3,5.1
		c0.1,0.2,0.1,0.5,0.1,0.7c0,4.8,0,9.7,0,14.5c0,0.7-0.2,0.9-0.9,0.9C214,71.1,210.9,71.1,207.8,71.1z M198.8,69.7c6,0,12,0,17.9,0
		c0-4.6,0-9.2,0-13.8c-6,0-11.9,0-17.9,0C198.8,60.6,198.8,65.1,198.8,69.7z M200,50.5c-0.3,1.4-0.7,2.8-1,4.2c2.7,0,5.4,0,8.1,0
		c0-1.4,0-2.8,0-4.2C204.7,50.5,202.4,50.5,200,50.5z M215.5,50.5c-2.4,0-4.7,0-7.1,0c0,1.4,0,2.8,0,4.2c2.7,0,5.4,0,8.1,0
		C216.2,53.2,215.9,51.9,215.5,50.5z"/>
	<path class="st2" d="M205.1,66.5c-0.2,0.5-0.4,0.9-0.6,1.3c-0.2,0.4-0.5,0.6-0.9,0.4c-0.3-0.1-0.5-0.5-0.3-0.9
		c0.2-0.5,0.4-1,0.7-1.5c0.1-0.2,0.1-0.4,0-0.6c-0.6-0.9-0.7-1.9-0.5-3c0.4-1.5,1.6-2.2,3-2.5c0.8-0.2,1.6-0.3,2.3-0.5
		c0.9-0.2,1.7-0.8,2.2-1.6c0.2-0.3,0.4-0.4,0.8-0.3c0.3,0.1,0.5,0.4,0.5,0.7c-0.2,2.4-0.6,4.8-1.8,6.9c-1,1.8-2.9,2.6-4.7,1.8
		C205.6,66.7,205.4,66.6,205.1,66.5z M204.9,64.3c0.1-0.2,0.2-0.3,0.3-0.4c0.7-1,1.6-1.7,2.7-2.1c0.5-0.2,0.9-0.1,1,0.3
		c0.1,0.4,0,0.7-0.5,0.9c-1.2,0.4-2,1.2-2.6,2.3c0.9,0.7,2.5,0.6,3.1-0.4c1.1-1.5,1.7-3.2,1.8-5.2c-0.2,0.1-0.3,0.2-0.4,0.2
		c-0.7,0.3-1.4,0.5-2.1,0.7c-0.7,0.2-1.3,0.3-2,0.5C204.9,61.5,204.3,62.9,204.9,64.3z"/>
</g>
</svg>
