<?xml version="1.0" encoding="utf-8"?>
<!-- Generator: Adobe Illustrator 23.0.5, SVG Export Plug-In . SVG Version: 6.00 Build 0)  -->
<svg version="1.1" id="Layer_1" xmlns="http://www.w3.org/2000/svg" xmlns:xlink="http://www.w3.org/1999/xlink" x="0px" y="0px"
	 viewBox="0 0 248 95" style="enable-background:new 0 0 248 95;" xml:space="preserve">
<style type="text/css">
	.st0{clip-path:url(#SVGID_2_);}
	.st1{opacity:0.8;fill:url(#SVGID_3_);enable-background:new    ;}
	.st2{fill:#FF6714;}
</style>
<g>
	<defs>
		<rect id="SVGID_1_" x="-8.5" y="-14.1" width="256.5" height="109.1"/>
	</defs>
	<clipPath id="SVGID_2_">
		<use xlink:href="#SVGID_1_"  style="overflow:visible;"/>
	</clipPath>
	<g class="st0">
		
			<linearGradient id="SVGID_3_" gradientUnits="userSpaceOnUse" x1="-9733.71" y1="-17579.5957" x2="-9358.6709" y2="-17579.5957" gradientTransform="matrix(0.9752 -0.2214 -0.2214 -0.9752 5603.771 -19108.0664)">
			<stop  offset="3.000000e-02" style="stop-color:#FFD0BB"/>
			<stop  offset="4.000000e-02" style="stop-color:#FED0BB"/>
			<stop  offset="0.44" style="stop-color:#F0E3DD"/>
			<stop  offset="0.78" style="stop-color:#E8EFF2"/>
			<stop  offset="1" style="stop-color:#E5F4FA"/>
		</linearGradient>
		<path class="st1" d="M352.7,63C330.2,23,286.6-0.7,240.9,2.2c-38.1,2.4-69.5,20.5-90,46.5C138.6,64.3,117.4,70,99.2,62.1
			C83,55,64.4,53.5,46.2,59C5.5,71.3-17.8,115.7-4.9,156.2c5.6,17.6,17,31.7,31.4,41.1c13.1,8.5,20.8,23.3,20.9,38.9
			c0,6.3,1,12.7,3.1,19.1c10.2,32,43.9,50.8,76.4,42.7c18.6-4.6,33.1-16.8,41.2-32.2c9.6-18.1,30.1-27.3,50-22.5
			c20.4,5,42.4,4.7,64-1.8C355.6,219.3,392.9,134.2,352.7,63L352.7,63z"/>
		<g>
			<g>
				<path class="st2" d="M193.4,81.2c-0.8-0.3-1-0.9-1-1.8c0-5,0-10,0-15c0-1.1,0.5-1.6,1.6-1.6c1.6,0,3.2,0,4.7,0
					c1,0,1.5,0.5,1.5,1.5c0,1.7,0,3.3,0,5c0,0,0,0.1,0,0.1c0.2,0.1,0.3-0.1,0.4-0.2c1.7-1.1,3.5-2.3,5.2-3.4c0.5-0.3,1-0.5,1.5-0.2
					c0.6,0.3,0.7,0.8,0.7,1.4c0,0.8,0,1.6,0,2.5c0.6-0.4,1.1-0.7,1.6-1.1c1.3-0.9,2.7-1.8,4-2.6c0.5-0.3,1-0.5,1.5-0.2
					c0.6,0.3,0.7,0.8,0.7,1.4c0,4.1,0,8.2,0,12.4c0,0.8-0.2,1.4-1,1.8C207.8,81.2,200.6,81.2,193.4,81.2z M195,72.1
					C195,72.1,195,72.1,195,72.1c0,2,0,4.1,0,6.1c0,0.3,0.1,0.5,0.4,0.5c1.5,0,2.9,0,4.4,0c0.4,0,0.5-0.1,0.4-0.5c0-0.3,0-0.6,0-0.9
					c0-0.7,0.6-1.3,1.3-1.3c0.7,0,1.3,0.5,1.3,1.3c0,0.3,0,0.7,0,1c0,0.3,0.1,0.3,0.3,0.3c1.2,0,2.4,0,3.7,0c0.4,0,0.9,0.1,1.1-0.1
					c0.3-0.2,0.1-0.8,0.1-1.2c0,0,0-0.1,0-0.1c0-0.7,0.6-1.3,1.3-1.3c0.7,0,1.3,0.6,1.3,1.3c0,0.3,0,0.6,0,0.8
					c0,0.4,0.1,0.5,0.5,0.5c0.6,0,1.1,0,1.7,0c0.4,0,0.5-0.1,0.5-0.5c0-2.8,0-5.6,0-8.4c0-0.1,0-0.1,0-0.2c0-0.2,0-0.3-0.3-0.1
					c-0.3,0.2-0.6,0.5-1,0.7c-1.5,1-3,2-4.5,3c-0.5,0.3-1,0.4-1.5,0.1c-0.5-0.3-0.7-0.7-0.7-1.3c0-0.8,0-1.6,0-2.4
					c0-0.2,0-0.3-0.3-0.1c-0.2,0.2-0.5,0.4-0.7,0.5c-1.6,1-3.1,2.1-4.7,3.1c-0.5,0.3-1,0.5-1.5,0.2c-0.5-0.3-0.7-0.8-0.7-1.4
					c0-2,0-4,0-5.9c0-0.3-0.1-0.4-0.4-0.4c-0.6,0-1.2,0-1.8,0c-0.3,0-0.4,0.1-0.4,0.4C195,68,195,70,195,72.1z"/>
				<path class="st2" d="M226.5,54c-0.3,0.8-0.9,1-1.8,1c-5,0-10,0-15,0c-1.1,0-1.6-0.5-1.6-1.6c0-5.1,0-10.1,0-15.2
					c0-1,0.5-1.5,1.6-1.5c5,0,10,0,14.9,0c0.8,0,1.4,0.2,1.8,1C226.5,43,226.5,48.5,226.5,54z M223.9,45.8
					C223.9,45.8,223.9,45.8,223.9,45.8c0-2,0-4.1,0-6.1c0-0.3-0.1-0.4-0.4-0.4c-1.5,0-2.9,0-4.4,0c-0.3,0-0.4,0-0.4,0.4
					c0,1.1,0,2.3,0,3.4c0,0.8-0.5,1.4-1.3,1.4c-0.8,0-1.3-0.6-1.3-1.4c0-1.1,0-2.2,0-3.4c0-0.3-0.1-0.5-0.4-0.4c-1.5,0-2.9,0-4.4,0
					c-0.4,0-0.4,0.1-0.4,0.4c0,4.1,0,8.1,0,12.2c0,0.3,0.1,0.4,0.4,0.4c4.1,0,8.2,0,12.2,0c0.3,0,0.4-0.1,0.4-0.4
					C223.8,49.9,223.9,47.8,223.9,45.8z"/>
				<path class="st2" d="M191,54.9c-2.5,0-5.1,0-7.6,0c-1,0-1.5-0.5-1.5-1.5c0-3.4,0-6.8,0-10.1c0-0.6,0.2-1,0.7-1.3
					c2.5-1.7,5-3.3,7.5-5c0.7-0.5,1.1-0.5,1.9,0c2.2,1.5,4.4,2.9,6.6,4.4c0.3,0.2,0.7,0.5,1.1,0.7c0.4,0.2,0.5,0.6,0.5,1
					c0,3.5,0,7,0,10.5c0,0.8-0.6,1.3-1.4,1.3C196.2,54.9,193.6,54.9,191,54.9z M184.5,48C184.5,48,184.5,48,184.5,48
					c0,1.3,0,2.6,0,3.9c0,0.3,0.1,0.4,0.4,0.4c0.6,0,1.2,0,1.9,0c0.3,0,0.4-0.1,0.4-0.4c0-1.1,0-2.3,0-3.4c0-0.9,0.5-1.4,1.4-1.4
					c1.7,0,3.3,0,5,0c0.9,0,1.4,0.5,1.4,1.4c0,1.1,0,2.3,0,3.4c0,0.3,0.1,0.4,0.4,0.4c0.6,0,1.2,0,1.9,0c0.3,0,0.4-0.1,0.4-0.4
					c0-2.6,0-5.1,0-7.7c0-0.2-0.1-0.4-0.3-0.5c-2-1.3-4-2.7-6-4c-0.2-0.1-0.3-0.1-0.5,0c-2,1.3-4,2.7-6,4c-0.2,0.1-0.3,0.3-0.3,0.6
					C184.5,45.5,184.5,46.8,184.5,48z M192.3,51c0-0.3,0-0.6,0-1c0-0.3,0-0.4-0.3-0.4c-0.7,0-1.3,0-2,0c-0.2,0-0.3,0-0.3,0.3
					c0,0.7,0,1.3,0,2c0,0.2,0,0.3,0.3,0.3c0.7,0,1.4,0,2,0c0.2,0,0.3-0.1,0.3-0.3C192.3,51.7,192.3,51.3,192.3,51z"/>
				<path class="st2" d="M184.6,69.4c0-0.8,0-1.7,0-2.5c0-0.8,0.6-1.4,1.3-1.4c0.8,0,1.3,0.6,1.3,1.4c0,1.1,0,2.3,0,3.4
					c0,0.3,0.1,0.4,0.4,0.4c0.3,0,0.6,0,0.9,0c0.8,0,1.3,0.6,1.3,1.3c0,0.7-0.6,1.3-1.3,1.3c-0.9,0-1.7,0-2.6,0
					c-0.7,0-1.3-0.6-1.3-1.3C184.5,71.1,184.5,70.2,184.6,69.4C184.6,69.4,184.6,69.4,184.6,69.4z"/>
				<path class="st2" d="M223.8,69.4c0,0.8,0,1.7,0,2.5c0,0.8-0.5,1.4-1.4,1.4c-0.8,0-1.7,0-2.5,0c-0.8,0-1.3-0.6-1.4-1.3
					c0-0.7,0.6-1.3,1.3-1.3c0,0,0.1,0,0.1,0c0.4,0,0.9,0.2,1.1-0.1c0.2-0.2,0.1-0.7,0.1-1.1c0-0.9,0-1.7,0-2.6
					c0-0.8,0.6-1.4,1.3-1.4c0.8,0,1.3,0.6,1.3,1.4C223.8,67.7,223.8,68.5,223.8,69.4C223.8,69.4,223.8,69.4,223.8,69.4z"/>
				<path class="st2" d="M187.2,60.2c0,0.4,0,0.9,0,1.3c0,0.8-0.6,1.3-1.3,1.3c-0.7,0-1.3-0.6-1.3-1.3c0-0.9,0-1.7,0-2.6
					c0-0.8,0.6-1.3,1.3-1.3c0.7,0,1.3,0.6,1.3,1.3C187.2,59.4,187.2,59.8,187.2,60.2z"/>
				<path class="st2" d="M223.8,60.3c0,0.4,0,0.8,0,1.2c0,0.8-0.6,1.4-1.3,1.4c-0.7,0-1.3-0.6-1.3-1.3c0-0.9,0-1.7,0-2.6
					c0-0.7,0.6-1.3,1.3-1.3c0.7,0,1.3,0.6,1.3,1.3C223.8,59.4,223.8,59.8,223.8,60.3C223.8,60.3,223.8,60.3,223.8,60.3z"/>
			</g>
		</g>
	</g>
</g>
</svg>
