<?xml version="1.0" encoding="utf-8"?>
<!-- Generator: Adobe Illustrator 23.0.5, SVG Export Plug-In . SVG Version: 6.00 Build 0)  -->
<svg version="1.1" id="Layer_1" xmlns="http://www.w3.org/2000/svg" xmlns:xlink="http://www.w3.org/1999/xlink" x="0px" y="0px"
	 viewBox="0 0 248 95" style="enable-background:new 0 0 248 95;" xml:space="preserve">
<style type="text/css">
	.st0{clip-path:url(#SVGID_2_);}
	.st1{opacity:0.8;fill:url(#SVGID_3_);enable-background:new    ;}
	.st2{clip-path:url(#SVGID_5_);}
	.st3{fill:#FF6714;}
</style>
<g>
	<g>
		<g>
			<g>
				<defs>
					<rect id="SVGID_1_" x="-8.5" y="-14.1" width="256.5" height="109.1"/>
				</defs>
				<clipPath id="SVGID_2_">
					<use xlink:href="#SVGID_1_"  style="overflow:visible;"/>
				</clipPath>
				<g class="st0">
					
						<linearGradient id="SVGID_3_" gradientUnits="userSpaceOnUse" x1="-9994.335" y1="19254.1875" x2="-9619.2617" y2="19254.1875" gradientTransform="matrix(0.9752 -0.2214 0.2214 0.9752 5487.0879 -20799.2363)">
						<stop  offset="3.000000e-02" style="stop-color:#FFD0BB"/>
						<stop  offset="4.000000e-02" style="stop-color:#FED0BB"/>
						<stop  offset="0.44" style="stop-color:#F0E3DD"/>
						<stop  offset="0.78" style="stop-color:#E8EFF2"/>
						<stop  offset="1" style="stop-color:#E5F4FA"/>
					</linearGradient>
					<path class="st1" d="M352.7,63C330.2,23,286.6-0.7,240.9,2.2c-38.1,2.4-69.5,20.5-90,46.5C138.6,64.3,117.4,70,99.2,62.1
						C83,55,64.4,53.5,46.2,59c-40.7,12.3-64,56.7-51.1,97.2c5.6,17.6,17,31.7,31.4,41.1c13.1,8.5,20.8,23.3,20.9,38.9
						c0,6.3,1,12.7,3.1,19.1c10.2,32,43.9,50.8,76.4,42.7c18.6-4.6,33.1-16.8,41.2-32.2c9.6-18.1,30.1-27.3,50-22.5
						c20.4,5,42.4,4.7,64-1.8C355.6,219.3,392.9,134.2,352.7,63L352.7,63z"/>
				</g>
			</g>
		</g>
		<g>
			<g>
				<defs>
					<rect id="SVGID_4_" x="-8.5" y="-14.1" width="256.5" height="109.1"/>
				</defs>
				<clipPath id="SVGID_5_">
					<use xlink:href="#SVGID_4_"  style="overflow:visible;"/>
				</clipPath>
				<g class="st2">
					<path d="M547.4,300.2c-10.4,0-20.7,0-31.1,0c-7.1,0-9.9-2.9-10-10c0-8.4-0.1-16.8,0-25.1c0-3.5-0.9-6.2-4.3-7.5
						c-3.3-1.3-5.7,0.2-8,2.5c-5.9,6-11.8,11.9-17.8,17.8c-4.9,4.9-9,4.9-13.9,0.1c-14.9-14.8-29.7-29.7-44.5-44.5
						c-4.7-4.7-4.7-8.9,0-13.6c6-6,12-12,18-18c2.3-2.3,3.8-4.7,2.4-8c-1.4-3.4-4.1-4.3-7.6-4.3c-8.6,0.1-17.2,0.1-25.9,0
						c-6,0-9.2-3-9.2-8.9c-0.1-21.5-0.1-43,0-64.5c0-6.1,3.2-9,9.5-9c8.6,0,17.2-0.1,25.9,0c3.3,0,5.9-0.8,7.3-4.1
						c1.4-3.3,0.1-5.8-2.2-8.1c-6.1-6.1-12.2-12.2-18.3-18.3c-4.5-4.5-4.5-8.8,0-13.3c15-15,30-30.1,45.1-45.1c4.3-4.3,8.7-4.3,13,0
						c5.9,5.8,11.7,11.6,17.5,17.5c2.5,2.5,5,4.7,8.8,3.2c4-1.6,4.3-5,4.2-8.7c-0.1-8.1-0.1-16.2,0-24.4c0-6.5,2.9-9.5,9.3-9.5
						c21.2-0.1,42.5-0.1,63.7,0c6.4,0,9.3,3.1,9.3,9.5c0,8.2,0.1,16.5,0,24.7c0,3.6,0.4,6.8,4.2,8.4c3.9,1.6,6.4-0.6,8.8-3.2
						c5.7-5.8,11.5-11.5,17.2-17.2c4.6-4.6,9-4.6,13.7,0c14.9,14.8,29.7,29.7,44.5,44.5c4.7,4.7,4.7,8.9,0,13.6c-6,6-12,12-18,18
						c-2.3,2.3-3.8,4.7-2.4,8c1.4,3.4,4.1,4.3,7.6,4.3c8.6-0.1,17.2-0.1,25.9,0c6,0,9.2,3,9.2,8.9c0.1,21.5,0.1,43,0,64.5
						c0,6.1-3.2,9-9.5,9c-8.6,0-17.2,0.1-25.9,0c-3.3,0-5.9,0.9-7.3,4.1c-1.4,3.3,0,5.8,2.3,8c6,6,12,12,18,18
						c4.7,4.7,4.7,9,0.1,13.6c-14.9,15-29.9,29.9-44.8,44.8c-4.5,4.5-8.8,4.5-13.3,0c-6-6-12.1-12-18-18c-2.4-2.4-4.9-4-8.3-2.5
						c-3.4,1.5-4.1,4.3-4.1,7.7c0.1,8.2,0,16.5,0,24.7c0,7.3-2.8,10.1-10.3,10.1C568.1,300.2,557.7,300.2,547.4,300.2z M683.1,123
						c-1.5,0-2.9,0-4.2,0c-6.1,0-12.3,0.2-18.4-0.2c-10.6-0.6-19.4-9.6-20.2-20.2c-0.6-7.2,1.7-13.3,6.8-18.3
						c4.7-4.7,9.5-9.4,13.6-13.5c-12.1-12.2-23.8-23.9-35.8-35.8c-4.5,4.6-9.2,9.6-14.2,14.3c-12.7,12-33.3,6-37.4-10.9
						c-0.8-3.1-0.6-6.4-0.7-9.7c-0.1-5.3,0-10.7,0-15.9c-17.1,0-33.7,0-50.5,0c0,5.9,0.1,11.5,0,17.1c0,2.9,0,5.8-0.7,8.6
						c-4.2,16.9-24.7,22.9-37.4,10.8c-5-4.8-9.7-10-14.2-14.6c-12.3,12.3-24,24-36,35.9c4.6,4.5,9.5,9.2,14.1,14
						c6.8,7.1,8.6,15.5,4.8,24.6c-3.7,9.1-11,13.7-20.8,13.9c-6.7,0.1-13.4,0-20.3,0c0,17,0,33.6,0,50.5c6.6,0,12.9,0,19.3,0
						c10.4,0.1,18.5,5.1,21.9,14c3.7,9.6,1.5,18.1-5.8,25.4c-4.5,4.5-9,9-13.4,13.3c12,12,23.7,23.7,35.8,35.8
						c4.5-4.6,9.2-9.5,14-14.2c7.1-6.8,15.4-8.7,24.5-5c9.1,3.7,13.8,10.9,14,20.7c0.1,5.6,0,11.2,0,16.9c0,1.2,0.1,2.4,0.2,3.5
						c17,0,33.5,0,50.4,0c0-6.7-0.4-13.1,0.2-19.4c0.4-4.5,1.4-9.3,3.6-13.1c7.3-12.1,24-13.9,34.4-4c5,4.8,9.8,9.9,14.2,14.4
						c12.2-12.2,23.9-23.9,35.8-35.8c-4.4-4.4-9.1-9-13.8-13.7c-3.8-3.7-6.2-8.1-6.7-13.5c-1.4-13.7,8.2-24.8,22-25.2
						c6.8-0.2,13.7,0,20.7,0C683.1,156.5,683.1,140,683.1,123z"/>
					<path d="M487.6,219.8c0-47.8,0-95.2,0-143c15.9,0,31.7,0,47.8,0c0,10.5,0,20.9,0,31.6c8.1,0,15.8,0,23.7,0
						c0-10.4,0-20.8,0-31.6c16,0,32,0,48.1,0c0,47.6,0,95.2,0,143C567.5,219.8,527.8,219.8,487.6,219.8z M503.6,197.2
						c2.7-5,5.1-9.3,7.3-13.8c0.8-1.7,1.5-3.7,1.4-5.5c-0.6-13.3,3.7-24.5,13.5-33.6c13.4-12.6,29.7-13.4,46.7-11
						c0.7,0.1,1.6,1.2,1.8,1.9c2.2,14,2.3,28.2-6.3,40.1c-10.8,14.8-25,23.7-45,18.5c-1.3,3.2-2.7,6.4-4.2,9.9c24.5,0,48.4,0,72.5,0
						c0-37.1,0-73.9,0-110.9c-5.4,0-10.6,0-16.1,0c0,10.6,0,21,0,31.3c-18.7,0-37.1,0-55.9,0c0-10.6,0-21,0-31.3
						c-5.4,0-10.5,0-15.7,0C503.6,127.6,503.6,162.2,503.6,197.2z M559.1,148.5c-17.5-1.8-29.8,12-31.2,24.9
						c-0.5,4.8,1.8,6.7,6.5,6.1C548.8,177.7,560.3,163.4,559.1,148.5z"/>
				</g>
			</g>
		</g>
	</g>
</g>
<g>
	<path class="st3" d="M208.6,79.8c-1.3,0-2.5,0-3.8,0c-0.8,0-1.2-0.4-1.2-1.2c0-1,0-2.1,0-3.1c0-0.4-0.1-0.7-0.6-0.8
		c-0.4-0.2-0.7,0-0.9,0.3c-0.7,0.7-1.5,1.5-2.2,2.2c-0.6,0.6-1.1,0.6-1.7,0c-1.8-1.8-3.6-3.6-5.4-5.4c-0.6-0.6-0.6-1.1,0-1.7
		c0.7-0.7,1.4-1.4,2.1-2.1c0.3-0.3,0.5-0.6,0.3-1c-0.2-0.4-0.6-0.5-0.9-0.5c-1,0-2.1,0-3.1,0c-0.8,0-1.2-0.4-1.2-1.2
		c0-2.5,0-5.1,0-7.7c0-0.8,0.4-1.2,1.2-1.2c1,0,2.1,0,3.2,0c0.4,0,0.7-0.1,0.8-0.5c0.2-0.4,0-0.7-0.3-0.9c-0.7-0.7-1.5-1.5-2.2-2.2
		c-0.6-0.6-0.6-1,0-1.6c1.9-1.9,3.6-3.6,5.5-5.5c0.6-0.6,1-0.6,1.6,0c0.7,0.7,1.5,1.5,2.2,2.2c0.3,0.3,0.6,0.5,0.9,0.3
		c0.4-0.2,0.6-0.5,0.6-0.9c0-1,0-2.1,0-3.2c0-0.7,0.4-1.1,1.1-1.1c2.6,0,5.2,0,7.8,0c0.7,0,1.1,0.4,1.1,1.1c0,1,0,2.1,0,3.1
		c0,0.5,0.1,0.7,0.6,0.9c0.5,0.2,0.7-0.1,1-0.4c0.7-0.7,1.4-1.4,2.1-2.1c0.6-0.6,1.1-0.6,1.6,0c1.9,1.9,3.6,3.6,5.5,5.5
		c0.6,0.6,0.6,1,0,1.6c-0.7,0.7-1.5,1.5-2.2,2.2c-0.3,0.3-0.5,0.6-0.3,0.9c0.2,0.4,0.5,0.6,0.9,0.6c1,0,2.1,0,3.2,0
		c0.7,0,1.1,0.4,1.1,1.1c0,2.6,0,5.2,0,7.9c0,0.7-0.4,1-1.1,1c-1,0-2.1,0-3.2,0c-0.4,0-0.7,0.1-0.9,0.5c-0.2,0.4,0,0.7,0.3,1
		c0.7,0.7,1.5,1.5,2.2,2.2c0.6,0.6,0.6,1.1,0,1.6c-1.9,1.9-3.6,3.6-5.5,5.5c-0.6,0.6-1,0.6-1.6,0c-0.7-0.7-1.5-1.5-2.2-2.2
		c-0.3-0.3-0.6-0.5-0.9-0.3c-0.4,0.2-0.6,0.5-0.6,0.9c0,1,0,2.1,0,3.2c0,0.7-0.4,1.1-1.1,1.1C211.2,79.8,209.9,79.8,208.6,79.8z
		 M208.7,44.8c-0.9,0-1.9,0-2.8,0c-0.3,0-0.4,0.1-0.4,0.4c0,0.7,0,1.4,0,2.1c0,1.2-0.6,2.1-1.7,2.5c-1.1,0.5-2.1,0.2-3-0.7
		c-0.5-0.5-1-0.9-1.5-1.5c-0.2-0.2-0.3-0.2-0.5,0c-1.3,1.3-2.6,2.6-3.8,3.9c-0.2,0.2-0.2,0.3,0,0.5c0.5,0.5,1,1,1.5,1.5
		c0.8,0.8,1.1,2,0.7,3.1c-0.5,1.1-1.4,1.7-2.6,1.7c-0.7,0-1.4,0-2.1,0c-0.3,0-0.4,0.1-0.4,0.4c0,1.9,0,3.6,0,5.5
		c0,0.3,0.1,0.4,0.4,0.4c0.7,0,1.4,0,2.1,0c1.2,0,2.1,0.6,2.5,1.7c0.5,1.1,0.2,2.1-0.7,3c-0.5,0.5-1,1-1.5,1.5
		c-0.2,0.2-0.2,0.3,0,0.5c1.3,1.3,2.6,2.6,3.8,3.8c0.2,0.2,0.3,0.2,0.5,0c0.5-0.5,0.9-0.9,1.5-1.5c0.8-0.8,1.9-1.1,3.1-0.7
		c1,0.4,1.7,1.4,1.7,2.6c0,0.7,0,1.4,0,2.1c0,0.3,0,0.4,0.4,0.4c1.9,0,3.6,0,5.5,0c0.3,0,0.4-0.1,0.4-0.4c0-0.7,0-1.4,0-2.1
		c0-1.2,0.7-2.2,1.7-2.6c1.1-0.5,2.1-0.2,3.1,0.7c0.5,0.5,1,1,1.5,1.5c0.2,0.2,0.3,0.2,0.4,0c1.3-1.3,2.6-2.6,3.9-3.9
		c0.2-0.2,0.2-0.3,0-0.5c-0.5-0.5-1-1-1.5-1.5c-0.8-0.8-1.1-2-0.7-3.1c0.5-1,1.4-1.7,2.6-1.7c0.7,0,1.4,0,2.1,0
		c0.3,0,0.4-0.1,0.4-0.4c0-1.8,0-3.6,0-5.4c0-0.3-0.1-0.4-0.4-0.4c-0.7,0-1.4,0-2.1,0c-1.2,0-2.1-0.6-2.5-1.7
		c-0.5-1.1-0.2-2.1,0.7-3c0.5-0.5,1-1,1.5-1.5c0.2-0.2,0.2-0.3,0-0.5c-1.3-1.3-2.6-2.6-3.9-3.9c-0.2-0.2-0.3-0.2-0.4,0
		c-0.5,0.5-1,1-1.5,1.5c-0.9,0.8-2.1,1.1-3.1,0.7c-1-0.5-1.7-1.4-1.7-2.7c0-0.7,0-1.3,0-2.1c0-0.3-0.1-0.4-0.4-0.4
		C210.5,44.8,209.5,44.8,208.7,44.8z"/>
	<path class="st3" d="M201.3,61.3c0-2.8,0-5.5,0-8.3c0-0.4,0.1-0.5,0.5-0.5c1.7,0,3.3,0,5,0c0.4,0,0.5,0.1,0.5,0.5c0,1,0,2.1,0,3.1
		c0,0.3,0.1,0.4,0.4,0.4c0.7,0,1.5,0,2.2,0c0.3,0,0.4-0.1,0.4-0.4c0-1,0-2.1-0.1-3.2c0-0.3,0.1-0.4,0.4-0.4c1.7,0,3.5,0,5.1,0
		c0.3,0,0.4,0.1,0.4,0.4c0,5.6,0,11.1,0,16.7c0,0.3-0.1,0.4-0.4,0.4c-4.6,0-9.2,0-13.8,0c-0.3,0-0.4-0.1-0.4-0.4
		C201.3,66.9,201.3,64.1,201.3,61.3z M205.1,68C205.2,68,205.2,68,205.1,68c2.9,0,5.7,0,8.5,0c0.4,0,0.3-0.2,0.3-0.4
		c0-1.9,0-3.6,0-5.5c0-2.4,0-4.9,0-7.3c0-0.3-0.1-0.4-0.4-0.4c-0.5,0-0.8,0-1.3,0c-0.3,0-0.4,0.1-0.4,0.4c0,1,0,2.1,0,3.2
		c0,0.3,0,0.4-0.4,0.4c-2.1,0-4.1,0-6.2,0c-0.3,0-0.4-0.1-0.4-0.4c0-1,0-2.1,0-3.1c0-0.3-0.1-0.5-0.4-0.5c-0.4,0-0.7,0-1.1,0
		c-0.4,0-0.5,0.1-0.5,0.5c0,3.9,0,7.8,0,11.9c0,0.2,0,0.3,0,0.5c0.3-0.6,0.6-1.2,0.9-1.8c0.1-0.2,0.2-0.4,0.2-0.6
		c-0.2-2.3,1.2-4.6,3.5-5.3c1.2-0.4,2.4-0.4,3.6-0.3c0.3,0,0.4,0.1,0.5,0.5c0.1,0.8,0.1,1.7,0,2.5c-0.3,2.6-2.5,4.2-4.3,4.6
		c-0.4,0.1-0.7,0.1-1.1,0c-0.3,0-0.7-0.3-0.8-0.1c-0.2,0.2-0.3,0.6-0.4,0.8C205.2,67.8,205.2,67.9,205.1,68z M209.7,61.3
		c-1.7,0.1-3,1.2-3.4,2.7c-0.2,0.8,0.1,1.2,1,1c1.6-0.4,2.6-1.6,2.8-3.4C210.1,61.4,210.1,61.2,209.7,61.3z"/>
</g>
</svg>
