<?xml version="1.0" encoding="utf-8"?>
<!-- Generator: Adobe Illustrator 23.0.5, SVG Export Plug-In . SVG Version: 6.00 Build 0)  -->
<svg version="1.1" id="Layer_1" xmlns="http://www.w3.org/2000/svg" xmlns:xlink="http://www.w3.org/1999/xlink" x="0px" y="0px"
	 viewBox="0 0 248 95" style="enable-background:new 0 0 248 95;" xml:space="preserve">
<style type="text/css">
	.st0{clip-path:url(#SVGID_2_);}
	.st1{opacity:0.8;fill:url(#SVGID_3_);enable-background:new    ;}
	.st2{fill:#96B91E;}
</style>
<g>
	<defs>
		<rect id="SVGID_1_" x="-8.5" y="-14.1" width="256.5" height="109.1"/>
	</defs>
	<clipPath id="SVGID_2_">
		<use xlink:href="#SVGID_1_"  style="overflow:visible;"/>
	</clipPath>
	<g class="st0">
		
			<linearGradient id="SVGID_3_" gradientUnits="userSpaceOnUse" x1="-9666.9912" y1="-17591.2324" x2="-9291.9365" y2="-17591.2324" gradientTransform="matrix(0.9731 -0.2306 -0.2306 -0.9731 5353.2319 -19154.1738)">
			
			<stop  offset="3.000000e-02" style="stop-color:#ECED99"/>
			<stop  offset="0.29" style="stop-color:#E9EFBB"/>
			<stop  offset="0.59" style="stop-color:#E7F1DD"/>
			<stop  offset="0.84" style="stop-color:#E5F3F2"/>
			<stop  offset="1" style="stop-color:#E5F4FA"/>
		</linearGradient>
		<path class="st1" d="M350.7,61.4C327.8,21.7,284.1-1.6,238.3,1.7c-38.1,2.8-69.3,21.1-89.5,47.4c-12.1,15.7-33.3,21.6-51.6,13.9
			c-16.2-6.9-34.8-8.3-53-2.6C3.6,73-19.3,117.6-5.9,158c5.8,17.5,17.3,31.6,31.8,40.8c13.2,8.4,21,23.1,21.3,38.7
			c0.1,6.3,1.2,12.7,3.2,19c10.5,31.9,44.3,50.4,76.8,42c18.5-4.8,32.9-17.1,40.9-32.6c9.4-18.2,29.8-27.6,49.8-22.9
			c20.5,4.8,42.5,4.3,64-2.4C355.1,217.7,391.6,132.3,350.7,61.4L350.7,61.4z"/>
		<g>
			<g>
				<path class="st2" d="M211.7,36.4c2.5,1.7,5.2,3.1,8,4c2.4,0.8,4.8,1.2,7.3,1.3c0.8,0,1.4,0.5,1.4,1.3c0,4.2,0,8.4,0,12.7
					c0,0,0,0.1,0,0.1c-0.9,0-1.7,0-2.6,0c0-0.1,0-0.1,0-0.2c0-3.6,0-7.2,0-10.8c0-0.4-0.1-0.5-0.5-0.5c-2-0.1-3.9-0.5-5.8-1.1
					c-2.8-0.8-5.4-2-7.9-3.6c-0.2-0.1-0.4-0.2-0.6,0c-1.1,0.7-2.2,1.2-3.3,1.8c-3.3,1.6-6.8,2.7-10.5,2.9c-0.3,0-0.4,0.2-0.4,0.5
					c0,2.8,0,5.5,0,8.3c0,1.6,0,3.2,0,4.8c-0.9,0-1.7,0-2.6,0c0-1.1,0-2.1,0-3.2c0-3.8,0-7.6,0-11.4c0-1,0.5-1.5,1.5-1.5
					c3.5-0.1,6.8-0.9,9.9-2.3c1.7-0.7,3.3-1.6,4.8-2.7c0.2-0.1,0.3-0.2,0.5-0.3C211.2,36.4,211.4,36.4,211.7,36.4z"/>
				<path class="st2" d="M225.8,55.8c0.9,0,1.7,0,2.6,0c0,2.4,0.2,4.7-0.3,7.1c-0.3,1.6-0.6,3.2-1.3,4.7c-0.6,1.4-1.2,2.8-2,4.1
					c-2.6,4-6.1,6.7-10.4,8.6c-0.8,0.4-1.6,0.7-2.4,1c-0.5,0.2-1,0.2-1.5,0c-3.9-1.4-7.5-3.4-10.3-6.4c-1.3-1.3-2.4-2.8-3.2-4.4
					c-2-3.8-2.9-7.8-2.8-12c0-0.2,0-0.4,0-0.7c0.9,0,1.7,0,2.6,0c0,1.4,0,2.7,0.2,4.1c0.4,3.4,1.6,6.4,3.5,9.2c2.3,3.2,5.4,5.5,9,7
					c1.8,0.8,1.8,0.8,3.7,0c4-1.8,7.4-4.3,9.7-8.1c1.9-3.2,2.9-6.7,3-10.5C225.8,58.2,225.8,57,225.8,55.8z"/>
				<path class="st2" d="M220.5,57.9c0,2.9,0,5.9,0,8.8c0,0.8-0.6,1.3-1.3,1.3c-5.2,0-10.5,0-15.7,0c-0.8,0-1.3-0.6-1.3-1.3
					c0-3.7,0-7.4,0-11c0.9,0,1.7,0,2.6,0c0,3.1,0,6.1,0,9.2c0,0.4,0.1,0.5,0.5,0.5c4,0,8.1,0,12.1,0c0.4,0,0.5-0.1,0.5-0.5
					c0-2.3,0-4.7,0-7C218.8,57.9,219.6,57.9,220.5,57.9z"/>
				<path class="st2" d="M220.5,57.9c-0.9,0-1.7,0-2.6,0c0-1.7,0-3.5,0-5.2c0-0.3-0.1-0.4-0.4-0.4c-1.5,0-3,0-4.5,0
					c-0.3,0-0.4,0.1-0.4,0.4c0,1.2,0,2.3,0,3.5c0,0.8-0.5,1.4-1.3,1.4c-0.8,0-1.3-0.6-1.3-1.4c0-1.2,0-2.3,0-3.5
					c0-0.3-0.1-0.4-0.4-0.4c-1.5,0-3,0-4.5,0c-0.3,0-0.4,0.1-0.4,0.4c0,1,0,2,0,3c-0.9,0-1.7,0-2.6,0c0-1.6,0-3.2,0-4.8
					c0-0.7,0.6-1.2,1.3-1.2c0.1,0,0.2,0,0.3,0c5.1,0,10.3,0,15.4,0c1,0,1.5,0.5,1.5,1.5C220.5,53.4,220.5,55.6,220.5,57.9z"/>
			</g>
		</g>
	</g>
</g>
</svg>
