<?xml version="1.0" encoding="utf-8"?>
<!-- Generator: Adobe Illustrator 22.1.0, SVG Export Plug-In . SVG Version: 6.00 Build 0)  -->
<svg version="1.1" id="Layer_1" xmlns="http://www.w3.org/2000/svg" xmlns:xlink="http://www.w3.org/1999/xlink" x="0px" y="0px"
	 viewBox="0 0 74 74" style="enable-background:new 0 0 74 74;" xml:space="preserve">
<style type="text/css">
	.st0{fill:#FF6F1D;}
	.st1{fill:#FFFFFF;}
	.st2{opacity:1.000000e-02;fill:#FFFFFF;}
</style>
<g>
	<circle class="st0" cx="29.7" cy="29.7" r="29.3"/>
</g>
<path class="st1" d="M17.4,16.3h24.7c2.3,0,4.1,1.7,4.1,3.9V37c0,2.1-1.8,3.9-4.1,3.9h-1.4H40v5.8c0,0.3-0.2,0.5-0.4,0.6
	c-0.1,0-0.2,0-0.3,0c-0.2,0-0.4-0.1-0.5-0.2l-6.7-6.3H17.4c-2.3,0-4.1-1.7-4.1-3.9V20.2C13.3,18.1,15.1,16.3,17.4,16.3z"/>
<rect x="69" y="69" class="st2" width="1" height="1"/>
</svg>
