<svg id="Layer_1" data-name="Layer 1" xmlns="http://www.w3.org/2000/svg" xmlns:xlink="http://www.w3.org/1999/xlink" viewBox="0 0 335.22 270.29"><defs><style>.cls-1{opacity:0.8;fill:url(#linear-gradient);}.cls-16,.cls-17,.cls-2{stroke:#2a4788;}.cls-16,.cls-17,.cls-2,.cls-24{stroke-miterlimit:10;}.cls-2{stroke-width:6px;fill:url(#linear-gradient-2);}.cls-3{fill:#e6faff;opacity:0.9;}.cls-4{opacity:0.5;}.cls-5{fill:#2a4788;}.cls-6{fill:url(#linear-gradient-3);}.cls-7{opacity:0.35;}.cls-8{fill:#db41df;}.cls-9{fill:#e867ef;}.cls-10{fill:#365791;}.cls-11{fill:#ffc7b6;}.cls-12{fill:#ffded2;}.cls-13{fill:url(#linear-gradient-4);}.cls-14{fill:url(#linear-gradient-5);}.cls-15{fill:#7a4022;}.cls-16,.cls-17{fill:#dbdbdb;}.cls-16{stroke-width:7px;}.cls-17{stroke-linecap:round;stroke-width:4px;}.cls-18{fill:#c4d654;}.cls-19{fill:#97ba1e;}.cls-20{fill:#e6e6e6;}.cls-21{fill:#382b27;}.cls-22{fill:#682a17;}.cls-23{fill:#fff;opacity:0.4;}.cls-24{fill:none;stroke:#fff;}</style><linearGradient id="linear-gradient" x1="-1243.85" y1="2139.6" x2="-940.38" y2="2139.6" gradientTransform="matrix(-0.92, -0.34, 0.34, -0.9, -1535.12, 1662.07)" gradientUnits="userSpaceOnUse"><stop offset="0" stop-color="#fbe1ff"/><stop offset="1" stop-color="#e6faff"/></linearGradient><linearGradient id="linear-gradient-2" x1="242.43" y1="59.3" x2="126.28" y2="177.09" gradientUnits="userSpaceOnUse"><stop offset="0" stop-color="#e6faff"/><stop offset="1" stop-color="#73d7ff"/></linearGradient><linearGradient id="linear-gradient-3" x1="213.47" y1="99.23" x2="202.85" y2="110" xlink:href="#linear-gradient-2"/><linearGradient id="linear-gradient-4" x1="-1605.09" y1="230.62" x2="-1660.76" y2="230.62" gradientTransform="matrix(1, 0, 0, -1, 1725.68, 461.24)" gradientUnits="userSpaceOnUse"><stop offset="0" stop-color="#f37025"/><stop offset="0.71" stop-color="#ffae8a"/></linearGradient><linearGradient id="linear-gradient-5" x1="-1616.75" y1="215.33" x2="-1667.55" y2="215.33" gradientTransform="matrix(-1, 0, 0, 1, -1543.21, 0)" gradientUnits="userSpaceOnUse"><stop offset="0" stop-color="#ffae8a"/><stop offset="0.71" stop-color="#ffd0bb"/></linearGradient></defs><path class="cls-1" d="M37.85,92.08C35.62,127.74,54.31,162,85.9,179.82c26.3,14.88,54.88,16.66,79.68,8.58a35.11,35.11,0,0,1,40,13.62,61.52,61.52,0,0,0,33.78,24.86c32.3,9.6,66.85-9.17,75.66-41.09a59.25,59.25,0,0,0-3.16-40.21,35.87,35.87,0,0,1,2.84-34.29,49,49,0,0,0,6.16-13.7c7-25.18-7.28-51.93-32.37-60.71A51,51,0,0,0,247.33,40a35.68,35.68,0,0,1-42.79-7A97.73,97.73,0,0,0,161.3,6.62C103.07-10.69,41.82,28.48,37.85,92.08Z"/><rect class="cls-2" x="37.67" y="60.33" width="259.71" height="149.87" rx="11.65"/><ellipse class="cls-3" cx="167.52" cy="250.81" rx="164.64" ry="16.21"/><g id="Layer_2" data-name="Layer 2" class="cls-4"><g id="Layer_1-2" data-name="Layer 1-2"><path id="Path_122" data-name="Path 122" class="cls-5" d="M96.78,90.13h0a3.55,3.55,0,0,0-3.47,3.61,3.6,3.6,0,0,0,.92,2.32L89.05,104a3.64,3.64,0,0,0-1.22-.21,3.49,3.49,0,0,0-1.28.27L82.38,98.2a3.54,3.54,0,1,0-5.19.2l-6.13,10.26a3.5,3.5,0,0,0-2.86.34l-3.71-3.77a3.37,3.37,0,0,0,.53-1.88,3.54,3.54,0,1,0-1.74,3.09l3.7,3.77a3.37,3.37,0,0,0-.53,1.88,3.54,3.54,0,1,0,7.07.32,1.71,1.71,0,0,0,0-.32,3.53,3.53,0,0,0-1.06-2.52l6.21-10.31a3.48,3.48,0,0,0,2.36-.1L85.16,105a3.56,3.56,0,1,0,6.21,2.4v-.13a3.41,3.41,0,0,0-.94-2.35L95.61,97a3.53,3.53,0,0,0,4.54-2.06v0a3.37,3.37,0,0,0,.21-1.26A3.58,3.58,0,0,0,96.78,90.13ZM63.33,103.4a1.87,1.87,0,0,1-1.85,1.88h0a1.86,1.86,0,1,1,1.84-1.88Zm26.36,3.87a1.86,1.86,0,1,1-1.88-1.84h0A1.85,1.85,0,0,1,89.69,107.27ZM81,97.2a1.84,1.84,0,0,1-1.31.55,1.86,1.86,0,1,1,1.84-1.87A1.82,1.82,0,0,1,81,97.2Zm-9.69,16.16a1.79,1.79,0,0,1-1.31.56,2,2,0,0,1-1.32-.53,1.86,1.86,0,1,1,2.64,0ZM98.15,95a1.82,1.82,0,0,1-1.31.56A2,2,0,0,1,95.52,95a1.86,1.86,0,1,1,2.63-2.62,1.84,1.84,0,0,1,0,2.62Z"/></g></g><g id="Layer_2-2" data-name="Layer 2" class="cls-4"><g id="Layer_1-2-2" data-name="Layer 1-2"><path class="cls-5" d="M155.36,172.32h-33a2.17,2.17,0,0,1-2.17-2.17V147.63a2.17,2.17,0,0,1,2.17-2.17h33a2.17,2.17,0,0,1,2.17,2.17v22.52A2.17,2.17,0,0,1,155.36,172.32Zm-33-25.52a.83.83,0,0,0-.82.83h0v22.52a.83.83,0,0,0,.82.83h33a.83.83,0,0,0,.82-.83V147.63a.83.83,0,0,0-.82-.83Z"/><path class="cls-5" d="M127.58,176.82h-6.75a.67.67,0,1,1,0-1.34h6.75a.67.67,0,0,1,0,1.34Z"/><path class="cls-5" d="M156.86,176.82H130.59a.67.67,0,1,1,0-1.34h26.27a.67.67,0,1,1,0,1.34Z"/><path class="cls-5" d="M129.08,178.33a2.18,2.18,0,1,1,2.18-2.18,2.19,2.19,0,0,1-2.18,2.18Zm0-3a.82.82,0,0,0-.75.9.83.83,0,0,0,.75.76.85.85,0,0,0,.91-.76.83.83,0,0,0-.76-.9A.38.38,0,0,0,129.08,175.33Z"/><path class="cls-5" d="M138.84,162c-2.72,0-4.78-2.5-4.78-5.79a4.78,4.78,0,0,1,9.56,0C143.62,159.45,141.56,162,138.84,162Zm0-9.08a3.29,3.29,0,0,0-3.29,3.29c0,2.49,1.38,4.29,3.29,4.29s3.29-1.8,3.29-4.29a3.3,3.3,0,0,0-3.28-3.32h0Z"/><path class="cls-5" d="M147.65,171.38h-1.49v-5.85a1.25,1.25,0,0,0-.74-1.15,16.12,16.12,0,0,0-6.53-1.35,16.62,16.62,0,0,0-6.63,1.35,1.28,1.28,0,0,0-.74,1.16v5.83H130v-5.82a2.75,2.75,0,0,1,1.64-2.52,17.92,17.92,0,0,1,7.22-1.45A17.2,17.2,0,0,1,146,163a2.76,2.76,0,0,1,1.62,2.51Z"/></g></g><g id="Layer_2-3" data-name="Layer 2" class="cls-4"><g id="Layer_1-2-3" data-name="Layer 1-2"><path id="Path_115" data-name="Path 115" class="cls-5" d="M152.17,96.68,142,85.52a1.37,1.37,0,0,0-1-.46H126.51a1.5,1.5,0,0,0-1.42,1.51v32.79a1.51,1.51,0,0,0,1.42,1.51h24.66a1.46,1.46,0,0,0,1.42-1.5h0V97.71A1.45,1.45,0,0,0,152.17,96.68Zm-10-8.44,7.4,8.1h-7.4Zm-15.44,30.9V86.79h13.79V97.18a.86.86,0,0,0,.82.86h9.59v21.1Z"/></g></g><g id="Layer_2-4" data-name="Layer 2" class="cls-4"><g id="Layer_1-2-4" data-name="Layer 1-2"><path class="cls-5" d="M271.64,113.61H238a2.22,2.22,0,0,1-2.22-2.22h0v-23A2.21,2.21,0,0,1,238,86.2h33.69a2.21,2.21,0,0,1,2.21,2.22v23A2.23,2.23,0,0,1,271.64,113.61ZM238,87.57a.83.83,0,0,0-.85.83v23a.85.85,0,0,0,.85.85h33.69a.85.85,0,0,0,.84-.85v-23a.83.83,0,0,0-.83-.85H238Z"/><path class="cls-5" d="M243.31,118.2h-6.9a.68.68,0,0,1-.68-.69.67.67,0,0,1,.68-.68h6.9a.68.68,0,0,1,.68.68A.69.69,0,0,1,243.31,118.2Z"/><path class="cls-5" d="M273.17,118.2h-26.8a.69.69,0,0,1-.69-.69.68.68,0,0,1,.69-.68h26.8a.67.67,0,0,1,.68.68A.68.68,0,0,1,273.17,118.2Z"/><path class="cls-5" d="M244.83,119.73a2.22,2.22,0,1,1,2.22-2.22,2.22,2.22,0,0,1-2.22,2.22Zm0-3.06a.85.85,0,1,0,.16,0A.43.43,0,0,0,244.83,116.67Z"/><path class="cls-5" d="M250.58,103.9v-8a.84.84,0,0,1,.76-.9.9.9,0,0,1,.46.09l6.76,4a1,1,0,0,1,.28,1.34,1.07,1.07,0,0,1-.28.28l-6.76,4a.83.83,0,0,1-1.12-.35A.79.79,0,0,1,250.58,103.9Z"/></g></g><g id="Layer_2-5" data-name="Layer 2" class="cls-4"><g id="Layer_1-2-5" data-name="Layer 1-2"><path class="cls-5" d="M197.35,142.9a19,19,0,1,0,19,19A19,19,0,0,0,197.35,142.9ZM212,171.54l-12.5-8.24h15.33A17.27,17.27,0,0,1,212,171.54Zm1.72-16H198l0-4.22h13.43A18.16,18.16,0,0,1,213.76,155.56Zm-15.86,6.33,0-4.92h16.29a17.48,17.48,0,0,1,.71,4.92Zm12.33-11.95H198l.05-5.63A17.52,17.52,0,0,1,210.23,149.94Zm-12.88,29.54a17.59,17.59,0,0,1-.7-35.17l-.17,18.29v.21a.61.61,0,0,0,.05.12l.07.11a.94.94,0,0,0,.1.1l.06.05,14.41,9.51A17.6,17.6,0,0,1,197.35,179.48Z"/></g></g><g id="Layer_2-6" data-name="Layer 2" class="cls-4"><g id="Layer_1-2-6" data-name="Layer 1-2"><path id="Path_134" data-name="Path 134" class="cls-5" d="M206.49,85.73H186.15A3.31,3.31,0,0,0,182.86,89v28.54a3.31,3.31,0,0,0,3.3,3.29H206.5a3.31,3.31,0,0,0,3.29-3.31V89A3.32,3.32,0,0,0,206.49,85.73Zm1.67,31.85a1.65,1.65,0,0,1-1.66,1.65H186.15a1.66,1.66,0,0,1-1.64-1.65V89a1.65,1.65,0,0,1,1.65-1.65H206.5A1.67,1.67,0,0,1,208.16,89Z"/><path id="Path_135" data-name="Path 135" class="cls-5" d="M204.08,92.66H188.56a.74.74,0,0,0-.31,1.44.81.81,0,0,0,.31,0h15.52a.74.74,0,0,0,.31-1.44A.81.81,0,0,0,204.08,92.66Z"/><path id="Path_136" data-name="Path 136" class="cls-5" d="M204.08,98H188.56a.72.72,0,0,0-.31,1.41.81.81,0,0,0,.31,0h15.52a.72.72,0,0,0,.31-1.41A.81.81,0,0,0,204.08,98Z"/><path id="Path_137" data-name="Path 137" class="cls-5" d="M204.08,103.24H188.56a.72.72,0,0,0-.32,1.41.58.58,0,0,0,.32,0h15.52a.71.71,0,0,0,.86-.54.72.72,0,0,0-.54-.87A.58.58,0,0,0,204.08,103.24Z"/><path id="Path_138" data-name="Path 138" class="cls-5" d="M204.08,108.53H188.56a.73.73,0,0,0-.86.55.72.72,0,0,0,.54.86.86.86,0,0,0,.32,0h15.52a.71.71,0,0,0,.86-.54.72.72,0,0,0-.54-.87A.86.86,0,0,0,204.08,108.53Z"/></g></g><rect class="cls-6" x="195.3" y="92.9" width="22.65" height="26.56" rx="11.21"/><g id="Layer_2-7" data-name="Layer 2" class="cls-7"><g id="Layer_1-2-7" data-name="Layer 1-2"><path class="cls-5" d="M81.65,148.81h-6.5a3.64,3.64,0,0,1-3.65-3.65v-1a1.75,1.75,0,0,1,1.74-1.75H83.56a1.75,1.75,0,0,1,1.74,1.75v1a3.64,3.64,0,0,1-3.65,3.65Zm-8.41-5.05a.4.4,0,0,0-.39.4v1a2.3,2.3,0,0,0,2.3,2.3h6.5a2.3,2.3,0,0,0,2.3-2.3v-1a.4.4,0,0,0-.39-.4Z"/><path class="cls-5" d="M71.76,158.71a2.76,2.76,0,1,1,2.76-2.77,2.76,2.76,0,0,1-2.76,2.77Zm0-4.16A1.41,1.41,0,1,0,73.17,156v0a1.4,1.4,0,0,0-1.41-1.35Z"/><path class="cls-5" d="M87.36,156.62h-10a.68.68,0,0,1,0-1.36h10a.68.68,0,1,1,0,1.36Z"/><path class="cls-5" d="M71.76,165.83a2.76,2.76,0,1,1,2.76-2.76,2.77,2.77,0,0,1-2.76,2.76Zm0-4.17a1.41,1.41,0,1,0,1.41,1.41h0A1.41,1.41,0,0,0,71.76,161.66Z"/><path class="cls-5" d="M87.36,163.75h-10a.68.68,0,0,1,0-1.36h10a.68.68,0,1,1,0,1.36Z"/><path class="cls-5" d="M71.76,172.94a2.76,2.76,0,1,1,2.76-2.76h0a2.76,2.76,0,0,1-2.75,2.76Zm0-4.16a1.41,1.41,0,1,0,1.41,1.4h0a1.41,1.41,0,0,0-1.41-1.39Z"/><path class="cls-5" d="M87.36,170.86h-10a.68.68,0,0,1,0-1.35h10a.68.68,0,1,1,0,1.35Z"/><path class="cls-5" d="M86.9,178.19H69.78a5,5,0,0,1-5-5.1V148.88a5,5,0,0,1,4.94-5.12h2.41v1.36H69.78a3.68,3.68,0,0,0-3.61,3.75h0v24.21a3.68,3.68,0,0,0,3.61,3.74H86.9a3.66,3.66,0,0,0,3.62-3.74h0V148.88a3.67,3.67,0,0,0-3.59-3.76h-2.3v-1.36H86.9a5,5,0,0,1,5,5.08v24.25a5,5,0,0,1-5,5.1Z"/></g></g><g id="Layer_2-8" data-name="Layer 2" class="cls-7"><g id="Layer_1-2-8" data-name="Layer 1-2"><path class="cls-5" d="M260.88,148.81h-6.5a3.64,3.64,0,0,1-3.65-3.65v-1a1.75,1.75,0,0,1,1.74-1.75h10.32a1.75,1.75,0,0,1,1.74,1.75v1a3.64,3.64,0,0,1-3.65,3.65Zm-8.41-5.05a.39.39,0,0,0-.39.4v1a2.3,2.3,0,0,0,2.3,2.3h6.5a2.3,2.3,0,0,0,2.3-2.3v-1a.4.4,0,0,0-.39-.4Z"/><path class="cls-5" d="M251,158.71a2.76,2.76,0,1,1,2.76-2.77,2.75,2.75,0,0,1-2.76,2.77Zm0-4.16A1.41,1.41,0,1,0,252.4,156v0a1.4,1.4,0,0,0-1.41-1.35Z"/><path class="cls-5" d="M266.59,156.62h-10a.68.68,0,0,1,0-1.36h10a.68.68,0,0,1,0,1.36Z"/><path class="cls-5" d="M251,165.83a2.76,2.76,0,1,1,2.76-2.76,2.76,2.76,0,0,1-2.76,2.76Zm0-4.17a1.41,1.41,0,1,0,1.41,1.41h0A1.41,1.41,0,0,0,251,161.66Z"/><path class="cls-5" d="M266.59,163.75h-10a.68.68,0,0,1,0-1.36h10a.68.68,0,0,1,0,1.36Z"/><path class="cls-5" d="M251,172.94a2.76,2.76,0,1,1,2.76-2.76h0a2.76,2.76,0,0,1-2.75,2.76Zm0-4.16a1.41,1.41,0,1,0,1.41,1.4h0a1.41,1.41,0,0,0-1.41-1.39Z"/><path class="cls-5" d="M266.59,170.86h-10a.68.68,0,0,1,0-1.35h10a.68.68,0,1,1,0,1.35Z"/><path class="cls-5" d="M266.13,178.19H249a5,5,0,0,1-5-5.1V148.88a5,5,0,0,1,4.94-5.12h2.41v1.36H249a3.68,3.68,0,0,0-3.61,3.75h0v24.21a3.68,3.68,0,0,0,3.61,3.74h17.12a3.66,3.66,0,0,0,3.62-3.74h0V148.88a3.68,3.68,0,0,0-3.59-3.76h-2.31v-1.36h2.28a5,5,0,0,1,5,5.08v24.25a5,5,0,0,1-5,5.1Z"/></g></g><polygon class="cls-5" points="78.28 225.2 119.5 230.23 86.96 242.79 63.4 234 60.63 229.22 62.05 222.38 77.41 223.62 78.28 225.2"/><path class="cls-8" d="M73.84,253.86H54.63c-2.55,0-5.9-2.39-5.9-5.08h0c0-2.7,3.35-4.68,5.9-4.68H73.84Z"/><path class="cls-5" d="M67.66,242.54l2.7,12.21,46.48-8.85a8.68,8.68,0,0,0,6.06-10.67h0a8.68,8.68,0,0,0-10.49-6.37Z"/><path class="cls-9" d="M75.54,254.25H94.75c2.55,0,5.9-2.39,5.9-5.09h0c0-2.7-3.35-4.67-5.9-4.67H75.54Z"/><path class="cls-10" d="M99.27,254.66l3.24-12.08L56.75,228.89a8.72,8.72,0,0,0-10.38,6.66h0a8.72,8.72,0,0,0,6.44,10.51Z"/><path class="cls-10" d="M45.46,223.62l17.94.86,1,7.1L53,246.07S39.89,243.7,45.46,223.62Z"/><path class="cls-8" d="M72.67,193.91c.13,4.34.58,11.34,3.06,15.16,6.55,10.11,17.93,17.11,17.93,17.11L99.87,220s-7.43-4.62-13.82-15.18c-3-4.9.21-15.6-2.09-21.45-1.77-4.48-7.5-5.32-9.44-2.06C73.08,183.7,72.51,188.37,72.67,193.91Z"/><path class="cls-8" d="M68.19,175.35l12.31,4.42c.4.14.84.4.84.83,0,3.28-.48,17.31-1.59,24.53a183.44,183.44,0,0,0-1.47,20.07l-32.82-1.58,2.73-42.9S61.72,174.85,68.19,175.35Z"/><path class="cls-11" d="M63.31,176.8c2.32,4.27,6.24,1.65,6.24,1.65l1.62-6.15-6.24-1.65Z"/><path class="cls-12" d="M76.58,145.91c-5-1.36-10.54,2.77-12.91,9.38a1.8,1.8,0,0,0-1.06-.4c-1.34,0-2.52,1.45-2.63,3.32s.9,3.42,2.25,3.46a.37.37,0,0,0,.11,0c-.38,5.34,1.44,9.7,6.9,11.19,7.55,2.06,11.34-3.38,13.37-10.82S81.94,147.37,76.58,145.91Z"/><path class="cls-12" d="M65.44,226.89s2.87,2.25,5.36,2.25H84.29s.8-3.8-7.86-4.68-7.76-2.77-7.76-2.77Z"/><path class="cls-9" d="M44,195.1c.13,4.34.58,11.34,3.05,15.16C53.58,220.37,65,227.37,65,227.37l6.21-6.21S63.74,216.54,57.35,206c-3-4.9.21-15.6-2.09-21.45-1.77-4.48-7.5-5.32-9.44-2.06C44.37,184.89,43.8,189.56,44,195.1Z"/><rect class="cls-13" x="63.4" y="229.14" width="55.67" height="2.96" transform="translate(182.47 461.24) rotate(-180)"/><polygon class="cls-14" points="77.2 229.14 119.09 229.14 128.01 201.53 86.12 201.53 77.2 229.14"/><path class="cls-15" d="M85.23,153.64c1,5.39-1.74,1.4-1.74,1.4l.48,1.11c.87,3.49-4.26-1.84-4.26-1.84s.6,3.65-1.57,2.56c-2.38-1.18-2.6-4.54-5.11-5s-6.69,2-6.69,2l-1.45,4.31-1.22-3a2,2,0,0,0-2-.14s-1.63-8.25,2.74-7.6c0,0,5.1-3.46,9.71-2.39S84,146.9,85.23,153.64Z"/><line class="cls-16" x1="206.41" y1="92.7" x2="206.41" y2="119.65"/><line class="cls-17" x1="194.3" y1="105.42" x2="197.48" y2="105.42"/><path class="cls-18" d="M254.54,248.74s-14.63,1.86-13.69,4.15,18.75,2.42,19.24.8a20,20,0,0,0,.35-4.87Z"/><path class="cls-19" d="M280.11,248.18s-11.67,1.95-10.72,4.24,15.78,2.32,16.27.71-.14-5.92-.14-5.92Z"/><path class="cls-19" d="M253.75,175.32h23.43l4.17-27.84c.6-3.3.37-6.13-5.14-8.33L271,136.88l-4.92-.53a47.17,47.17,0,0,0-9.62,2.06c-1.61,1.15-1.16,4.34-2,6.12l-2.34,4.77a7.43,7.43,0,0,0-.24,5.13l2.31,5.86Z"/><path class="cls-20" d="M274.88,136.55c-2.25,4.19-6.1,1.63-6.1,1.63l-1.61-6,5.83-2.95Z"/><path class="cls-15" d="M267.76,106.39c5.07.24,8.93,5.06,9.14,11.93a1.88,1.88,0,0,1,1.1,0c1.27.38,1.92,2.12,1.45,3.89s-1.88,2.92-3.15,2.54l-.1,0c-2.22,4.63-5.59,8.47-10.64,8.25-5.37-.23-8-6.45-8.34-14S262.33,106.12,267.76,106.39Z"/><path class="cls-21" d="M269.79,142.71c-10.56-1.26-5.12-18.18-5.12-18.18.7,0,2.52-.51,2.5-3.6s-2.88-1.87-2.88-1.87c-6.41-2.32-4.11-10.76-4.11-10.76s6.11-5,16.32-.81c0,0,4.77,2.05,4.63,5.5,0,0,1.31,11,0,15s11.14,7.95,4.53,16.1a14.75,14.75,0,0,1-15.81,5S277.52,143.62,269.79,142.71Z"/><path class="cls-22" d="M216.22,145.39c6.72,5.62,11.68,8.15,14.68,9.28a8.85,8.85,0,0,0,5.75.18l14-4.32-2.77-7.48-12,4.73a4.11,4.11,0,0,1-.46.15,6.07,6.07,0,0,1-4.14-.25,47.69,47.69,0,0,1-10.65-6.86s-.14-4.46-2.11-5.78-4.55-2.23-7.14-.39S206.43,142.15,216.22,145.39Z"/><path class="cls-18" d="M246.33,142.69l4.84,11.13,9.3-4.68a7.66,7.66,0,0,0,4.34-6.15,4.36,4.36,0,0,0-3-4.67,7.67,7.67,0,0,0-6,.2Z"/><path class="cls-5" d="M261.55,175.36c2.94,16.4,16.29,72.81,17.21,73.12,3.79,1.25,7.35-1.35,7.35-1.35s-4.1-35-3.21-50.77a32.48,32.48,0,0,0-5.72-20.94Z"/><path class="cls-10" d="M253.75,175.32c-.22,17-.63,72.55.16,73.25,3.17,2.8,10.35-.11,10.35-.11S263.83,224.6,270,204c1.88-6.27,5-12.65,3.93-19.16s-2.49-8.84-2.72-9.45Z"/><ellipse class="cls-23" cx="206.59" cy="106.38" rx="11.22" ry="13.89" transform="translate(-14.76 35.67) rotate(-9.53)"/><path class="cls-5" d="M211.49,121.07h3.82a0,0,0,0,1,0,0v15.79a1.91,1.91,0,0,1-1.91,1.91h0a1.91,1.91,0,0,1-1.91-1.91V121.07A0,0,0,0,1,211.49,121.07Z" transform="translate(-27.7 64.42) rotate(-16.14)"/><path class="cls-5" d="M220,102c-2.58-8.9-10.74-14.36-18.23-12.19s-11.48,11.14-8.91,20,10.74,14.37,18.23,12.2S222.59,110.88,220,102Zm-10,16.27c-5.74,1.66-12-2.52-14-9.34s1.08-13.69,6.82-15.35,12,2.53,14,9.34S215.76,116.58,210,118.24Z"/><path class="cls-24" d="M212.07,99.72s2.21,2.41,2.51,8.29"/></svg>