<svg id="Layer_1" data-name="Layer 1" xmlns="http://www.w3.org/2000/svg" xmlns:xlink="http://www.w3.org/1999/xlink" viewBox="0 0 339.65 243.9"><defs><style>.cls-1,.cls-2,.cls-3{opacity:0.8;}.cls-1{fill:url(#linear-gradient);}.cls-2{fill:url(#linear-gradient-2);}.cls-3{fill:url(#linear-gradient-3);}.cls-4,.cls-5,.cls-6{stroke:#2a4788;stroke-width:4px;}.cls-21,.cls-4,.cls-5,.cls-6{stroke-miterlimit:10;}.cls-4{fill:url(#linear-gradient-4);}.cls-5{fill:url(#linear-gradient-5);}.cls-6{fill:url(#linear-gradient-6);}.cls-7{fill:#e6faff;opacity:0.9;}.cls-8{fill:#73d7ff;}.cls-9{fill:#ffd3ab;}.cls-10{fill:#50b1e2;}.cls-11{fill:#268ecd;}.cls-12{fill:#2a4788;}.cls-13{fill:#365791;}.cls-14{fill:#7a4022;}.cls-15{fill:#e867ef;}.cls-16{fill:#ffc392;}.cls-17{fill:#f6b6ff;}.cls-18{fill:#db41df;}.cls-19{fill:#682a17;}.cls-20{fill:#3a3331;}.cls-21{fill:none;stroke:#73d7ff;stroke-linecap:round;stroke-width:3px;}.cls-22{fill:#fff;}</style><linearGradient id="linear-gradient" x1="-426.55" y1="-92.71" x2="-248.04" y2="-92.71" gradientTransform="translate(403.64 -85.14) rotate(-45)" gradientUnits="userSpaceOnUse"><stop offset="0" stop-color="#fffed2"/><stop offset="1" stop-color="#d7f9ff"/></linearGradient><linearGradient id="linear-gradient-2" x1="-1441.43" y1="-23.19" x2="-1267.66" y2="-23.19" gradientTransform="matrix(-0.71, 0.71, 0.71, 0.71, -729.61, 1063.7)" xlink:href="#linear-gradient"/><linearGradient id="linear-gradient-3" x1="-1425.15" y1="53.08" x2="-1298.93" y2="53.08" gradientTransform="matrix(-0.71, 0.71, 0.71, 0.71, -729.61, 1063.7)" xlink:href="#linear-gradient"/><linearGradient id="linear-gradient-4" x1="19.81" y1="32.96" x2="172.7" y2="32.96" gradientUnits="userSpaceOnUse"><stop offset="0" stop-color="#e6faff"/><stop offset="1" stop-color="#73d7ff"/></linearGradient><linearGradient id="linear-gradient-5" x1="51.64" y1="71.25" x2="140.88" y2="71.25" xlink:href="#linear-gradient-4"/><linearGradient id="linear-gradient-6" x1="79.7" y1="117.37" x2="112.82" y2="117.37" xlink:href="#linear-gradient-4"/></defs><path class="cls-1" d="M120,10.46l-75,75A20.12,20.12,0,0,0,45,114h0a20.12,20.12,0,0,0,28.46,0L50.7,136.69a20.12,20.12,0,0,0,0,28.46h0a20.13,20.13,0,0,0,28.47,0l75-75a20.12,20.12,0,0,0,0-28.46h0a20.12,20.12,0,0,0-28.46,0l22.73-22.74a20.13,20.13,0,0,0,0-28.47h0A20.12,20.12,0,0,0,120,10.46Z"/><path class="cls-2" d="M136.13,108.24l75-75a20.13,20.13,0,0,1,28.47,0h0a20.12,20.12,0,0,1,0,28.46L259,42.29a20.13,20.13,0,0,1,28.47,0h0a20.12,20.12,0,0,1,0,28.46l-75,75a20.12,20.12,0,0,1-28.46,0h0a20.12,20.12,0,0,1,0-28.46L164.6,136.7a20.13,20.13,0,0,1-28.47,0h0A20.12,20.12,0,0,1,136.13,108.24Z"/><path class="cls-3" d="M254.87,182.75,315.66,122a20.12,20.12,0,0,0,0-28.46h0a20.13,20.13,0,0,0-28.47,0L267.8,112.89l-41.4,41.4a20.12,20.12,0,0,0,0,28.46h0A20.13,20.13,0,0,0,254.87,182.75Z"/><path class="cls-4" d="M169.86,51.85a9.52,9.52,0,0,1-12.84.59,95,95,0,0,0-121.54,0,9.51,9.51,0,0,1-12.83-.59h0A9.61,9.61,0,0,1,23.2,37.7a114.21,114.21,0,0,1,146.11,0,9.61,9.61,0,0,1,.57,14.13Z"/><path class="cls-5" d="M138,83.72a9.71,9.71,0,0,1-12.6.8,50.29,50.29,0,0,0-58.27,0,9.72,9.72,0,0,1-12.6-.81l0,0a9.5,9.5,0,0,1,.83-14.31,69.5,69.5,0,0,1,81.87,0A9.5,9.5,0,0,1,138,83.69Z"/><path class="cls-6" d="M96.26,133.93a16.23,16.23,0,0,1-11.72-4.86,16.57,16.57,0,0,1,0-23.42,16.57,16.57,0,1,1,11.72,28.28Z"/><ellipse class="cls-7" cx="169.34" cy="221.76" rx="164.64" ry="16.21"/><path class="cls-8" d="M203.07,37h25.86l10.29,14.88L235.78,37h3.85a3.62,3.62,0,0,0,3.62-3.62V16a3.62,3.62,0,0,0-3.62-3.62H203.07A3.62,3.62,0,0,0,199.45,16V33.35A3.62,3.62,0,0,0,203.07,37Z"/><path class="cls-9" d="M216.32,117.41a10.51,10.51,0,0,0-5.7-1.88l-4.19-.23c-11.74,0-20.19-11.8-26-18.18a4.08,4.08,0,0,0-6.07.31h0c-1.37,1.86.15,4.65,2.31,7,6.28,6.89,12.34,16.72,31.76,16l1.31,2.35"/><path class="cls-10" d="M239.65,211.42s-14.14,2.88-12.51,5.1,20.14,1.08,20.43-.58a14.42,14.42,0,0,0-.45-4.51Z"/><path class="cls-11" d="M265.49,211.43s-14.08,3.19-12.4,5.38,20.16.64,20.41-1a14.27,14.27,0,0,0-.55-4.51Z"/><path class="cls-12" d="M239.74,137.27c-2.79,15.25-1.34,73.88-.59,74.25,3.76,1.86,13.27-.68,13.27-.68s-.37-33.38,3.76-47.7c1.59-5.49,8.13-27.36,7.45-29.78Z"/><path class="cls-13" d="M248.29,137.73c2.59,13.79,14,73.91,15,74.16a21.15,21.15,0,0,0,13.56-1.19s-6.12-34.11-3.74-49.48c.88-5.66-1.06-19.83-1.11-22.34Z"/><path class="cls-14" d="M172.86,64.58S157.06,61,157.8,81.81c0,0,1.08,6-1.09,7.53-1.93,1.39-4.61,2-3.73,4.26s3.8,2.3,1.62,3.61c-2.42,1.44-4.13,6,4.55,6.92l26.66-2.79s4.64-2.13,1.09-4.07c-2.51-1.37.1-.81-.14-3-.2-2-4.34-1.53-2.86-4.06,0,0,2.36-2.58-.9-4.55Z"/><path class="cls-15" d="M181.82,211.07s15.17,3.11,13.41,5.5S175.29,217.73,175,216s1.2-5.74,1.2-5.74Z"/><path class="cls-16" d="M176.19,210.21c1.11,2.28,5.64.85,5.64.85l7-37.62c.09-.56-.38-5.54-1-5.55l-12.71-.32s2.88,16.35,1.37,22C174.92,195.47,176.19,210.21,176.19,210.21Z"/><path class="cls-17" d="M165.18,211.16s15.1,3.43,13.29,5.78-21.27.62-21.54-1.16,1.63-5.57,1.63-5.57Z"/><path class="cls-9" d="M158.56,210.21c1.11,2.28,5.63.85,5.63.85l8.07-43.12L159,173.44s1.44,10.48-.07,16.1C157.29,195.47,158.56,210.21,158.56,210.21Z"/><path class="cls-18" d="M187.21,134.79H163.78l-5.05-27.27c-.63-3.53-.39-6.56,5.5-8.91l6.83-2.5,3.63-.21,9,3.2c1.72,1.23,2.85,3.36,3.78,5.26l2.5,5.11a7.89,7.89,0,0,1,.26,5.48l-2.47,6.27Z"/><path class="cls-16" d="M170.87,97.3c3.17,4,6.73.55,6.73.55l.54-6.64-6.64-1Z"/><path class="cls-9" d="M172.86,64.58c-5.4.51-9.31,6.61-9.19,14a2,2,0,0,0-1.18,0c-1.34.46-2,2.35-1.36,4.23s2.15,3,3.49,2.56l.1,0c2.6,4.84,6.39,8.77,11.77,8.29,5.73-.51,8.22-7.29,8.22-15.42S178.65,64,172.86,64.58Z"/><path class="cls-12" d="M187.21,134.79H163.78s-6.89,8.08-6.16,21.83c.47,9,1.33,16.82,1.33,16.82h29.86S192.8,154.63,187.21,134.79Z"/><path class="cls-9" d="M162.6,140.61c-3.11-11.32.36-26.82,2.46-34.37.73-2.62-.08-5.07-1.9-5.77h0c-2.16-.83-4.87,1.33-5.57,4.46-2,9-4.84,26.28-1.36,40.45l.08.44c2.81,9.77,5.62,13.16,8.51,11,3.13-2.3.27-11-.19-12.3,0-.07,0-.18.1-.18.71,0,3.31,2,4,.88.56-.94-1.27-2.82-2.63-3.55a8.42,8.42,0,0,0-3.41-1h0S162.61,140.65,162.6,140.61Z"/><path class="cls-14" d="M182.84,70.75a4.09,4.09,0,0,0-3.39-1.29,5.67,5.67,0,0,0-4,1.64c-2.49,3-2.83,14.5-11.75,7.43a1.89,1.89,0,0,0-2,.54s-1.53-12.31,8.79-14.53c1.81-.39,6.22.19,7.4,1a5.92,5.92,0,0,1,.52.42s4.64.66,4.61,4.15Z"/><path class="cls-11" d="M253.33,87a22.35,22.35,0,0,0-11,5.44c-2.34,2.35-3,5.19-3.58,8.11-.64,3.39-.65,8.75-.17,17.47.44,8.11.89,21,.89,21H272l-.17-28.49c0-1.34-.15-13.79-4.69-17.66A28.54,28.54,0,0,0,253.33,87Z"/><path class="cls-19" d="M258.5,88.34c-3.13,4-6.74.63-6.74.63l-.62-6.65,6.74-.62Z"/><path class="cls-14" d="M254.29,55.35c5.44-.05,10,5.63,10.6,13a2,2,0,0,1,1.18-.12c1.38.32,2.18,2.15,1.78,4.08s-1.83,3.23-3.21,2.91l-.11,0c-1,5.52-4.06,9.46-10,9.51-8.22.07-10.6-6.48-10.67-14.57S248.46,55.39,254.29,55.35Z"/><path class="cls-14" d="M218.12,118.14l0,.07c14.29.74,30.55-12.28,30.55-12.28l4.25,6.84s-17.21,12.59-35.4,12.22l-.38,0c-5.59.08-8,.7-9.24-2.16-1.43-3.31,6.36-5.66,6.36-5.66S216.82,116.32,218.12,118.14Z"/><path class="cls-10" d="M263.14,109.58c1.87-1.27,3.86-3.1,4.36-5.08s.43-4.8-1.64-6.43a7,7,0,0,0-8.68.07S238.4,117,219.6,117.63l1.75,9.43S237.59,127,263.14,109.58Z"/><path class="cls-20" d="M244.81,63.73c2.51-3.85,4.11-4.2,4.11-4.2,4.36,2.53,10.17,1.1,10.17,1.1l3.55,9.44,2.25-1.75a4.63,4.63,0,0,1,.85-.16c.65-.08.21-9.31-3.23-9.58,0,0-6.61-7.85-14.53-1.17,0,0-3.29,2.16-3.23,4.24Z"/><path class="cls-9" d="M214.51,116.49a19.75,19.75,0,0,1,2.21,1.34,20.35,20.35,0,0,1,1.29,1.83.33.33,0,0,1,0,.32c-.19.37-.8,1.12-2.3-.19a4,4,0,0,0-2.33-1c-1-.07-2.1-.28-2.31-.87C210.72,116.89,214.51,116.49,214.51,116.49Z"/><path class="cls-9" d="M217.86,125.33a.59.59,0,0,0,.49-.72c-.17-.72-.56-1.82-1.37-1.85-1.21,0-5.28,1.1-5.4,2.35C211.49,126.12,216.16,125.56,217.86,125.33Z"/><line class="cls-21" x1="166.29" y1="6.76" x2="164.49" y2="15.81"/><line class="cls-21" x1="160.64" y1="10.34" x2="169.69" y2="12.13"/><path class="cls-8" d="M277.16,31.85l.75,0c1.92.12,3,1,3.32,2.54a3.12,3.12,0,0,1-.64,2.56,4,4,0,0,1-2.27,1.34l.13.76a.26.26,0,0,1-.2.29l-.88.15a.24.24,0,0,1-.29-.2l-.14-.8a4.22,4.22,0,0,1-4-2.36.23.23,0,0,1,0-.21.23.23,0,0,1,.14-.15l1.09-.46a.26.26,0,0,1,.32.11,2.54,2.54,0,0,0,2.19,1.47,5.35,5.35,0,0,0,1.39-.18,2.11,2.11,0,0,0,1.07-.63,1.43,1.43,0,0,0,.31-1.26,1,1,0,0,0-.52-.78,2.27,2.27,0,0,0-1.06-.32l-.34,0c-.7-.07-1.43-.09-1.43-.09l-.34,0a6,6,0,0,1-1.44-.27,2.72,2.72,0,0,1-1.11-.81,2.91,2.91,0,0,1-.64-1.41,2.7,2.7,0,0,1,.65-2.4A3.9,3.9,0,0,1,275,27.61l-.14-.77a.25.25,0,0,1,.21-.29l.87-.16a.25.25,0,0,1,.29.21l.14.78A3.67,3.67,0,0,1,280,29.44a.22.22,0,0,1,0,.19.24.24,0,0,1-.13.15l-1.09.55a.28.28,0,0,1-.2,0,.23.23,0,0,1-.15-.14,1.78,1.78,0,0,0-1-1,2.76,2.76,0,0,0-.75-.19,3.94,3.94,0,0,0-1.37.21,2.34,2.34,0,0,0-.66.45,1.2,1.2,0,0,0-.36,1.14c0,.21.16.86,1.48,1A12.51,12.51,0,0,0,277.16,31.85Z"/><path class="cls-8" d="M302,76c-3.13-.51-3.48-.57-8.6-7s-9.81-5.71-9.81-5.71l7-5.29s4.7-.67,9.81,5.71,5.46,6.43,8.6,6.94Z"/><ellipse class="cls-22" cx="297.06" cy="66.71" rx="3.61" ry="3.33" transform="translate(43.41 235.1) rotate(-46.24)"/><path class="cls-8" d="M308.52,108.92a18.15,18.15,0,1,0,18.15,18.15A18.17,18.17,0,0,0,308.52,108.92Zm-15.06,18.14a15,15,0,0,1,5.23-11.39,6.34,6.34,0,0,1-.53,1,6.26,6.26,0,0,0-1.14,4.61,7.13,7.13,0,0,0,1.77,4.59c.92,1.06,1.89,1.17,3.3,1.56s2.3.26,3.42,1.45a2.29,2.29,0,0,1,.34,1.69c-.12.47-.39.7-1,.91-.95.36,0,2.11,1.56,3.59,1.32,1.25,1.35,5.1-.26,6.84A15.08,15.08,0,0,1,293.46,127.06Zm15.06,15.06h-.29a16.18,16.18,0,0,1,3.21-3.21c1.4-.78,3.73-1.56,4.83-3.35s1.51-4.22-.16-4.44-2.26.78-2.88,0-.44-1.71-1.87-2.65a5.7,5.7,0,0,0-3.39-.69,4.45,4.45,0,0,0-1.26.43,4.46,4.46,0,0,0-.86-1.16c-1.11-1.08-3.84-1.86-3.72-3.07.09-.92.81-1.66,2.37-1.12s2.95-1.5,3.51-3.27,1.71-1,2.49-2.26-.62-1.48-1.87-1.4-1.63-1.86-2.18-1.32-1.2,2.11-1.95,1.25a4.47,4.47,0,0,1-1.26-2.9,14.69,14.69,0,0,1,3.7-.87,3.39,3.39,0,0,1,2.16.8c.34.34.37.74.67,1.22a1.45,1.45,0,0,0,2,.47c.67-.45.28-1.51-.6-2.33a14.81,14.81,0,0,1,5.45,2.14,3.29,3.29,0,0,1,.71,1.31c.39,1.48,1.4.62,2.64,1.79s-1,4.13-.38,6,1.4,2.88,3,3.27a2,2,0,0,0,.93,0c0,.09,0,.18,0,.27A15.08,15.08,0,0,1,308.52,142.12Z"/><line class="cls-21" x1="125.75" y1="158.32" x2="115.02" y2="161"/><line class="cls-21" x1="118.98" y1="154.04" x2="121.66" y2="164.76"/></svg>