<svg id="Layer_1" data-name="Layer 1" xmlns="http://www.w3.org/2000/svg" xmlns:xlink="http://www.w3.org/1999/xlink" viewBox="0 0 336.29 268.75"><defs><style>.cls-1{opacity:0.8;fill:url(#linear-gradient);}.cls-2{stroke:#2a4788;stroke-width:4px;fill:url(#linear-gradient-2);}.cls-19,.cls-2,.cls-5{stroke-miterlimit:10;}.cls-3{fill:#e6faff;opacity:0.9;}.cls-4{fill:#73d7ff;}.cls-19,.cls-5{fill:none;stroke:#73d7ff;stroke-linecap:round;}.cls-5{stroke-width:2px;}.cls-6{fill:#965b20;}.cls-7{fill:#ffc392;}.cls-8{fill:#c4d654;}.cls-9{fill:#2a4788;}.cls-10{fill:#365791;}.cls-11{fill:#50b1e2;}.cls-12{fill:#83d7f2;}.cls-13{fill:#ffd3ab;}.cls-14{fill:#268ecd;}.cls-15{fill:#97ba1e;}.cls-16{fill:#682a17;}.cls-17{fill:#7a4022;}.cls-18{fill:#3d302d;}.cls-19{stroke-width:3px;}.cls-20{fill:#fff;}</style><linearGradient id="linear-gradient" x1="-644.96" y1="-655.97" x2="-352.52" y2="-655.97" gradientTransform="translate(-395.45 -503.22) rotate(175.64)" gradientUnits="userSpaceOnUse"><stop offset="0" stop-color="#fbe1ff"/><stop offset="1" stop-color="#e6faff"/></linearGradient><linearGradient id="linear-gradient-2" x1="168.11" y1="92.13" x2="292.03" y2="92.13" gradientUnits="userSpaceOnUse"><stop offset="0" stop-color="#e6faff"/><stop offset="1" stop-color="#73d7ff"/></linearGradient></defs><path class="cls-1" d="M12.87,160.05a93.56,93.56,0,0,0,79.3,59.7c29.66,2.51,55.93-7.86,74.73-25.62a34.08,34.08,0,0,1,41.42-4.41,59.84,59.84,0,0,0,40.48,8.46c32.83-4.82,55.9-36.4,50.53-69.15a59.75,59.75,0,0,0-19.49-35.26,36.39,36.39,0,0,1-11.68-32.4A50,50,0,0,0,213.89,4.64,49.86,49.86,0,0,0,178.4,24.8a34.68,34.68,0,0,1-41.11,11.62A94.86,94.86,0,0,0,87.7,30.48C28.5,39.16-9.95,100.51,12.87,160.05Z"/><path class="cls-2" d="M224.15,36.79a6.44,6.44,0,0,1,11.84,0L250.2,70l36,3.26a6.44,6.44,0,0,1,3.66,11.26l-27.18,23.78,8,35.22a6.44,6.44,0,0,1-9.58,7l-31-18.5-31,18.5a6.43,6.43,0,0,1-9.57-7l8-35.22L170.31,84.51A6.44,6.44,0,0,1,174,73.25l36-3.26Z"/><ellipse class="cls-3" cx="168.09" cy="245.24" rx="164.64" ry="16.21"/><path class="cls-4" d="M92.12,74.83h27.6L135,90.47l-8-15.64h4.12A3.86,3.86,0,0,0,135,71V52.47a3.86,3.86,0,0,0-3.86-3.86h-39a3.86,3.86,0,0,0-3.87,3.86V71A3.86,3.86,0,0,0,92.12,74.83Z"/><line class="cls-5" x1="99.96" y1="108.95" x2="99.96" y2="98.24"/><line class="cls-5" x1="93" y1="111.41" x2="85.63" y2="104.14"/><line class="cls-5" x1="106.94" y1="111.44" x2="114.37" y2="104.01"/><line class="cls-5" x1="90.37" y1="117.85" x2="79.31" y2="116.21"/><line class="cls-5" x1="109.92" y1="117.85" x2="120.25" y2="116.32"/><path class="cls-6" d="M153.27,112.33s6.41.39,6,4.87-3,4.27-1.1,7.1a2.61,2.61,0,0,0,4.21.56,2.32,2.32,0,0,1-2.77,2.06s5.44,4.29-1.16,6.78S142.59,124,142.59,124Z"/><path class="cls-7" d="M105.79,129.39a2.38,2.38,0,0,0,1.07,2c4.6,3,6.11,4.09,8.24,4.79a6.77,6.77,0,0,0,4.36-.18l.42-.16,13.2-6.25a.73.73,0,0,1,1,.48l1.86,7.17a.74.74,0,0,1-.48.88L120.57,143a8.89,8.89,0,0,1-5.74-.18c-2.78-1.05-7.24-3.3-13.22-8.09a3.9,3.9,0,0,1-1.47-3V119.11a1.67,1.67,0,0,1,2.17-1.59,4.59,4.59,0,0,1,2.69,3.14C106,123.66,105.79,127.18,105.79,129.39Z"/><path class="cls-8" d="M64.82,238.74s13.79,2.82,12.2,5-19.64,1.05-19.92-.56a14.24,14.24,0,0,1,.44-4.41Z"/><path class="cls-8" d="M39.63,238.76s13.73,3.11,12.09,5.25-19.65.62-19.9-1a14.11,14.11,0,0,1,.53-4.4Z"/><path class="cls-9" d="M64.74,166.45c2.72,14.87,1.3,72,.57,72.4-3.67,1.81-12.94-.67-12.94-.67s.37-32.55-3.67-46.5c-1.55-5.36-7.92-26.68-7.26-29Z"/><path class="cls-10" d="M56.4,166.9C53.88,180.34,42.73,239,41.75,239.21a20.67,20.67,0,0,1-13.23-1.16s6-33.27,3.65-48.25c-.85-5.52,1-19.34,1.09-21.78Z"/><path class="cls-11" d="M135.45,238.41s-14.78,3-13.07,5.36,19.44,1.13,19.74-.61-1.17-5.6-1.17-5.6Z"/><path class="cls-7" d="M141,237.56c-1.09,2.23-5.5.84-5.5.84l-6.81-36.68c-.09-.55.38-5.4.93-5.42L142,196s-2.8,15.94-1.34,21.41C142.19,223.2,141,237.56,141,237.56Z"/><path class="cls-12" d="M151.68,238.49s-14.72,3.35-13,5.64,20.74.61,21-1.13-1.58-5.44-1.58-5.44Z"/><path class="cls-13" d="M158.14,237.56c-1.09,2.23-5.5.84-5.5.84l-7.86-42.05,13,5.37s-1.4,10.22.07,15.69C159.38,223.2,158.14,237.56,158.14,237.56Z"/><path class="cls-14" d="M130.2,164h22.85L158,137.44c.62-3.44.38-6.39-5.36-8.68L146,126.32l-3.54-.2-8.8,3.11a13.37,13.37,0,0,0-3.69,5.14l-2.44,5a7.7,7.7,0,0,0-.25,5.35l2.4,6.11Z"/><path class="cls-7" d="M146.13,127.48c-3.09,3.87-6.56.53-6.56.53l-.52-6.47,6.47-1,.51,5.79Z"/><path class="cls-9" d="M130.2,164h22.85s6.71,7.88,6,21.28c-.46,8.79-1.29,16.41-1.29,16.41H128.64S124.75,183.37,130.2,164Z"/><path class="cls-15" d="M51.49,117.45A46.31,46.31,0,0,1,64.31,122c2.27,2.29,2.31,5.4,2.39,8.38.1,3.36-.36,8.8-.83,17.3-.43,7.91-.87,20.46-.87,20.46H33.26l-.71-26.74c0-1.31-3-14.88,1.44-18.65C38,119.33,48.45,117.64,51.49,117.45Z"/><path class="cls-16" d="M46.44,118.75c3.06,3.91,6.58.61,6.58.61l.6-6.48-6.57-.62Z"/><path class="cls-17" d="M50.55,86.57c-5.31,0-9.72,5.5-10.33,12.65a1.93,1.93,0,0,0-1.16-.11c-1.34.31-2.12,2.09-1.73,4s1.78,3.15,3.13,2.84l.1,0c1,5.38,4,9.23,9.75,9.27,8,.07,10.35-6.31,10.41-14.2S56.23,86.62,50.55,86.57Z"/><path class="cls-13" d="M156.65,165.94a5.77,5.77,0,0,0,2.57-1.91c4.45-6.52,9.34-11.6,9.95-14.57a5.93,5.93,0,0,0-.58-3.52,14.51,14.51,0,0,0-2.16-3.47l-8-9.84c-1.41-1.83-3.37-2.81-5.39-1.92h0a4,4,0,0,0-1.18,6.75l7.17,6.88a11,11,0,0,1,1.34,1.55l0,0a6.74,6.74,0,0,1,1,2,3,3,0,0,1-.45,2.61,36.1,36.1,0,0,1-5.92,9.12,4.34,4.34,0,0,1-2,.84s-11.49,2.29-9.2,6.79C144.94,169.44,150.77,168.65,156.65,165.94Z"/><path class="cls-7" d="M151.28,128.27s-5.82,4.6-10.32,4.72c-5.22.14-5-4.6-5-4.6l3.73-1.34,3.88-.93,2.44.19Z"/><path class="cls-17" d="M32.57,171.93c-4.71-12.5,3-33.28,3-33.28l-7.93-.41s-6.45,20.08-1,36.14l.09.34c3.06,7.89,5.86,10.94,8.51,9.83,3.11-1.3-.75-9.48-.75-9.48s3.49.69,3.79-.37c.24-.86-1.14-1.6-2.43-2.08a11.84,11.84,0,0,0-3.29-.69Z"/><path class="cls-8" d="M26.25,138.34l13,3.42,2.39-12.38a6.36,6.36,0,0,0-2.91-6.6c-1.56-.94-3.64-1.25-6.18.44a8.75,8.75,0,0,0-3.62,5.34Z"/><path class="cls-18" d="M38.59,99.29a1.9,1.9,0,0,1,1.63-.07l2.62,2.13,1.45-9.24s8.31-4.75,13.37-1.47c0,0-2.29-5.42-10.39-4.44,0,0-9.51.57-8.9,11.16Z"/><path class="cls-16" d="M94.5,129.36a2.46,2.46,0,0,1-1.09,2c-4.58,3-6.1,4.08-8.22,4.77a5.82,5.82,0,0,1-3.91-.06l-1.43-.64-10.57-7.14c-.41-.2-3,1.29-3.1,1.73l-1.85,7.18c-.1.37.25-.26.61-.14l14.78,5.84a8.83,8.83,0,0,0,5.74-.18c2.78-1,7.24-3.29,13.22-8.09a3.87,3.87,0,0,0,1.46-3V119.1A1.65,1.65,0,0,0,98,117.51a4.58,4.58,0,0,0-2.7,3.13C94.29,123.64,94.49,127.15,94.5,129.36Z"/><path class="cls-15" d="M68.07,141.76l7.22-11.36-9.44-7.29c-.23-.15-1.29-1-1.54-1.1-2.37-.78-4.69.77-6.46,2.62-1.25,1.32-2,3.28-.92,6.13.84,2.18,1.37,4,3.52,5.15Z"/><path class="cls-13" d="M144.2,95.57c5.26.5,9.07,6.45,9,13.61a1.88,1.88,0,0,1,1.15,0c1.3.45,1.89,2.29,1.32,4.12s-2.1,3-3.4,2.5a.93.93,0,0,1-.1,0c-2.54,4.72-6.23,8.55-11.47,8.08-5.59-.5-8-7.1-8-15S138.55,95,144.2,95.57Z"/><path class="cls-6" d="M155,109.58a1.92,1.92,0,0,0-1.81-.4l-2.06,2.9a83.92,83.92,0,0,0-.83-9A5.23,5.23,0,0,0,148,99.75c-7.59,1-11.35-1.12-11.35-1.12a14.9,14.9,0,0,0-2.67,3.84c-.11-1.41-.5-5.75,4.16-6.65,0,0,9.43-6.21,15.25,1.55,0,0,4.3,4.57,2.42,9.82Z"/><line class="cls-19" x1="184.87" y1="38.1" x2="183.08" y2="47.15"/><line class="cls-19" x1="179.23" y1="41.69" x2="188.28" y2="43.48"/><path class="cls-4" d="M61,55.33l.74,0c1.93.11,3.05,1,3.33,2.54a3.12,3.12,0,0,1-.64,2.55,4,4,0,0,1-2.28,1.35l.14.75a.27.27,0,0,1-.21.3l-.87.15a.24.24,0,0,1-.29-.2l-.15-.8a4.23,4.23,0,0,1-4-2.37.27.27,0,0,1,0-.2.25.25,0,0,1,.15-.15L58,58.82a.25.25,0,0,1,.32.12,2.53,2.53,0,0,0,2.19,1.46,5.06,5.06,0,0,0,1.38-.17A2.1,2.1,0,0,0,63,59.6a1.44,1.44,0,0,0,.31-1.26,1.06,1.06,0,0,0-.52-.79,2.57,2.57,0,0,0-1.06-.32l-.34,0c-.7-.07-1.43-.09-1.43-.09l-.34,0a5.43,5.43,0,0,1-1.44-.27A2.54,2.54,0,0,1,57,56a3,3,0,0,1-.65-1.41A2.75,2.75,0,0,1,57,52.2a3.92,3.92,0,0,1,1.81-1.11l-.14-.77a.26.26,0,0,1,.2-.3l.88-.15a.25.25,0,0,1,.29.2l.14.78a3.71,3.71,0,0,1,3.61,2.06.27.27,0,0,1,0,.2.22.22,0,0,1-.13.15l-1.08.55a.28.28,0,0,1-.2,0,.29.29,0,0,1-.15-.14,1.78,1.78,0,0,0-1-1,3,3,0,0,0-.75-.19,3.7,3.7,0,0,0-1.37.21,2.32,2.32,0,0,0-.67.45,1.18,1.18,0,0,0-.35,1.13c0,.22.15.87,1.47,1C59.57,55.24,60.47,55.34,61,55.33Z"/><path class="cls-4" d="M305.8,147.23c-3.14-.51-3.49-.57-8.6-6.95s-9.81-5.7-9.81-5.7l7-5.3s4.7-.67,9.81,5.71,5.46,6.43,8.6,6.94Z"/><ellipse class="cls-20" cx="300.9" cy="137.96" rx="3.61" ry="3.33" transform="translate(-6.87 259.84) rotate(-46.24)"/><path class="cls-4" d="M249.85,24.45h0l-2.66.46a.42.42,0,0,1-.32-.1L242.8,20.9c-.61-.57-1.26-1.15-1.94-1.72a.41.41,0,0,1-.13-.23l-.2-1.2a.35.35,0,0,1,.07-.28.33.33,0,0,1,.25-.15l.3,0c1.3-.22,3.51-.94,4-1.57a2.74,2.74,0,0,0,.58-1.42l-5.54.94a.38.38,0,0,1-.35-.13.36.36,0,0,1-.06-.37l.84-2.18a.38.38,0,0,1,.29-.23l4-.68a2.49,2.49,0,0,0-.31-.23,6.17,6.17,0,0,0-1.39-.81l-4.09.69a.38.38,0,0,1-.35-.13.36.36,0,0,1-.06-.37l.84-2.18a.38.38,0,0,1,.29-.23l11.69-2a.38.38,0,0,1,.36.14.4.4,0,0,1,.06.37l-.85,2.17a.38.38,0,0,1-.28.24l-3.56.6a14.94,14.94,0,0,1,.92,1.18l4.44-.75a.36.36,0,0,1,.36.13.4.4,0,0,1,.06.37L252.17,13a.36.36,0,0,1-.28.24l-3.25.55c-.08,1.7-.36,3.43-4.37,4.87,1.47,1.38,5.31,4.77,5.7,5.09a.38.38,0,0,1,.18.26A.36.36,0,0,1,249.85,24.45Z"/><path class="cls-4" d="M234.22,203.74a0,0,0,0,0,0,0,.83.83,0,0,0-.06-.32l0-.07a.84.84,0,0,0-.18-.28l0,0a.69.69,0,0,0-.13-.11l-2.62-1.7a1,1,0,0,0-1.52.83v.71H202V175.51h.61a1,1,0,0,0,.85-1.48l-1.59-2.73a.9.9,0,0,0-.15-.19h0a1,1,0,0,0-.28-.18l-.08,0a.88.88,0,0,0-.32-.07h0a1,1,0,0,0-.33.07l0,0a1.12,1.12,0,0,0-.29.19s0,0,0,0a.88.88,0,0,0-.12.15l-1.7,2.73a1,1,0,0,0,0,1,1,1,0,0,0,.86.51H200v28.23a1,1,0,0,0,1,1h28.65v.6a1,1,0,0,0,.5.86,1,1,0,0,0,.48.13.92.92,0,0,0,.51-.15l2.62-1.58a.79.79,0,0,0,.17-.14h0a1.07,1.07,0,0,0,.19-.28l0-.07a1,1,0,0,0,.07-.33Z"/><path class="cls-4" d="M203.43,195.92l3.86-3.86,5.89,5.89a.74.74,0,0,0,.52.22h0a.74.74,0,0,0,.52-.22l16.32-16.42.87.81a.74.74,0,0,0,.5.2.76.76,0,0,0,.21,0,.73.73,0,0,0,.5-.52l1-3.68a.73.73,0,0,0-.89-.9l-3.86,1a.74.74,0,0,0-.32,1.25l.94.89L213.7,196.39l-5.89-5.89a.77.77,0,0,0-1,0l-3.34,3.34Z"/><path class="cls-4" d="M203.43,195.92l3.86-3.86,5.89,5.89a.74.74,0,0,0,.52.22h0a.74.74,0,0,0,.52-.22l16.32-16.42.87.81a.74.74,0,0,0,.5.2.76.76,0,0,0,.21,0,.73.73,0,0,0,.5-.52l1-3.68a.73.73,0,0,0-.89-.9l-3.86,1a.74.74,0,0,0-.32,1.25l.94.89L213.7,196.39l-5.89-5.89a.77.77,0,0,0-1,0l-3.34,3.34Z"/><line class="cls-19" x1="288.67" y1="51.81" x2="277.94" y2="54.49"/><line class="cls-19" x1="281.9" y1="47.53" x2="284.58" y2="58.25"/></svg>