<?xml version="1.0" encoding="utf-8"?>
<!-- Generator: Adobe Illustrator 25.2.1, SVG Export Plug-In . SVG Version: 6.00 Build 0)  -->
<svg version="1.1" id="Layer_1" xmlns="http://www.w3.org/2000/svg" xmlns:xlink="http://www.w3.org/1999/xlink" x="0px" y="0px"
	 viewBox="0 0 548 157.5" style="enable-background:new 0 0 548 157.5;" xml:space="preserve">
<style type="text/css">
	.st0{fill:#FFFFFF;}
</style>
<path class="st0" d="M181.4,107.6h-20.7c2.7-2.4,3.4-11.2,4.4-27l0.2-3.6l1-20.7c0-4.1-0.5-6.8-1.7-7.8h23.1
	c5.6,0,16.5,0.2,16.5,11.7c0,7.8-7.1,12.4-13.6,14.1c9.2,0.7,16.1,5.4,16.1,14.8C207,99.4,197.2,107.6,181.4,107.6 M180.7,78.9h-4.1
	l-0.7,8.8l-0.5,11c0,0.5,1.7,1.7,5.6,1.7c8.3,0,13.6-4.1,13.6-11C194.8,81.9,188.2,79,180.7,78.9 M182.4,55.6c-1.2,0-2.7,0-4.1,0.2
	c-0.7,4.1-1,8-1.2,12.6l-0.2,3.4h1.5c7.5,0,14.4-2.7,14.4-9.5C192.9,58.5,189.5,55.6,182.4,55.6 M255.4,108.2
	c-5.1,0-5.6-0.2-9.5-14.1l-1.5-5.1c-2.4,1.2-6.8,1.7-13.6,1.7h-7.1l-1.2,2.7c-1.2,2.7-4.1,8.3-4.1,11.7c0,0.9,0.1,1.8,0.2,2.7h-14.1
	c3.9-3.9,9.2-13.4,16.3-28.4l4.1-8.8l7.8-18.3c0-1.2-0.2-2.2-0.7-3.4h12.9l6.3,23.4l2.4,9.2c4.4,15.8,7.3,23.4,10.7,26.3
	L255.4,108.2 M236.8,62.5l-9.7,20.7h15.6L236.8,62.5 M311.3,110.1c-4.4,0-5.4-0.7-6.8-2.7l-16.8-22.9c-1.2-1.9-2.4-3.2-4.4-3.2h-0.2
	l-0.2,4.6l-0.7,14.6c0,3.9,0.5,6.3,1.7,7.3h-16.1c2.4-1.9,3.2-8.8,4.6-27l0.2-3.6l1-20.7c0-4.1-0.5-6.8-1.7-7.8h21.7
	c7.3,0,16.8,1.2,16.8,12.6c0,9.5-6.3,14.6-14.1,17c1,1.1,2,2.2,2.9,3.4L311,97.7c7.5,10,8,10.4,10.7,11.7
	C318.3,109.9,314.8,110.1,311.3,110.1 M289.9,55.9c-1.5,0-3.2,0-4.6,0.2c-0.5,2.4-0.7,6.8-1.2,13.9l-0.2,4.1
	c0.7,0.2,1.9,0.2,2.7,0.2c7.3,0,12.4-4.6,12.4-11.2C298.6,58.5,295.5,55.9,289.9,55.9 M342.7,108.8c-15.3,0-24.1-12.6-24.1-26.5
	c0-19.4,10.7-34.8,30.9-34.8c6.3,0,9.2,1.2,14.6,1.2l-1.5,15.1c-2.9-5.4-7.8-8.8-14.1-8.8c-12.6,0-17.8,13.6-17.8,25.3
	c0,12.6,7.3,19.7,16.5,19.7c5.1,0,9.7-1.2,17.3-6.6C361.5,102.7,354.4,108.8,342.7,108.8 M446.9,108.1c-5.1,0-5.4-0.2-9.5-14.1
	l-1.5-5.1c-2.4,1.2-6.8,1.7-13.6,1.7H415l-1.2,2.7c-1.9,3.9-4.1,8.5-4.1,11.7c0,0.7,0.2,1.7,0.2,2.7H368c2.4-2.7,3.2-11.4,4.4-27
	l0.2-3.6l1-20.7c0-3.9-0.5-6.6-1.5-7.8h16.3c-2.4,1.7-3.2,11.2-4.1,27l-0.2,3.6l-1.2,17.5c0,2.7,1,3.4,3.9,3.4
	c10,0,12.2-0.2,16.8-3.2c2.9-5.1,5.8-11.4,9-18l4.1-8.8l7.8-18.3c0-1.2-0.2-2.2-0.7-3.4h12.8l6.3,23.4l2.4,9.2
	c4.4,15.8,7.1,23.4,11,26.3C453.2,107.8,450,108,446.9,108.1 M428.4,62.3L418.9,83h15.3L428.4,62.3 M483.8,75.7l-4.1,7.8
	c-1,4.4-1.2,10.2-1.2,16.5c0,2.7,0.5,6.3,1.7,7.5h-16.1c2.9-2.7,3.9-19,3.9-24.3c-2.2-7.3-5.1-14.6-9.5-23.4
	c-2.9-5.4-6.1-10.4-8.3-11.4l10.4-0.5c3.9,0,5.1,0.5,7.5,5.8l8.3,20L486.9,57c0.7-1.5,1.7-3.4,1.7-5.1c0-1.2-0.2-2.9-0.7-3.4h15.8
	c-3.4,0.7-17,22.4-20,27.3 M537.3,62.3c-2.4-4.4-7.8-7.8-13.6-7.8c-5.1,0-9.5,1.9-9.5,7.3c0,4.6,5.6,7.5,11.4,11.4
	c6.3,3.9,12.9,8.8,12.9,17.3c0,11-10.7,18-23.4,18c-5.1,0-10.4-1-16.5-3.2l1-14.6c2.9,5.8,8.3,10.4,16.3,10.4c6.1,0,11-2.9,11-8.3
	c0-4.4-3.6-7.3-8.3-10c-9.7-5.8-15.8-10.4-15.8-19c0-12.6,10.4-16.8,21.7-16.8c6.3,0,10.4,1.2,14.4,1.2L537.3,62.3z"/>
<path class="st0" d="M137.3,37.8c-1.3-3-3.5-6.5-7.4-9.1c-1.7-1.3-3.9-2.6-6.1-3.5c-1.7-0.5-3.5-0.9-5.6-0.9h-0.5
	c-2.6,0-7.4,0.5-9.9,4.3c-1.3,1.3-1.7,3.9-1.3,6.1c0.5,1.7,1.7,3.5,3.5,3.9c0.4,0.3,0.8,0.5,1.3,0.4c0,0.5-0.5,1.3-0.5,1.3
	c-1.3,1.3-3.5,3.5-9.9,3.5h-0.5c-3.5-0.5-6.1-1.3-9.9-5.2c-2.2-2.6-3.5-7.4-3.5-14.7c0-3.9-0.5-6.9-1.3-9.5
	c-0.5-1.7-2.2-3.5-3.5-4.3c-1.3-0.9-2.2-1.3-4.3-2.2l-7.4-0.9c-2.6,0-4.3,0.5-5.2,1.7h-2.6c-1.3,0-3,0.5-4.3,0.5
	c-2.6,0.5-4.3,1.7-6.1,3c-0.5,0.5-2.2,2.2-2.6,3.9c0,1.3,0.5,2.6,0.5,3l0.5,0.5c0.9-0.9,2.6-1.3,4.8-1.3c3,0,7.4,1.3,8.2,3.5
	C65.9,25.4,65,28,65,31c-1.3,8.2-4.3,12.1-10.8,13c-1.3,0.5-2.6,0.5-3.5,0.5c-4.8,0-8.2-1.3-9.9-4.3v-0.9c0,0,0.5,0,0.9-0.5
	c1.7-0.9,3-2.2,3.5-3.9c0.5-2.2,0-4.3-1.3-6.1c-2.6-2.6-6.1-4.3-9.9-4.3c-2.6,0-4.3,0.5-6.1,0.9c-5.2,1.3-9.9,5.6-13.4,12.5
	c-2.6,5.2-4.3,11.2-4.8,18.2s-0.5,12.5,0,17.7c0.5,8.7,2.2,13.8,4.3,19.4s4.7,10.8,7.8,15.6c0.9,1.3,1.3,2.6,2.2,3.5l0.5-0.5
	c0.5-0.5,0.9-0.9,1.3-1.7c1.7-1.3,4.8-5.6,5.6-6.9c0.9-1.3,2.2-3.5,3-5.6l0.5-0.9l0.9,0.5c0.9,0.9,1.3,2.2,1.3,3.5s-0.5,2.6-1.3,5.2
	c-0.9,3-2.6,6.5-4.3,9.9c0.5,0.5,0.5,1.3,0,1.3c-1.3,2.2-1.3,3-1.3,3.9h0.5c0.5,0,2.2-0.5,3.5-1.7c1.3-0.9,4.8-3.9,9.1-9.9
	c3.5-4.3,5.6-9.1,8.2-14.3l0.5-0.9l0.9,0.5c0.5,0.5,0.9,0.5,1.3,0.9c0.5,0.9,0.5,2.2,0.5,3.5c-0.5,3.5-2.6,8.2-3.9,11.7
	c-2.6,6.1-7.4,12.5-10.8,17.3c-0.2,0.6-0.7,1.1-1.3,1.3c0.5,0.5,0.9,0.9,1.7,1.3l1.3,1.3c4.6,3.8,9.5,7.1,14.7,9.9
	c4.3,2.6,13,6.9,19,8.7c6.1-1.3,14.7-6.1,19-8.7c5.2-2.8,10.2-6.1,14.7-9.9l1.3-1.3c0.9-0.5,1.3-1.3,1.7-1.3
	c0.5-0.9,0.5-1.3,0.5-1.7l-0.5-0.5c-3.5-4.3-8.2-11.2-10.8-17.3c-1.3-3.5-3.5-8.2-3.9-11.7c-0.5-1.3,0-2.6,0.5-3.5l0.9-0.9
	c0.5-0.5,1.3-0.5,1.3-0.5l0.5,0.9c2.6,5.2,5.2,9.9,8.2,14.3c4.3,6.1,7.8,9.1,9.1,9.9c1.3,1.3,2.6,1.7,3.5,1.7h0.5
	c0.5-0.5,0-1.3-1.3-3.5c-0.5-0.5-0.5-0.9-0.5-1.3c-1.7-3.5-3.5-6.9-4.3-9.9c-0.9-2.6-1.3-4.3-1.3-5.2c0-1.3,0.5-2.6,1.3-3.5l0.9-0.5
	l0.5,0.9c0.9,2.2,2.6,4.8,3.5,6.1c0.9,1.3,4.3,5.2,5.2,6.5c0.9,0.9,1.3,1.3,1.3,1.7l0.5,0.5c0.5-0.5,0.9-1.3,1.7-3l0.5-0.5
	c2.6-4.3,5.2-9.9,7.4-15.6c2.2-5.2,3.5-10.8,4.3-19.4c0.5-5.2,0.9-10.8,0-17.7c0.5-6.5-1.3-13-3.5-17.7L137.3,37.8z"/>
</svg>
