<?xml version="1.0" encoding="UTF-8"?><svg id="Layer_1" xmlns="http://www.w3.org/2000/svg" xmlns:xlink="http://www.w3.org/1999/xlink" viewBox="0 0 248 95"><defs><style>.cls-1{fill:none;}.cls-2{fill:url(#linear-gradient);opacity:.8;}.cls-3{clip-path:url(#clippath);}.cls-4{fill:#da41de;}</style><clipPath id="clippath"><rect class="cls-1" x="-8.46" y="-14.06" width="256.46" height="109.06"/></clipPath><linearGradient id="linear-gradient" x1="-9581.88" y1="17655.25" x2="-9206.83" y2="17655.25" gradientTransform="translate(5255.74 -19196.48) rotate(-13.33)" gradientUnits="userSpaceOnUse"><stop offset=".03" stop-color="#f6b6ff"/><stop offset=".44" stop-color="#ecd7fc"/><stop offset=".78" stop-color="#e7ecfa"/><stop offset="1" stop-color="#e5f4fa"/></linearGradient></defs><g class="cls-3"><path class="cls-2" d="M350.73,61.44C327.84,21.7,284.07-1.62,238.33,1.68c-38.07,2.75-69.27,21.14-89.54,47.4-12.15,15.74-33.28,21.63-51.58,13.86-16.21-6.88-34.84-8.26-52.97-2.61C3.62,72.99-19.3,117.61-5.95,158.02c5.78,17.5,17.27,31.57,31.75,40.78,13.2,8.4,21.02,23.07,21.28,38.71,.11,6.31,1.15,12.72,3.24,19.04,10.51,31.88,44.35,50.39,76.85,41.96,18.51-4.8,32.89-17.07,40.93-32.63,9.4-18.19,29.81-27.59,49.75-22.94,20.49,4.78,42.48,4.32,64.01-2.39,73.25-22.83,109.7-108.24,68.88-179.1Z"/>
<path class="cls-4" d="M229.74,43.62h-35.36c-.13-1.58-.66-2.84-1.63-3.72-1.7-1.53-4.03-1.31-4.03-1.31h-2.3c-.53,0-.97,.43-.97,.97s.43,.97,.97,.97h2.4s1.6-.14,2.65,.82c.69,.63,1.04,1.62,1.04,2.96v25.13h0v1.07c0,.19-.03,1.94,1.08,3.08,.46,.48,1.06,.77,1.75,.88,.36,2.2,2.25,3.89,4.55,3.89s4.07-1.57,4.52-3.66h10.71c.45,2.09,2.3,3.66,4.52,3.66,2.55,0,4.63-2.08,4.63-4.63s-2.08-4.63-4.63-4.63c-2.22,0-4.07,1.57-4.52,3.66h-10.71c-.45-2.09-2.3-3.66-4.52-3.66s-3.91,1.45-4.45,3.41c-.23-.07-.37-.18-.47-.27-.46-.47-.55-1.38-.54-1.71v-3.86h28.87c1.2,0,2.25-.78,2.59-1.89l5.4-14.78c.5-1.38,.81-2.22,.95-2.76l.05,.02c.11-.31,.17-.62,.17-.93,0-1.5-1.22-2.73-2.72-2.73Zm-10.11,27.43c1.48,0,2.69,1.21,2.69,2.69s-1.21,2.69-2.69,2.69-2.69-1.21-2.69-2.69,1.21-2.69,2.69-2.69Zm-19.75,0c1.48,0,2.69,1.21,2.69,2.69s-1.21,2.69-2.69,2.69-2.69-1.21-2.69-2.69,1.21-2.69,2.69-2.69Zm30.59-24.43v.02c-.15,.41-4.24,11.61-6.41,17.54-.11,.34-.41,.57-.76,.57h-28.87v-19.2h35.31c.43,0,.79,.36,.79,.79,0,.08-.02,.17-.05,.27Z"/></g></svg>