<?xml version="1.0" encoding="UTF-8"?>
<!DOCTYPE svg PUBLIC "-//W3C//DTD SVG 1.1//EN" "http://www.w3.org/Graphics/SVG/1.1/DTD/svg11.dtd">
<svg xmlns="http://www.w3.org/2000/svg" version="1.1" width="51px" height="52px" style="shape-rendering:geometricPrecision; text-rendering:geometricPrecision; image-rendering:optimizeQuality; fill-rule:evenodd; clip-rule:evenodd" xmlns:xlink="http://www.w3.org/1999/xlink">
<g><path style="opacity:0.973" fill="#fed700" d="M 3.5,-0.5 C 5.83333,-0.5 8.16667,-0.5 10.5,-0.5C 16.4381,4.93632 22.2714,10.603 28,16.5C 31.5729,26.5884 28.0729,31.0884 17.5,30C 11.6314,23.9638 5.63143,18.1305 -0.5,12.5C -0.5,9.5 -0.5,6.5 -0.5,3.5C 0.5,1.83333 1.83333,0.5 3.5,-0.5 Z"/></g>
<g><path style="opacity:0.969" fill="#fed700" d="M 72.5,-0.5 C 86.5,-0.5 100.5,-0.5 114.5,-0.5C 116.27,1.11327 117.436,3.11327 118,5.5C 118.333,11.8333 118.667,18.1667 119,24.5C 123,29.8333 127,29.8333 131,24.5C 131.333,17.8333 131.667,11.1667 132,4.5C 132.997,2.67694 134.164,1.01027 135.5,-0.5C 149.5,-0.5 163.5,-0.5 177.5,-0.5C 185.984,2.0014 193.151,6.66807 199,13.5C 199.791,14.745 200.291,16.0783 200.5,17.5C 195.248,18.2849 189.915,18.7849 184.5,19C 185.687,20.0195 186.687,21.1861 187.5,22.5C 186.8,22.7871 186.133,23.1205 185.5,23.5C 181.665,19.5092 176.998,17.0092 171.5,16C 163.5,15.3333 155.5,15.3333 147.5,16C 149.043,22.0672 148.376,27.9006 145.5,33.5C 143.557,32.9217 143.223,31.9217 144.5,30.5C 137.887,29.1038 131.387,29.4371 125,31.5C 118.64,29.605 112.14,29.105 105.5,30C 106.8,31.5788 106.466,32.7455 104.5,33.5C 101.624,27.9006 100.957,22.0672 102.5,16C 92.0152,14.8666 81.6819,15.5333 71.5,18C 69.0043,19.6665 66.671,21.4998 64.5,23.5C 63.6236,23.6309 62.9569,23.2975 62.5,22.5C 63.3128,21.1861 64.3128,20.0195 65.5,19C 60.0849,18.7849 54.7516,18.2849 49.5,17.5C 51.1585,13.3275 53.8252,9.82751 57.5,7C 62.3133,3.92666 67.3133,1.42666 72.5,-0.5 Z"/></g>
<g><path style="opacity:0.972" fill="#fed700" d="M 239.5,-0.5 C 241.833,-0.5 244.167,-0.5 246.5,-0.5C 248.167,0.5 249.5,1.83333 250.5,3.5C 250.5,6.5 250.5,9.5 250.5,12.5C 244.369,18.1305 238.369,23.9638 232.5,30C 221.927,31.0884 218.427,26.5884 222,16.5C 227.729,10.603 233.562,4.93632 239.5,-0.5 Z"/></g>
<g><path style="opacity:0.967" fill="#feca00" d="M 145.5,33.5 C 137.092,45.795 126.092,48.6284 112.5,42C 109.034,39.8857 106.367,37.0523 104.5,33.5C 106.466,32.7455 106.8,31.5788 105.5,30C 112.14,29.105 118.64,29.605 125,31.5C 131.387,29.4371 137.887,29.1038 144.5,30.5C 143.223,31.9217 143.557,32.9217 145.5,33.5 Z"/></g>
<g><path style="opacity:0.973" fill="#fec400" d="M 49.5,17.5 C 54.7516,18.2849 60.0849,18.7849 65.5,19C 64.3128,20.0195 63.3128,21.1861 62.5,22.5C 62.9569,23.2975 63.6236,23.6309 64.5,23.5C 60.1038,29.4084 58.4372,36.075 59.5,43.5C 67.84,43.3336 76.1733,43.5003 84.5,44C 86.3783,45.5429 87.8783,47.3762 89,49.5C 89.4994,55.1569 89.6661,60.8236 89.5,66.5C 87.5977,69.3373 86.931,72.6707 87.5,76.5C 83.1667,76.5 78.8333,76.5 74.5,76.5C 74.405,74.2143 73.7384,72.2143 72.5,70.5C 72.5,66.8333 72.5,63.1667 72.5,59.5C 64.16,59.6664 55.8267,59.4997 47.5,59C 46.6667,58.1667 45.8333,57.3333 45,56.5C 42.6008,44.3557 43.2674,32.3557 47,20.5C 47.3768,19.0577 48.2101,18.0577 49.5,17.5 Z"/></g>
<g><path style="opacity:0.977" fill="#fec400" d="M 200.5,17.5 C 203.577,21.5446 205.411,26.2113 206,31.5C 206.937,39.9371 206.604,48.2704 205,56.5C 204.167,57.3333 203.333,58.1667 202.5,59C 194.173,59.4997 185.84,59.6664 177.5,59.5C 177.5,63.1667 177.5,66.8333 177.5,70.5C 176.262,72.2143 175.595,74.2143 175.5,76.5C 171.5,76.5 167.5,76.5 163.5,76.5C 163.665,80.1817 163.499,83.8484 163,87.5C 162.547,80.3073 161.714,73.3073 160.5,66.5C 160.334,60.8236 160.501,55.1569 161,49.5C 162.122,47.3762 163.622,45.5429 165.5,44C 173.827,43.5003 182.16,43.3336 190.5,43.5C 191.563,36.075 189.896,29.4084 185.5,23.5C 186.133,23.1205 186.8,22.7871 187.5,22.5C 186.687,21.1861 185.687,20.0195 184.5,19C 189.915,18.7849 195.248,18.2849 200.5,17.5 Z"/></g>
<g><path style="opacity:0.984" fill="#feb300" d="M -0.5,85.5 C -0.5,82.5 -0.5,79.5 -0.5,76.5C 3.33467,72.8246 8.00134,71.4913 13.5,72.5C 11.3983,64.7849 14.0649,59.7849 21.5,57.5C 28.9351,59.7849 31.6017,64.7849 29.5,72.5C 37.6277,70.2546 42.6277,73.0879 44.5,81C 44.5,84.3333 43.1667,87 40.5,89C 36.8484,89.4986 33.1817,89.6653 29.5,89.5C 29.665,92.8499 29.4983,96.1832 29,99.5C 24.0463,104.824 19.0463,104.824 14,99.5C 13.5017,96.1832 13.335,92.8499 13.5,89.5C 7.95899,90.511 3.29232,89.1777 -0.5,85.5 Z"/></g>
<g><path style="opacity:0.986" fill="#feb300" d="M 250.5,76.5 C 250.5,79.5 250.5,82.5 250.5,85.5C 249.684,87.1436 248.35,88.3103 246.5,89C 243.183,89.4983 239.85,89.665 236.5,89.5C 237.965,101.552 233.132,105.552 222,101.5C 220.646,97.6372 220.146,93.6372 220.5,89.5C 209.908,92.0587 205.075,88.0587 206,77.5C 209.691,72.8905 214.524,71.2238 220.5,72.5C 218.398,64.7849 221.065,59.7849 228.5,57.5C 235.935,59.7849 238.602,64.7849 236.5,72.5C 241.999,71.4913 246.665,72.8246 250.5,76.5 Z"/></g>
<g><path style="opacity:1" fill="#fdab00" d="M 89.5,66.5 C 89.5,82.8333 89.5,99.1667 89.5,115.5C 88.71,114.391 88.21,113.058 88,111.5C 87.6667,113.833 87.3333,116.167 87,118.5C 86.5045,116.527 86.3379,114.527 86.5,112.5C 82.8333,112.5 79.1667,112.5 75.5,112.5C 75.6621,114.527 75.4955,116.527 75,118.5C 74.6667,115.833 74.3333,113.167 74,110.5C 73.6174,111.056 73.1174,111.389 72.5,111.5C 72.5,97.8333 72.5,84.1667 72.5,70.5C 73.7384,72.2143 74.405,74.2143 74.5,76.5C 78.8333,76.5 83.1667,76.5 87.5,76.5C 86.931,72.6707 87.5977,69.3373 89.5,66.5 Z"/></g>
<g><path style="opacity:1" fill="#fdab00" d="M 160.5,66.5 C 161.714,73.3073 162.547,80.3073 163,87.5C 163.499,83.8484 163.665,80.1817 163.5,76.5C 167.5,76.5 171.5,76.5 175.5,76.5C 175.595,74.2143 176.262,72.2143 177.5,70.5C 177.5,84.1667 177.5,97.8333 177.5,111.5C 176.883,111.389 176.383,111.056 176,110.5C 175.667,113.167 175.333,115.833 175,118.5C 174.505,116.527 174.338,114.527 174.5,112.5C 170.833,112.5 167.167,112.5 163.5,112.5C 163.662,114.527 163.495,116.527 163,118.5C 162.667,116.167 162.333,113.833 162,111.5C 161.79,113.058 161.29,114.391 160.5,115.5C 160.5,99.1667 160.5,82.8333 160.5,66.5 Z"/></g>
<g><path style="opacity:0.943" fill="#fe9d00" d="M 89.5,115.5 C 113.167,116.833 136.833,116.833 160.5,115.5C 161.29,114.391 161.79,113.058 162,111.5C 162.333,113.833 162.667,116.167 163,118.5C 163.495,116.527 163.662,114.527 163.5,112.5C 167.167,112.5 170.833,112.5 174.5,112.5C 174.338,114.527 174.505,116.527 175,118.5C 175.333,115.833 175.667,113.167 176,110.5C 176.383,111.056 176.883,111.389 177.5,111.5C 177.5,113.167 177.5,114.833 177.5,116.5C 190.504,116.333 203.504,116.5 216.5,117C 218.996,118.331 220.996,120.164 222.5,122.5C 222.649,123.552 222.483,124.552 222,125.5C 157.57,124.669 93.0703,124.169 28.5,124C 27.944,123.617 27.6107,123.117 27.5,122.5C 29.0038,120.164 31.0038,118.331 33.5,117C 46.4957,116.5 59.4957,116.333 72.5,116.5C 72.5,114.833 72.5,113.167 72.5,111.5C 73.1174,111.389 73.6174,111.056 74,110.5C 74.3333,113.167 74.6667,115.833 75,118.5C 75.4955,116.527 75.6621,114.527 75.5,112.5C 79.1667,112.5 82.8333,112.5 86.5,112.5C 86.3379,114.527 86.5045,116.527 87,118.5C 87.3333,116.167 87.6667,113.833 88,111.5C 88.21,113.058 88.71,114.391 89.5,115.5 Z"/></g>
<g><path style="opacity:0.941" fill="#fd9900" d="M 27.5,122.5 C 27.6107,123.117 27.944,123.617 28.5,124C 93.0703,124.169 157.57,124.669 222,125.5C 222.483,124.552 222.649,123.552 222.5,122.5C 227.167,126.5 231.5,130.833 235.5,135.5C 234.849,136.091 234.182,136.757 233.5,137.5C 228.22,136.382 222.887,136.216 217.5,137C 218.883,138.461 218.549,139.294 216.5,139.5C 214.37,137.873 212.37,136.04 210.5,134C 188.663,133.171 166.996,133.337 145.5,134.5C 143.493,133.321 143.16,133.821 144.5,136C 139.167,136.333 133.833,136.667 128.5,137C 129.5,138 130.5,139 131.5,140C 130.906,140.464 130.239,140.631 129.5,140.5C 127.771,139.883 126.271,138.883 125,137.5C 120.999,140.669 117.166,144.003 113.5,147.5C 111.983,147.511 110.816,148.177 110,149.5C 104.583,148.691 99.0829,148.191 93.5,148C 94.7119,146.893 94.3786,146.393 92.5,146.5C 96.2964,142.202 100.296,138.036 104.5,134C 82.8333,133.333 61.1667,133.333 39.5,134C 35.2964,138.036 31.2964,142.202 27.5,146.5C 48.9961,147.332 70.6628,147.832 92.5,148C 62.4282,148.825 32.4282,148.658 2.5,147.5C 10.5,138.833 18.8333,130.5 27.5,122.5 Z M 92.5,146.5 C 70.8333,146.5 49.1667,146.5 27.5,146.5C 31.2964,142.202 35.2964,138.036 39.5,134C 61.1667,133.333 82.8333,133.333 104.5,134C 100.296,138.036 96.2964,142.202 92.5,146.5 Z"/></g>
<g><path style="opacity:0.992" fill="#fe8b00" d="M 27.5,146.5 C 49.1667,146.5 70.8333,146.5 92.5,146.5C 94.3786,146.393 94.7119,146.893 93.5,148C 99.0829,148.191 104.583,148.691 110,149.5C 110.816,148.177 111.983,147.511 113.5,147.5C 109.037,152.465 104.37,157.298 99.5,162C 80.9954,162.168 62.6621,162.668 44.5,163.5C 43.6728,168.985 43.1728,174.652 43,180.5C 42.502,177.518 42.3354,174.518 42.5,171.5C 38.5,171.5 34.5,171.5 30.5,171.5C 30.665,174.85 30.4983,178.183 30,181.5C 29.8213,177.975 29.3213,174.641 28.5,171.5C 28.5,168.5 28.5,165.5 28.5,162.5C 20.16,162.666 11.8267,162.5 3.5,162C 2.01608,161.338 0.682751,160.504 -0.5,159.5C -0.5,156.5 -0.5,153.5 -0.5,150.5C 0.271873,149.306 1.27187,148.306 2.5,147.5C 32.4282,148.658 62.4282,148.825 92.5,148C 70.6628,147.832 48.9961,147.332 27.5,146.5 Z"/></g>
<g><path style="opacity:0.99" fill="#fe8d00" d="M 145.5,134.5 C 149.631,138.13 153.631,141.963 157.5,146C 179.167,146.667 200.833,146.667 222.5,146C 220.294,143.963 218.294,141.797 216.5,139.5C 218.549,139.294 218.883,138.461 217.5,137C 222.887,136.216 228.22,136.382 233.5,137.5C 234.182,136.757 234.849,136.091 235.5,135.5C 240.86,140.194 245.86,145.194 250.5,150.5C 250.5,153.5 250.5,156.5 250.5,159.5C 249.317,160.504 247.984,161.338 246.5,162C 238.173,162.5 229.84,162.666 221.5,162.5C 221.5,165.5 221.5,168.5 221.5,171.5C 220.679,174.641 220.179,177.975 220,181.5C 219.502,178.183 219.335,174.85 219.5,171.5C 215.5,171.5 211.5,171.5 207.5,171.5C 207.665,174.518 207.498,177.518 207,180.5C 206.827,174.652 206.327,168.985 205.5,163.5C 187.338,162.668 169.005,162.168 150.5,162C 143.297,154.965 136.297,147.798 129.5,140.5C 130.239,140.631 130.906,140.464 131.5,140C 130.5,139 129.5,138 128.5,137C 133.833,136.667 139.167,136.333 144.5,136C 143.16,133.821 143.493,133.321 145.5,134.5 Z"/></g>
<g><path style="opacity:1" fill="#fd7800" d="M 133.5,201.5 C 131.982,205.566 131.149,209.899 131,214.5C 130.503,212.19 130.337,209.857 130.5,207.5C 126.833,207.5 123.167,207.5 119.5,207.5C 119.663,209.857 119.497,212.19 119,214.5C 118.851,209.899 118.018,205.566 116.5,201.5C 116.334,195.158 116.5,188.825 117,182.5C 118.672,176.493 122.505,174.327 128.5,176C 130.81,177.637 132.31,179.804 133,182.5C 133.5,188.825 133.666,195.158 133.5,201.5 Z"/></g>
<g><path style="opacity:0.969" fill="#fd7300" d="M 44.5,163.5 C 44.5,178.5 44.5,193.5 44.5,208.5C 43.6728,213.985 43.1728,219.652 43,225.5C 42.5034,223.19 42.3367,220.857 42.5,218.5C 38.5,218.5 34.5,218.5 30.5,218.5C 30.6646,221.518 30.498,224.518 30,227.5C 29.8195,224.305 29.3195,221.305 28.5,218.5C 28.5,202.833 28.5,187.167 28.5,171.5C 29.3213,174.641 29.8213,177.975 30,181.5C 30.4983,178.183 30.665,174.85 30.5,171.5C 34.5,171.5 38.5,171.5 42.5,171.5C 42.3354,174.518 42.502,177.518 43,180.5C 43.1728,174.652 43.6728,168.985 44.5,163.5 Z"/></g>
<g><path style="opacity:0.969" fill="#fc7300" d="M 205.5,163.5 C 206.327,168.985 206.827,174.652 207,180.5C 207.498,177.518 207.665,174.518 207.5,171.5C 211.5,171.5 215.5,171.5 219.5,171.5C 219.335,174.85 219.502,178.183 220,181.5C 220.179,177.975 220.679,174.641 221.5,171.5C 221.5,187.167 221.5,202.833 221.5,218.5C 220.681,221.305 220.181,224.305 220,227.5C 219.502,224.518 219.335,221.518 219.5,218.5C 215.5,218.5 211.5,218.5 207.5,218.5C 207.749,222.458 207.082,226.124 205.5,229.5C 205.5,207.5 205.5,185.5 205.5,163.5 Z"/></g>
<g><path style="opacity:0.962" fill="#fd6d00" d="M 165.5,205.5 C 173.611,205.065 181.611,205.565 189.5,207C 193.796,212.461 193.129,217.127 187.5,221C 179.395,221.934 171.395,221.601 163.5,220C 159.257,214.474 159.924,209.641 165.5,205.5 Z"/></g>
<g><path style="opacity:0.959" fill="#fd6200" d="M 116.5,201.5 C 118.018,205.566 118.851,209.899 119,214.5C 119.497,212.19 119.663,209.857 119.5,207.5C 123.167,207.5 126.833,207.5 130.5,207.5C 130.337,209.857 130.503,212.19 131,214.5C 131.149,209.899 131.982,205.566 133.5,201.5C 133.5,212.833 133.5,224.167 133.5,235.5C 157.5,235.5 181.5,235.5 205.5,235.5C 205.5,233.5 205.5,231.5 205.5,229.5C 207.082,226.124 207.749,222.458 207.5,218.5C 211.5,218.5 215.5,218.5 219.5,218.5C 219.335,221.518 219.502,224.518 220,227.5C 220.181,224.305 220.681,221.305 221.5,218.5C 221.5,227.5 221.5,236.5 221.5,245.5C 219.952,245.179 219.285,244.179 219.5,242.5C 156.5,242.5 93.5,242.5 30.5,242.5C 30.6495,243.552 30.4828,244.552 30,245.5C 29.7679,244.263 29.2679,243.263 28.5,242.5C 28.5,234.5 28.5,226.5 28.5,218.5C 29.3195,221.305 29.8195,224.305 30,227.5C 30.498,224.518 30.6646,221.518 30.5,218.5C 34.5,218.5 38.5,218.5 42.5,218.5C 42.3367,220.857 42.5034,223.19 43,225.5C 43.1728,219.652 43.6728,213.985 44.5,208.5C 44.5,217.5 44.5,226.5 44.5,235.5C 68.5,235.5 92.5,235.5 116.5,235.5C 116.5,224.167 116.5,212.833 116.5,201.5 Z"/></g>
<g><path style="opacity:0.986" fill="#fc5b00" d="M 28.5,242.5 C 29.2679,243.263 29.7679,244.263 30,245.5C 30.4828,244.552 30.6495,243.552 30.5,242.5C 93.5,242.5 156.5,242.5 219.5,242.5C 219.285,244.179 219.952,245.179 221.5,245.5C 221.141,248.237 219.807,250.237 217.5,251.5C 155.833,251.5 94.1667,251.5 32.5,251.5C 29.3141,249.453 27.9807,246.453 28.5,242.5 Z"/></g>
</svg>
