<svg xmlns="http://www.w3.org/2000/svg" xmlns:xlink="http://www.w3.org/1999/xlink" viewBox="0 0 348.64 358.56"><defs><style>.cls-1{opacity:0.8;fill:url(#linear-gradient);}.cls-2{fill:#f5fafd;}.cls-2,.cls-6,.cls-7{stroke:#cbced0;}.cls-10,.cls-2,.cls-4,.cls-5,.cls-6,.cls-7{stroke-miterlimit:10;}.cls-3,.cls-4,.cls-5,.cls-6,.cls-7{fill:none;}.cls-3,.cls-4{stroke:#1ab4ff;stroke-linecap:round;stroke-width:1.5px;}.cls-3{stroke-linejoin:round;}.cls-5{stroke:#dfe3e5;}.cls-7{stroke-dasharray:5.83 5.83;}.cls-8{fill:#2a4788;}.cls-10,.cls-9{fill:#fff;}.cls-10{stroke:#fff;stroke-width:0.5px;}.cls-11{fill:url(#linear-gradient-2);}</style><linearGradient id="linear-gradient" x1="-3295.93" y1="856.63" x2="-2907.53" y2="856.63" gradientTransform="translate(-2930.53 -665.78) rotate(-149.46)" gradientUnits="userSpaceOnUse"><stop offset="0" stop-color="#fffed2"/><stop offset="1" stop-color="#d7f9ff"/></linearGradient><linearGradient id="linear-gradient-2" x1="143.72" y1="295.12" x2="208.72" y2="295.12" gradientUnits="userSpaceOnUse"><stop offset="0" stop-color="#ffae8a"/><stop offset="1" stop-color="#f37025"/></linearGradient></defs><g id="Layer_115" data-name="Layer 115"><path class="cls-1" d="M57.85,216.16a115,115,0,0,0,42,15.16,55.87,55.87,0,0,1,46.3,44.8,95.37,95.37,0,0,0,46.19,65c44.87,25.87,102.77,11,129.58-33.34a95.45,95.45,0,0,0,8.46-81,57.84,57.84,0,0,1,4.28-48.32q.77-1.31,1.47-2.67a61.54,61.54,0,0,0-63.27-89.32c-22.24,3.19-44.44-7-55.6-26.49a115.33,115.33,0,0,0-199.76-.52C-14,113.7,4.05,183.86,57.85,216.16Z"/><rect class="cls-2" x="65.92" y="117.27" width="220.6" height="66.43" rx="6.91"/><circle class="cls-3" cx="242.98" cy="150.74" r="22"/><line class="cls-3" x1="242.98" y1="131.74" x2="242.98" y2="135.74"/><line class="cls-3" x1="237.11" y1="132.67" x2="238.34" y2="136.48"/><line class="cls-3" x1="231.81" y1="135.37" x2="234.16" y2="138.61"/><line class="cls-3" x1="227.61" y1="139.57" x2="230.84" y2="141.92"/><line class="cls-3" x1="224.91" y1="144.87" x2="228.71" y2="146.11"/><line class="cls-3" x1="223.98" y1="150.74" x2="227.98" y2="150.74"/><line class="cls-3" x1="224.91" y1="156.61" x2="228.71" y2="155.38"/><line class="cls-3" x1="227.61" y1="161.91" x2="230.84" y2="159.56"/><line class="cls-3" x1="258.35" y1="161.91" x2="255.11" y2="159.56"/><line class="cls-3" x1="261.05" y1="156.61" x2="257.24" y2="155.38"/><line class="cls-3" x1="261.98" y1="150.74" x2="257.98" y2="150.74"/><line class="cls-3" x1="261.05" y1="144.87" x2="257.24" y2="146.11"/><line class="cls-3" x1="258.35" y1="139.57" x2="255.11" y2="141.92"/><line class="cls-3" x1="254.15" y1="135.37" x2="251.79" y2="138.61"/><line class="cls-3" x1="248.85" y1="132.67" x2="247.61" y2="136.48"/><circle class="cls-3" cx="242.98" cy="157.74" r="3"/><line class="cls-3" x1="240.98" y1="160.18" x2="237.98" y2="163.74"/><line class="cls-3" x1="253.98" y1="144.74" x2="244.98" y2="155.43"/><path class="cls-4" d="M123.34,135.74a21.91,21.91,0,0,0-12.08-5v5a17,17,0,0,1,8.51,3.53Zm-.74,27.42,3.57,3.56a21.65,21.65,0,0,0,5-12h-5A16.51,16.51,0,0,1,122.6,163.16Zm-30.21-8.42h-5a21.58,21.58,0,0,0,5,12l3.56-3.56A16.51,16.51,0,0,1,92.39,154.74Zm33.74-4h5a22.23,22.23,0,0,0-5-12.17l-3.57,3.56A17.15,17.15,0,0,1,126.13,150.74Zm-30.21-8.61-3.56-3.56a22.16,22.16,0,0,0-5,12.17h5A17.15,17.15,0,0,1,95.92,142.13Zm2.83-2.83a17,17,0,0,1,8.51-3.53v-5a21.91,21.91,0,0,0-12.08,5Z"/><circle class="cls-3" cx="109.26" cy="155.74" r="4"/><line class="cls-3" x1="105.57" y1="158.2" x2="102.26" y2="160.39"/><line class="cls-3" x1="121.26" y1="147.74" x2="112.26" y2="153.74"/><circle class="cls-3" cx="191.22" cy="164.09" r="8"/><path class="cls-3" d="M156.09,155.09a21.28,21.28,0,0,1-.87-6,21,21,0,1,1,41.13,6"/><path class="cls-3" d="M169.31,169.54a16.2,16.2,0,0,0,13.83,0"/><circle class="cls-3" cx="161.22" cy="164.09" r="8"/><path class="cls-3" d="M157.22,164.09a4,4,0,0,1,8,0"/><path class="cls-3" d="M187.22,164.09a4,4,0,0,1,8,0"/><circle class="cls-3" cx="176.22" cy="155.09" r="3"/><line class="cls-3" x1="174.02" y1="157.09" x2="171.22" y2="159.09"/><line class="cls-3" x1="192.22" y1="144.09" x2="179.22" y2="153.09"/><path class="cls-4" d="M188.65,140.38a15.06,15.06,0,0,0-21-3,14.69,14.69,0,0,0-5.16,7l.49.39a13.7,13.7,0,0,1,1.86-1.7c5.65-4.18,13.61-3.62,17.52,1.89l6.67-3.88C188.93,140.79,188.8,140.58,188.65,140.38Z"/><line class="cls-5" x1="176.22" y1="117.27" x2="176.22" y2="75.58"/><line class="cls-6" x1="176.22" y1="264.74" x2="176.22" y2="261.74"/><line class="cls-7" x1="176.22" y1="255.91" x2="176.22" y2="188.82"/><line class="cls-6" x1="176.22" y1="185.9" x2="176.22" y2="182.9"/><circle class="cls-8" cx="176.26" cy="43.08" r="31.75"/><path class="cls-9" d="M176.26,12.08a31,31,0,1,1-31,31,31,31,0,0,1,31-31m0-1.5a32.5,32.5,0,1,0,32.5,32.5,32.5,32.5,0,0,0-32.5-32.5Z"/><path class="cls-10" d="M176.26,63.21a2,2,0,0,1-.55-.08c-16.33-4.94-16.42-25.47-16.06-31.64a2,2,0,0,1,1.94-1.86h.11c.35,0,.72,0,1.08,0a20,20,0,0,0,12.29-4.3,1.89,1.89,0,0,1,1.19-.41,1.93,1.93,0,0,1,1.19.41,20.33,20.33,0,0,0,12.33,4.3c.35,0,.7,0,1,0h0a2,2,0,0,1,2,1.86c.36,6.17.27,26.7-16.06,31.64A2.09,2.09,0,0,1,176.26,63.21ZM161.59,31.27a.43.43,0,0,0-.27.1.41.41,0,0,0-.13.28c-.32,7.53.5,25.53,15,29.91l.11,0,.12,0c15.08-4.58,15.16-24.05,14.82-29.91a.4.4,0,0,0-.4-.38h0c-.33,0-.67,0-1,0a22.18,22.18,0,0,1-13.31-4.59.38.38,0,0,0-.24-.09.38.38,0,0,0-.25.09,22.24,22.24,0,0,1-13.37,4.58c-.34,0-.69,0-1,0Z"/><path class="cls-9" d="M180.79,39l-6.39,8-2.75-2.75a1,1,0,0,0-.71-.29h0a1,1,0,0,0-.71.29,1,1,0,0,0,0,1.43l3.54,3.54a1,1,0,0,0,.71.3h.06a1.05,1.05,0,0,0,.73-.38l7.09-8.86a1,1,0,0,0,.22-.74,1,1,0,0,0-1.79-.52Zm-6.31,10Z"/><circle class="cls-11" cx="176.22" cy="295.12" r="32.5"/><path class="cls-9" d="M189.68,312.07H162.77c-1.59,0-2.9-1.31-3.41-3.4-.41-1.65-.23-3.75,1.09-4.55.87-.79,3.14-1.82,6.44-3.27a37.72,37.72,0,0,0,4.21-2c.26-.27.09-2.16-1.88-5.07-2.24-2.35-1.81-4.36-1.1-5.36,0-.19,0-.41-.06-.66a13.79,13.79,0,0,1,.11-4.65c1-3.53,4.87-5.14,8.05-5.14s7.05,1.61,8.05,5.13a13.86,13.86,0,0,1,.11,4.66q0,.38-.06.66c.71,1,1.15,3-1.1,5.36-2,2.91-2.14,4.8-1.87,5.07a37.72,37.72,0,0,0,4.21,2c3.3,1.45,5.56,2.48,6.43,3.27,1.32.8,1.5,2.9,1.09,4.55C192.57,310.76,191.26,312.07,189.68,312.07Zm-13.46-32.32c-2.11,0-5.53,1-6.33,3.83a12.76,12.76,0,0,0,0,4c0,.47.08.87.08,1.12a.88.88,0,0,1-.27.64c-.1.11-1,1.23.9,3.22l.1.12c1.79,2.62,3.17,5.94,1.71,7.42-.47.47-1.75,1.06-4.76,2.39-2.27,1-5.37,2.37-6,3a.73.73,0,0,1-.22.16c-.34.18-.63,1.26-.3,2.6.23.94.81,2,1.67,2h26.91c.85,0,1.43-1.09,1.66-2,.33-1.34,0-2.42-.3-2.6a.89.89,0,0,1-.22-.16c-.62-.62-3.72-2-6-3-3-1.33-4.28-1.92-4.76-2.39-1.46-1.48-.07-4.8,1.71-7.42l.1-.12c2-2.07.91-3.2.9-3.22a.89.89,0,0,1-.27-.64c0-.25,0-.65.08-1.12a12.83,12.83,0,0,0,0-4C181.75,280.77,178.33,279.75,176.22,279.75Z"/></g></svg>