<svg xmlns="http://www.w3.org/2000/svg" xmlns:xlink="http://www.w3.org/1999/xlink" viewBox="0 0 320.55 348"><defs><style>.cls-1{opacity:0.8;fill:url(#linear-gradient);}.cls-10,.cls-2,.cls-5,.cls-6{fill:none;}.cls-2,.cls-5,.cls-6{stroke:#cbced0;stroke-miterlimit:10;}.cls-2{stroke-dasharray:8;}.cls-3{fill:#1ab4ff;}.cls-4{fill:#fff;}.cls-6{stroke-dasharray:7.54 7.54;}.cls-7{fill:#cbced0;}.cls-8{fill:#2a4788;}.cls-9{fill:url(#linear-gradient-2);}.cls-10{stroke:#fff;stroke-linecap:round;stroke-linejoin:round;stroke-width:1.5px;}</style><linearGradient id="linear-gradient" x1="-701.41" y1="-565.02" x2="-342.16" y2="-565.02" gradientTransform="translate(296.18 939.07) rotate(32.3)" gradientUnits="userSpaceOnUse"><stop offset="0" stop-color="#fffed2"/><stop offset="1" stop-color="#d7f9ff"/></linearGradient><linearGradient id="linear-gradient-2" x1="136.72" y1="270.06" x2="201.06" y2="270.06" gradientUnits="userSpaceOnUse"><stop offset="0" stop-color="#ffae8a"/><stop offset="1" stop-color="#f37025"/></linearGradient></defs><g id="Layer_101" data-name="Layer 101"><path class="cls-1" d="M267.63,145.82a106.34,106.34,0,0,0-38.4-15.21A51.69,51.69,0,0,1,187.7,87.88,88.45,88.45,0,1,0,16,128.3a53.5,53.5,0,0,1-5.32,44.55c-.49.79-1,1.6-1.44,2.42a56.92,56.92,0,0,0,56,84.38c20.66-2.32,40.89,7.72,50.65,26.07a106.69,106.69,0,0,0,184.67,6.13C331.16,242.58,316.45,177.2,267.63,145.82Z"/><path class="cls-2" d="M49.48,167.62a114.89,114.89,0,0,1-1.37-19.21C49,84.12,103.15,32.7,169.17,33.56s118.87,53.68,118,118a114.89,114.89,0,0,1-1.89,19.31"/><path class="cls-2" d="M287.21,174.86c-22,54.75-68.19,92.22-121.15,91.53-51.73-.68-96.08-37.58-117.25-90.84"/><path class="cls-3" d="M53,175.74a26.57,26.57,0,1,1,26.57-26.57A26.6,26.6,0,0,1,53,175.74Z"/><path class="cls-3" d="M53,123.61a25.57,25.57,0,1,1-25.57,25.56A25.6,25.6,0,0,1,53,123.61m0-2a27.57,27.57,0,1,0,27.57,27.56A27.57,27.57,0,0,0,53,121.61Z"/><path class="cls-4" d="M64.39,162.79H41.57c-1.35,0-2.46-1.1-2.89-2.88-.35-1.4-.2-3.18.92-3.86a27.08,27.08,0,0,1,5.46-2.77,32.07,32.07,0,0,0,3.58-1.72c.22-.22.07-1.83-1.6-4.3-1.9-2-1.53-3.7-.93-4.54,0-.16,0-.35,0-.56a11.71,11.71,0,0,1,.09-3.95c.85-3,4.13-4.35,6.83-4.35s6,1.36,6.83,4.35a12,12,0,0,1,.09,3.95c0,.21,0,.4,0,.56.6.84,1,2.56-.93,4.54-1.67,2.47-1.82,4.08-1.59,4.31a32.13,32.13,0,0,0,3.57,1.71,27.38,27.38,0,0,1,5.46,2.77c1.12.68,1.27,2.46.92,3.86C66.84,161.69,65.74,162.79,64.39,162.79ZM53,135.38c-1.79,0-4.69.86-5.37,3.25a11,11,0,0,0,0,3.39c0,.41.07.74.07,1a.74.74,0,0,1-.23.54c-.08.09-.88,1,.77,2.73a.39.39,0,0,1,.08.1c1.52,2.22,2.69,5,1.45,6.29-.4.4-1.48.9-4,2a31.17,31.17,0,0,0-5.08,2.53.85.85,0,0,1-.19.14c-.29.15-.53,1.07-.25,2.21.19.79.68,1.72,1.41,1.72H64.39c.73,0,1.22-.93,1.41-1.72.28-1.14,0-2.06-.25-2.21a.67.67,0,0,1-.19-.14,31.17,31.17,0,0,0-5.08-2.53c-2.55-1.13-3.63-1.63-4-2-1.24-1.25-.07-4.07,1.44-6.29l.09-.1c1.71-1.76.77-2.72.76-2.73a.77.77,0,0,1-.22-.54c0-.22,0-.55.06-1a11,11,0,0,0,0-3.39C57.67,136.24,54.77,135.38,53,135.38Z"/><circle class="cls-3" cx="287" cy="149.17" r="27.57"/><path class="cls-4" d="M296.28,134.56a.65.65,0,0,0-.27.05L281.33,140a.77.77,0,0,0-.46,1l5.41,14.69a.76.76,0,0,0,.72.5.84.84,0,0,0,.27,0L302,150.75a.78.78,0,0,0,.46-1L297,135.06a.78.78,0,0,0-.73-.5Zm-8.82,19.88-4.87-13.24,13.23-4.88,4.88,13.24-13.24,4.88Z"/><path class="cls-4" d="M274.64,136.1h-3.1a.78.78,0,0,0-.77.78.77.77,0,0,0,.77.77h2.56l7.4,19.24a4.63,4.63,0,1,0,7.05,4,4.5,4.5,0,0,0-.1-1l14.28-5.26a.77.77,0,0,0-.26-1.5.86.86,0,0,0-.27,0l-14.33,5.28a4.62,4.62,0,0,0-4-2.24,4.44,4.44,0,0,0-1,.11l-7.58-19.71a.78.78,0,0,0-.72-.5Zm9.27,27.84a3.1,3.1,0,1,1,3.1-3.1,3.1,3.1,0,0,1-3.1,3.1Z"/><line class="cls-5" x1="199.17" y1="149.72" x2="203.17" y2="149.72"/><line class="cls-6" x1="210.71" y1="149.72" x2="237.11" y2="149.72"/><line class="cls-5" x1="240.89" y1="149.72" x2="244.89" y2="149.72"/><polygon class="cls-7" points="200.63 154.71 191.99 149.72 200.63 144.74 200.63 154.71"/><polygon class="cls-7" points="243.43 154.71 252.06 149.72 243.43 144.74 243.43 154.71"/><line class="cls-5" x1="92.55" y1="149.72" x2="96.55" y2="149.72"/><line class="cls-6" x1="104.09" y1="149.72" x2="130.49" y2="149.72"/><line class="cls-5" x1="134.26" y1="149.72" x2="138.26" y2="149.72"/><polygon class="cls-7" points="94 154.71 85.37 149.72 94 144.74 94 154.71"/><polygon class="cls-7" points="136.81 154.71 145.44 149.72 136.81 144.74 136.81 154.71"/><path class="cls-8" d="M183.81,140.14h-26a3.91,3.91,0,0,0-1.2-2.73,4.24,4.24,0,0,0-3-1h-1.7a.72.72,0,0,0,0,1.43h1.77a2.42,2.42,0,0,1,2.71,2.79v18.48h0v.79a3.39,3.39,0,0,0,.8,2.27,2.25,2.25,0,0,0,1.28.65,3.4,3.4,0,0,0,6.68.16h7.87a3.4,3.4,0,1,0,0-1.42h-7.87a3.4,3.4,0,0,0-6.6-.18.82.82,0,0,1-.34-.2,2,2,0,0,1-.4-1.26v-2.83h21.23a2,2,0,0,0,1.91-1.39l4-10.87c.37-1,.6-1.64.7-2h0a2.08,2.08,0,0,0,.12-.68A2,2,0,0,0,183.81,140.14Zm-7.43,20.17a2,2,0,1,1-2,2A2,2,0,0,1,176.38,160.31Zm-14.53,0a2,2,0,1,1-2,2A2,2,0,0,1,161.85,160.31Zm22.5-18h0c-.11.31-3.11,8.54-4.71,12.9a.59.59,0,0,1-.56.43H157.84V141.57h26a.58.58,0,0,1,.58.58A.88.88,0,0,1,184.35,142.35Z"/><circle class="cls-8" cx="169.07" cy="34.17" r="32.17"/><circle class="cls-9" cx="168.89" cy="270.06" r="32.17"/><rect class="cls-10" x="149.15" y="260.13" width="39.69" height="21.43"/><path class="cls-10" d="M156.09,278.38H181.9a3.87,3.87,0,0,1,3.87-3.87h0v-7.35h0a3.87,3.87,0,0,1-3.87-3.87H156.08a3.86,3.86,0,0,1-3.86,3.87h0v7.35h0a3.87,3.87,0,0,1,3.86,3.87Z"/><path class="cls-10" d="M174.07,270.84a5.08,5.08,0,1,1-5.08-5.08A5.07,5.07,0,0,1,174.07,270.84Z"/><line class="cls-10" x1="177.59" y1="270.84" x2="179.96" y2="270.84"/><line class="cls-10" x1="160.39" y1="270.84" x2="158.03" y2="270.84"/><line class="cls-5" x1="168.83" y1="125.91" x2="168.83" y2="121.91"/><line class="cls-6" x1="168.83" y1="114.36" x2="168.83" y2="87.96"/><line class="cls-5" x1="168.83" y1="84.19" x2="168.83" y2="80.19"/><polygon class="cls-7" points="173.82 124.45 168.83 133.08 163.85 124.45 173.82 124.45"/><polygon class="cls-7" points="173.82 81.64 168.83 73.01 163.85 81.64 173.82 81.64"/><line class="cls-5" x1="168.83" y1="224.72" x2="168.83" y2="220.72"/><line class="cls-6" x1="168.83" y1="213.18" x2="168.83" y2="186.78"/><line class="cls-5" x1="168.83" y1="183" x2="168.83" y2="179"/><polygon class="cls-7" points="173.82 223.26 168.83 231.9 163.85 223.26 173.82 223.26"/><polygon class="cls-7" points="173.82 180.46 168.83 171.83 163.85 180.46 173.82 180.46"/><path class="cls-4" d="M169.52,26h.41a7.83,7.83,0,0,1,3.83,1.07l.36.21a.19.19,0,0,0,.12,0,.25.25,0,0,0,.18-.08l7.45-7.45a.27.27,0,0,0,.08-.19.25.25,0,0,0-.1-.18l-.47-.37a18.5,18.5,0,0,0-11.54-4,19.43,19.43,0,0,0-2.27.15l-.6.08a.24.24,0,0,0-.18.1.24.24,0,0,0,0,.2l2.52,10.24A.26.26,0,0,0,169.52,26Zm.32-9.39a16.91,16.91,0,0,1,9.86,3.14L174,25.43a9.47,9.47,0,0,0-3.46-1l-1.92-7.8C169.07,16.62,169.46,16.61,169.84,16.61Z"/><path class="cls-4" d="M184.52,22.19l-.37-.47a.21.21,0,0,0-.18-.09.23.23,0,0,0-.19.07l-7.45,7.45a.24.24,0,0,0,0,.3l.21.36a7.65,7.65,0,0,1,0,7.84l-.21.36a.24.24,0,0,0,0,.3l7.45,7.46a.29.29,0,0,0,.18.07h0a.25.25,0,0,0,.18-.1l.37-.47a18.61,18.61,0,0,0,0-23.08Zm-6.38,15.72a9.24,9.24,0,0,0,0-8.36l5.68-5.68a17.05,17.05,0,0,1,0,19.72Z"/><path class="cls-4" d="M151.61,31l10.52.78h0a.26.26,0,0,0,.24-.17l.13-.39h0a7.73,7.73,0,0,1,3.65-4.33l.36-.19a.25.25,0,0,0,.13-.28l-2.52-10.23a.25.25,0,0,0-.33-.17l-.56.21A18.8,18.8,0,0,0,151.5,30.14l-.11.59a.24.24,0,0,0,0,.2A.27.27,0,0,0,151.61,31Zm1.62-1.45A17.18,17.18,0,0,1,163,18.06l1.92,7.79a9.22,9.22,0,0,0-3.65,4.32Z"/><path class="cls-4" d="M174.42,40.22a.24.24,0,0,0-.3,0l-.36.21a7.66,7.66,0,0,1-3.92,1.08,7.74,7.74,0,0,1-7.61-6.36l-.07-.41a.25.25,0,0,0-.23-.2l-10.5-.78a.24.24,0,0,0-.19.07.23.23,0,0,0-.07.19l0,.6a18.66,18.66,0,0,0,30.19,13.84l.47-.37a.25.25,0,0,0,0-.38ZM160.82,36A9.28,9.28,0,0,0,174,42l5.68,5.68a17.07,17.07,0,0,1-26.88-12.32Z"/></g></svg>