<svg xmlns="http://www.w3.org/2000/svg" xmlns:xlink="http://www.w3.org/1999/xlink" viewBox="0 0 411.91 290.09"><defs><style>.cls-1{opacity:0.8;fill:url(#linear-gradient);}.cls-2{fill:#1ab4ff;}.cls-14,.cls-3,.cls-4,.cls-6,.cls-7{fill:none;}.cls-3,.cls-4,.cls-6{stroke:#cbced0;}.cls-12,.cls-14,.cls-3,.cls-4,.cls-6,.cls-7{stroke-miterlimit:10;}.cls-4{stroke-dasharray:7.49 7.49;}.cls-5{fill:#cbced0;}.cls-6{stroke-dasharray:9.02 9.02;}.cls-12,.cls-7{stroke:#dfe3e5;}.cls-8{fill:#dfe3e5;}.cls-9{fill:#2a4788;}.cls-10{fill:#fff;}.cls-11,.cls-12{fill:#f5fafd;}.cls-13{fill:url(#linear-gradient-2);}.cls-14{stroke:#fff;stroke-width:1.5px;}</style><linearGradient id="linear-gradient" x1="-471.51" y1="-207.33" x2="-69.74" y2="-207.33" gradientTransform="translate(465.52 362.44) rotate(1.79)" gradientUnits="userSpaceOnUse"><stop offset="0" stop-color="#fffed2"/><stop offset="1" stop-color="#d7f9ff"/></linearGradient><linearGradient id="linear-gradient-2" x1="355.04" y1="134.38" x2="396.24" y2="134.38" gradientUnits="userSpaceOnUse"><stop offset="0" stop-color="#ffae8a"/><stop offset="1" stop-color="#f37025"/></linearGradient></defs><g id="Layer_87" data-name="Layer 87"><path class="cls-1" d="M287.16,48.45a119.06,119.06,0,0,0-45.63,7.14A57.78,57.78,0,0,1,177.26,38,98.72,98.72,0,0,0,103,2C49.44.88,4.35,43.2,2.09,96.73a98.69,98.69,0,0,0,32.64,77.71A59.83,59.83,0,0,1,54.9,220.39c0,1,0,2.09,0,3.15a63.66,63.66,0,0,0,101.83,49.52c18.58-14,43.78-15.77,63.6-3.64A119.29,119.29,0,0,0,401.74,170.5C403.31,105.61,352,51,287.16,48.45Z"/><path class="cls-2" d="M74.86,148.7H49.52c-1.5,0-2.73-1.23-3.21-3.2-.38-1.56-.22-3.53,1-4.29.82-.74,2.95-1.71,6.06-3.08a34.33,34.33,0,0,0,4-1.9c.24-.25.08-2-1.77-4.77-2.12-2.21-1.71-4.11-1-5.05,0-.17,0-.38-.06-.62a13.22,13.22,0,0,1,.1-4.38c.95-3.32,4.6-4.84,7.59-4.84s6.64,1.52,7.58,4.84a13.22,13.22,0,0,1,.1,4.38c0,.24,0,.45-.05.62.66.94,1.07,2.84-1,5.05-1.85,2.74-2,4.52-1.77,4.77a32.72,32.72,0,0,0,4,1.9c3.1,1.37,5.23,2.34,6.06,3.08,1.24.76,1.41,2.73,1,4.29C77.58,147.47,76.35,148.7,74.86,148.7ZM62.19,118.26c-2,0-5.21,1-6,3.61a11.9,11.9,0,0,0,0,3.77c0,.45.07.82.07,1.06a.84.84,0,0,1-.25.6c-.1.1-1,1.16.85,3l.09.11c1.68,2.47,3,5.6,1.61,7-.44.45-1.64,1-4.48,2.25-2.13.94-5.06,2.23-5.64,2.81a1.16,1.16,0,0,1-.21.16c-.32.17-.59,1.18-.28,2.44.22.89.76,1.92,1.57,1.92H74.86c.81,0,1.35-1,1.56-1.92.31-1.26,0-2.27-.28-2.44a1.16,1.16,0,0,1-.21-.16c-.58-.58-3.5-1.87-5.63-2.81-2.84-1.25-4-1.81-4.49-2.25-1.37-1.39-.07-4.52,1.61-7l.09-.11c1.91-2,.87-3,.85-3a.84.84,0,0,1-.25-.6c0-.24,0-.61.08-1.06a11.9,11.9,0,0,0,0-3.77C67.39,119.22,64.17,118.26,62.19,118.26Z"/><path class="cls-2" d="M74.86,240.49H49.52c-1.5,0-2.73-1.23-3.21-3.2-.38-1.56-.22-3.53,1-4.29.82-.74,2.95-1.71,6.06-3.08a36.13,36.13,0,0,0,4-1.9c.24-.25.08-2-1.77-4.78-2.12-2.2-1.71-4.1-1-5,0-.17,0-.38-.06-.62a13.22,13.22,0,0,1,.1-4.38c.95-3.33,4.6-4.84,7.59-4.84s6.64,1.51,7.58,4.84a13.22,13.22,0,0,1,.1,4.38c0,.24,0,.45-.05.62.66.94,1.07,2.84-1,5-1.85,2.74-2,4.53-1.77,4.78a32.72,32.72,0,0,0,4,1.9c3.1,1.37,5.23,2.34,6.06,3.08,1.24.76,1.41,2.73,1,4.29C77.58,239.26,76.35,240.49,74.86,240.49ZM62.19,210.05c-2,0-5.21,1-6,3.61a11.85,11.85,0,0,0,0,3.76c0,.46.07.83.07,1.07a.86.86,0,0,1-.25.6c-.1.1-1,1.16.85,3l.09.11c1.68,2.47,3,5.6,1.61,7-.44.45-1.64,1-4.48,2.26-2.13.94-5.06,2.23-5.64,2.81a.8.8,0,0,1-.21.15c-.32.17-.59,1.19-.28,2.45.22.89.76,1.92,1.57,1.92H74.86c.81,0,1.35-1,1.56-1.92.31-1.26,0-2.28-.28-2.45a.8.8,0,0,1-.21-.15c-.58-.58-3.5-1.87-5.63-2.81-2.84-1.25-4-1.81-4.49-2.26-1.37-1.38-.07-4.51,1.61-7l.09-.11c1.91-2,.87-3,.85-3a.86.86,0,0,1-.25-.6c0-.24,0-.61.08-1.07a11.84,11.84,0,0,0,0-3.76C67.39,211,64.17,210.05,62.19,210.05Z"/><path class="cls-2" d="M74.86,59.91H49.52c-1.5,0-2.73-1.22-3.21-3.2-.38-1.55-.22-3.52,1-4.28.82-.74,2.95-1.71,6.06-3.08a36.13,36.13,0,0,0,4-1.9c.24-.25.08-2-1.77-4.78-2.12-2.2-1.71-4.1-1-5,0-.18,0-.39-.06-.62a13.29,13.29,0,0,1,.1-4.39c.95-3.32,4.6-4.83,7.59-4.83s6.64,1.51,7.58,4.83a13.29,13.29,0,0,1,.1,4.39c0,.23,0,.44-.05.62.66.94,1.07,2.84-1,5-1.85,2.74-2,4.53-1.77,4.78a34.35,34.35,0,0,0,4,1.9c3.1,1.37,5.23,2.34,6.06,3.08,1.24.76,1.41,2.73,1,4.28C77.58,58.69,76.35,59.91,74.86,59.91ZM62.19,29.48c-2,0-5.21,1-6,3.61a11.85,11.85,0,0,0,0,3.76c0,.45.07.82.07,1.07a.86.86,0,0,1-.25.6c-.1.1-1,1.16.85,3l.09.11c1.68,2.47,3,5.59,1.61,7-.44.45-1.64,1-4.48,2.26-2.13.94-5.06,2.23-5.64,2.81a.8.8,0,0,1-.21.15c-.32.17-.59,1.19-.28,2.45.22.88.76,1.91,1.57,1.91H74.86c.81,0,1.35-1,1.56-1.91.31-1.26,0-2.28-.28-2.45a.8.8,0,0,1-.21-.15c-.58-.58-3.5-1.87-5.63-2.81-2.84-1.25-4-1.81-4.49-2.26-1.37-1.38-.07-4.51,1.61-7l.09-.11c1.91-1.95.87-3,.85-3a.86.86,0,0,1-.25-.6c0-.25,0-.62.08-1.07a11.84,11.84,0,0,0,0-3.76C67.39,30.44,64.17,29.48,62.19,29.48Z"/><line class="cls-3" x1="85.71" y1="47.01" x2="88.64" y2="49.73"/><line class="cls-4" x1="94.12" y1="54.83" x2="135.25" y2="93.05"/><line class="cls-3" x1="137.99" y1="95.6" x2="140.92" y2="98.33"/><polygon class="cls-5" points="136.46 100.98 146.18 103.21 143.25 93.68 136.46 100.98"/><line class="cls-3" x1="85.71" y1="225.63" x2="88.64" y2="222.9"/><line class="cls-4" x1="94.12" y1="217.81" x2="135.25" y2="179.58"/><line class="cls-3" x1="137.99" y1="177.03" x2="140.92" y2="174.31"/><polygon class="cls-5" points="143.25 178.96 146.18 169.43 136.46 171.65 143.25 178.96"/><line class="cls-3" x1="85.91" y1="136.17" x2="89.91" y2="136.17"/><line class="cls-6" x1="98.93" y1="136.17" x2="130.49" y2="136.17"/><line class="cls-3" x1="135" y1="136.17" x2="139" y2="136.17"/><polygon class="cls-5" points="137.54 141.16 146.18 136.17 137.54 131.18 137.54 141.16"/><line class="cls-7" x1="180.09" y1="134.68" x2="233.18" y2="134.68"/><polygon class="cls-8" points="231.72 139.67 240.35 134.68 231.72 129.69 231.72 139.67"/><circle class="cls-9" cx="186.45" cy="134" r="29.85"/><path class="cls-10" d="M186.45,104.9A29.11,29.11,0,1,1,157.34,134a29.13,29.13,0,0,1,29.11-29.1m0-1.5a30.61,30.61,0,1,0,30.6,30.6,30.61,30.61,0,0,0-30.6-30.6Z"/><rect class="cls-11" x="247.68" y="89.79" width="159.42" height="94.13"/><path class="cls-12" d="M406.74,83.6H248.21a.61.61,0,0,0-.61.61V183.8a.6.6,0,0,0,.61.6H406.74a.6.6,0,0,0,.61-.6V84.21A.61.61,0,0,0,406.74,83.6Zm.28,9.12v90.42a1,1,0,0,1-1,1H248.78a1,1,0,0,1-1-1V89.92H407Z"/><circle class="cls-8" cx="251.35" cy="86.6" r="1.31"/><circle class="cls-8" cx="255.21" cy="86.6" r="1.31"/><circle class="cls-8" cx="259.06" cy="86.6" r="1.31"/><rect class="cls-8" x="247.67" y="89.46" width="159.66" height="0.3"/><path class="cls-8" d="M376.45,124.24a10.16,10.16,0,0,1,8.57,6.23l9.94-3.23a20.68,20.68,0,0,0-18.51-13.45Z"/><path class="cls-13" d="M374.83,113.79a20.57,20.57,0,1,0,20.64,15l-10,3.23a10,10,0,0,1,.28,2.36,10.16,10.16,0,1,1-11-10.12Z"/><path class="cls-8" d="M268.17,151.49a20.54,20.54,0,0,0,32-17.08,20.67,20.67,0,0,0-19.75-20.53v10.43a10.13,10.13,0,1,1-6.09,18.74Z"/><path class="cls-2" d="M278.78,113.88A20.67,20.67,0,0,0,259,134.41a20.39,20.39,0,0,0,7.84,16.13L273,142.1a10.12,10.12,0,0,1,5.78-17.79Z"/><path class="cls-2" d="M326.39,113.88a20.55,20.55,0,1,0,6.39,40.31l-3.22-9.92a10.42,10.42,0,0,1-2.36.27,10.13,10.13,0,0,1-.81-20.23Z"/><path class="cls-8" d="M331.09,143.77l3.22,9.92a20.55,20.55,0,0,0-6.3-39.81v10.43a10.13,10.13,0,0,1,3.08,19.46Z"/><path class="cls-14" d="M202.49,135.9a31.79,31.79,0,0,0-5.17-3.09c-.68-.33-1.35-.62-2-.89.66-.13,1.34-.29,2-.47a22,22,0,0,0,5.34-2.12c1.48-.89,2.22-1.79,1.86-2.46s-2-1.06-4.13-1a26,26,0,0,0-5.12.74c-.65.15-1.29.33-1.89.51a16.49,16.49,0,0,0,.93-1.46,15,15,0,0,0,1.78-4.33c.27-1.39.09-2.38-.58-2.68s-2,.23-3.29,1.41a17.68,17.68,0,0,0-2.84,3.32c-.32.48-.62,1-.89,1.45-.14-.53-.31-1.07-.5-1.6a15.87,15.87,0,0,0-2.2-4.25c-.92-1.23-1.87-1.91-2.62-1.77s-1.29,1.27-1.3,2.94a15.21,15.21,0,0,0,.66,4.24c.16.56.34,1.11.55,1.64-.56-.31-1.15-.62-1.76-.92a26.38,26.38,0,0,0-5.61-2c-1.95-.42-3.45-.38-4,.21s.09,1.9,1.7,3.26a23.48,23.48,0,0,0,4.55,2.9c.64.32,1.29.62,1.93.89-.73.13-1.49.29-2.27.47a36,36,0,0,0-6.88,2.37c-2.26,1.09-3.68,2.25-3.6,3.16s2.08,1.42,5,1.24a36.2,36.2,0,0,0,6.73-1.18c.82-.22,1.61-.46,2.35-.72-.46.61-.93,1.26-1.4,1.95a32.35,32.35,0,0,0-3.59,6.87c-.93,2.56-1.08,4.55-.11,5.1s3.12-.74,5.3-3.14a35.7,35.7,0,0,0,4.18-5.8c.43-.73.81-1.44,1.15-2.12.15.73.34,1.49.57,2.27a29.86,29.86,0,0,0,2.95,7c1.36,2.25,2.79,3.55,3.85,3.15s1.45-2.68,1.08-5.66a31.69,31.69,0,0,0-1.58-6.42c-.26-.75-.55-1.45-.84-2.12.65.38,1.33.75,2.05,1.11a29.67,29.67,0,0,0,6.58,2.45c2.22.48,3.79.36,4.09-.48S204.58,137.48,202.49,135.9Z"/></g></svg>