<?xml version="1.0" encoding="utf-8"?>
<!-- Generator: Adobe Illustrator 25.2.0, SVG Export Plug-In . SVG Version: 6.00 Build 0)  -->
<svg version="1.1" id="Layer_1" xmlns="http://www.w3.org/2000/svg" xmlns:xlink="http://www.w3.org/1999/xlink" x="0px" y="0px"
	 viewBox="0 0 2834.6 955.7" style="enable-background:new 0 0 2834.6 955.7;" xml:space="preserve">
<style type="text/css">
	.st0{fill-rule:evenodd;clip-rule:evenodd;fill:#FFFFFF;}
</style>
<g>
	<path class="st0" d="M1294.4,333.6c-17.7-10-44.5-14.7-81.2-14.7c-50.2,0-96.9,10.7-114.4,17.5c-4.8,1.3-8.2,5.5-8.5,10.5v1.5
		l5,25.2v0.5c1.7,5,6,7.5,10,7.5l3-0.5l8.2-2c22-5.5,55-14,91.9-14c22.5,0,37.5,2,47.5,6.2c16.5,6.5,16.7,17.2,17,35V433h-10
		c-18.2,0-53.7,0.7-88.7,6.5c-53.5,8.2-97.4,21.2-97.4,95.9c0,94.9,86.7,94.9,128.4,95.2c28.2,0,54.2-4.2,71.5-7.7
		c38.7-9.2,48.7-21.7,48.2-61V404.1C1324.9,380.1,1324.9,350.1,1294.4,333.6z M1273.2,577.5c-21.8,6.9-44.6,10.3-67.5,10v2.5v-2.5
		c-38.2,0-75.7-4.5-75.7-54.2c0-39.5,21-44.2,47.2-50l1.7-0.5c23.2-5,82-6,94.2-6.2C1273.2,476.6,1273.2,577.5,1273.2,577.5z
		 M1757.9,404.1V562c0.7,39.2-9.2,51.7-48.2,60.7c-17,3.7-43,8-71.2,8c-41.7,0-128.4-0.2-128.4-95.2c-0.2-74.7,43.7-87.7,97.4-95.9
		c35-5.7,70.5-6.7,88.4-6.7h10v-26.2c0-17.7-0.2-28.5-16.7-35c-10-4.2-25-6.2-47.5-6.2c-37,0-70,8.5-91.9,14l-8.5,2
		c-5.3,1.7-10.9-1.2-12.6-6.4c-0.1-0.2-0.1-0.4-0.2-0.6V374l-5-25.2v-1.5c0-5.7,4.2-9.5,8.2-10.7c17.7-6.5,64.5-17.2,114.7-17.2
		c36.7,0,63.2,5,81.2,15c30.5,16.2,30.5,46.2,30.2,70.2L1757.9,404.1z M1706.4,476.6c-12.5,0-71,1.2-94.2,6.2l-2,0.5
		c-26.2,5.7-47,10.5-47.2,50c0,49.7,37.5,54.2,76,54.5v2.2v-2.5c22.9,0.3,45.6-3.1,67.5-10C1706.4,577.5,1706.4,476.6,1706.4,476.6z
		 M2542.7,318.9c-120.7,0-130.9,80.7-130.9,156.2c0,75.2,10.2,155.4,130.9,155.7c120.7-0.2,130.9-80.2,131.2-155.7
		C2673.9,396.1,2663.4,319.2,2542.7,318.9z M2542.7,586.5c-73.2,0-77-38.5-77.5-111.4c0.7-73.5,4.2-111.7,77.5-112.2
		c73.2,0.5,77,38.7,77.5,112.2C2619.6,548,2615.9,586.2,2542.7,586.5z M2326.1,619.5l-3,1c-17,4.2-40,10-80.7,10
		c-111.7,0-133.7-57.2-133.7-155.9c0-113.4,35.5-155.4,130.4-155.7c33.5,0,56.7,4.5,73.2,8.5v-91.2c-0.2-4,1.5-9.2,10.7-11l29.7-7.7
		h1.7c6.7,0,9.2,6.2,9.2,11.5v342.8C2363.8,593.5,2361.4,612,2326.1,619.5L2326.1,619.5L2326.1,619.5z M2312.1,371.4
		c-10-2.5-37.5-9-68.7-9c-57,0.5-81.2,16.2-81.7,112.7c0.7,105.9,31.7,111.7,82.5,112.2v2.2V587c31.5,0,58.5-6.5,68-9.2
		C2312.1,577.8,2312.1,371.4,2312.1,371.4z M2045.7,623.5h-26.5c-6.9,0-12.5-5.6-12.5-12.5V407.1c-0.5-34.2-10.7-44-47.5-44.5
		c-41,0-83,10.5-96.7,14.5v233.4c0,7.5-5,12.7-11.7,12.7h-27.2c-6.9,0-12.5-5.6-12.5-12.5V382.6c-0.2-21,1.5-35.5,31.2-45.2
		c28.2-10,82.5-18.5,118.2-18.5c68.2,0,97.4,25,97.4,83.7V611c0,6.9-5.6,12.5-12.5,12.5H2045.7z M1444.6,629
		c15.5-0.2,26.7-3.2,31-8.5c1.5-1.5,2.3-3.6,2.2-5.7c0-1.7,0-1.7-4.2-21.7v-0.5c-1.2-5-4.7-7.5-7.7-7.5h-8c-11-0.2-20-2-20-18V229
		c0-5.5-3.5-11.5-10-11.5h-1.7l-30,7.7c-5,0.5-10,4.2-10,11V568C1386.1,607.2,1407.1,629,1444.6,629z M1024.8,623.5H811.9
		c-6.9,0-12.5-5.6-12.5-12.5v-26.5c0-6.5,2-9.5,6-14.5l169.4-199.9H808.7c-6.9,0-12.5-5.6-12.5-12.5v-19c0-7.2,5.5-12.5,12.5-12.5
		h215.1c7.2,0,12.5,5.5,12.5,12.5v27c0,5-1.5,9-5.2,13.5L861.2,579.5h163.9c7,0,12.5,5.5,12.5,12.5v19c0,6.9-5.6,12.5-12.5,12.5
		H1024.8z"/>
	<path class="st0" d="M314,707.4c-18.2,0-28.2-4.5-33.5-7.5c-7.5-4.5-21.2-15.5-33.5-48.2c-21.7-61.5-32.4-126.4-31.7-191.6v-0.2
		c0.5-75.5,12.2-139.7,31.7-192.1c12.7-32.5,26-44,33.5-48.2c5.2-3.2,15.2-7.5,33.2-7.5c7,0,15,0.7,24.5,2.2
		c54.7,9,114.9,30.7,179.9,68c56.3,32.2,106.4,74.1,147.9,123.9c21.7,27.5,24.2,45,24.2,53.5c0,8.7-2.5,26.2-24.2,53.5
		C624.5,563,574.4,605,518.1,637.1h-0.2c-55.3,33.3-116.2,56.5-179.6,68.2c-9.5,1.5-17.5,2-24.2,2"/>
</g>
</svg>
